<svg width="1548" height="779" viewBox="0 0 1548 779" fill="none" xmlns="http://www.w3.org/2000/svg">
<g filter="url(#filter0_d_530_3309)">
<g filter="url(#filter1_d_530_3309)">
<rect x="16" y="105.162" width="500" height="488.757" rx="16" fill="white"/>
<path d="M206.613 149.24C210.402 149.24 213.195 151.135 213.195 154.006C213.195 156.652 210.92 158.42 207.688 158.732V161.975H214.719V163.752H198.586V161.975H205.539V158.732C202.326 158.42 200.051 156.652 200.07 154.006C200.051 151.135 202.844 149.24 206.613 149.24ZM206.613 150.998C204.035 150.979 202.18 152.15 202.199 154.006C202.18 155.92 204.035 157.053 206.613 157.053C209.23 157.053 211.066 155.92 211.066 154.006C211.066 152.15 209.23 150.979 206.613 150.998ZM230.129 152.053V153.791H217.941V148.479H220.07V152.053H230.129ZM231.984 155.139V156.877H215.852V155.139H231.984ZM230.012 158.107V162.619H219.973V163.986H230.598V165.686H217.785V161.037H227.863V159.787H217.766V158.107H230.012ZM243.781 164.357C241.027 164.338 238.254 162.697 238.273 157.482C238.273 152.639 240.48 149.826 243.938 149.826C246.672 149.826 248.547 151.545 248.859 153.83H246.34C246.086 152.756 245.227 152.033 243.938 152.033C241.887 152.033 240.734 153.85 240.734 156.818H240.871C241.594 155.607 242.961 154.885 244.504 154.885C247.043 154.885 248.996 156.799 248.996 159.475C248.996 162.287 246.906 164.377 243.781 164.357ZM243.781 162.307C245.363 162.307 246.535 161.076 246.535 159.533C246.535 158.029 245.383 156.818 243.82 156.818C242.238 156.818 241.027 158.068 241.008 159.553C241.027 161.037 242.18 162.307 243.781 162.307ZM257.238 152.482C257.219 155.725 258.918 158.967 261.789 160.197L260.5 161.936C258.469 160.998 256.975 159.123 256.164 156.818C255.354 159.309 253.84 161.34 251.691 162.346L250.363 160.529C253.312 159.26 255.031 155.881 255.031 152.482V149.67H257.238V152.482ZM265.246 148.244V165.92H263.059V148.244H265.246ZM281.77 148.244V153.322H284.23V155.139H281.77V160.979H279.562V148.244H281.77ZM276.965 149.592C276.965 154.279 273.918 157.619 268.684 159.143L267.785 157.424C271.818 156.262 274.221 154.064 274.602 151.369H268.527V149.592H276.965ZM282.434 163.791V165.549H270.422V159.67H272.629V163.791H282.434ZM290.207 161.525V159.494L296.32 150.021H299.484V159.436H301.34V161.525H299.484V164.162H297.062V161.525H290.207ZM292.805 159.436H297.102V152.912H296.945L292.805 159.338V159.436ZM308.586 164.357C305.188 164.357 303.156 161.721 303.156 157.092C303.156 152.482 305.188 149.826 308.586 149.826C311.965 149.826 314.016 152.482 314.016 157.092C314.016 161.721 311.984 164.357 308.586 164.357ZM308.586 162.229C310.363 162.229 311.457 160.49 311.457 157.092C311.457 153.713 310.344 151.936 308.586 151.936C306.828 151.936 305.715 153.713 305.715 157.092C305.715 160.49 306.809 162.229 308.586 162.229ZM331.672 157.385V159.123H324.855V162.17H322.707V159.123H315.539V157.385H331.672ZM329.895 163.791V165.549H317.492V160.686H319.641V163.791H329.895ZM319.797 148.811V150.803H327.414V148.811H329.562V155.998H317.648V148.811H319.797ZM319.797 154.279H327.414V152.424H319.797V154.279Z" fill="#111111"/>
<line x1="40" y1="398.365" x2="492" y2="398.365" stroke="#BBBBBB" stroke-width="0.5"/>
<line x1="40" y1="454.365" x2="492" y2="454.365" stroke="#BBBBBB" stroke-width="0.5"/>
<line x1="40" y1="510.365" x2="492" y2="510.365" stroke="#BBBBBB" stroke-width="0.5"/>
<path d="M108 406.615C108 402.197 111.582 398.615 116 398.615H118C122.418 398.615 126 402.197 126 406.615V510.615H108V406.615Z" fill="url(#paint0_linear_530_3309)"/>
<path d="M72 406.615C72 402.197 75.5817 398.615 80 398.615H82C86.4183 398.615 90 402.197 90 406.615V510.615H72V406.615Z" fill="url(#paint1_linear_530_3309)"/>
<path d="M36 497.615C36 493.197 39.5817 489.615 44 489.615H46C50.4183 489.615 54 493.197 54 497.615V510.615H36V497.615Z" fill="url(#paint2_linear_530_3309)"/>
<path d="M45.5312 522.303V533.615H43.4844V524.287H43.4219L40.7812 525.975V524.115L43.5781 522.303H45.5312ZM48.2812 533.615V532.146L52.2812 528.287C53.4219 527.146 54.0156 526.475 54.0156 525.521C54.0156 524.475 53.1875 523.803 52.0781 523.803C50.9062 523.803 50.1562 524.537 50.1719 525.678H48.2344C48.2188 523.537 49.8281 522.146 52.0938 522.146C54.4062 522.146 55.9688 523.521 55.9688 525.428C55.9688 526.709 55.3438 527.74 53.125 529.834L51.1094 531.834V531.912H56.1406V533.615H48.2812Z" fill="#111111"/>
<path d="M82.5312 522.303V533.615H80.4844V524.287H80.4219L77.7812 525.975V524.115L80.5781 522.303H82.5312ZM89.875 522.303V533.615H87.8281V524.287H87.7656L85.125 525.975V524.115L87.9219 522.303H89.875Z" fill="#111111"/>
<path d="M117.531 522.303V533.615H115.484V524.287H115.422L112.781 525.975V524.115L115.578 522.303H117.531ZM124.453 533.771C121.734 533.771 120.109 531.662 120.109 527.959C120.109 524.271 121.734 522.146 124.453 522.146C127.156 522.146 128.797 524.271 128.797 527.959C128.797 531.662 127.172 533.771 124.453 533.771ZM124.453 532.068C125.875 532.068 126.75 530.678 126.75 527.959C126.75 525.256 125.859 523.834 124.453 523.834C123.047 523.834 122.156 525.256 122.156 527.959C122.156 530.678 123.031 532.068 124.453 532.068Z" fill="#111111"/>
<path d="M155.109 533.771C152.391 533.771 150.766 531.662 150.766 527.959C150.766 524.271 152.391 522.146 155.109 522.146C157.812 522.146 159.453 524.271 159.453 527.959C159.453 531.662 157.828 533.771 155.109 533.771ZM155.109 532.068C156.531 532.068 157.406 530.678 157.406 527.959C157.406 525.256 156.516 523.834 155.109 523.834C153.703 523.834 152.812 525.256 152.812 527.959C152.812 530.678 153.688 532.068 155.109 532.068ZM165.172 522.146C167.391 522.162 169.578 523.475 169.594 527.615C169.594 531.521 167.828 533.771 165.047 533.771C162.859 533.771 161.359 532.412 161.109 530.537H163.125C163.328 531.428 164.016 532.006 165.047 532.006C166.688 532.006 167.609 530.553 167.625 528.131H167.5C166.922 529.115 165.844 529.693 164.594 529.693C162.578 529.693 161.016 528.162 161 526.021C161 523.803 162.656 522.131 165.172 522.146ZM165.188 523.787C163.922 523.787 162.969 524.771 162.984 525.975C162.984 527.193 163.891 528.146 165.156 528.146C166.406 528.146 167.391 527.131 167.375 525.959C167.375 524.803 166.453 523.787 165.188 523.787Z" fill="#111111"/>
<path d="M196.109 533.771C193.391 533.771 191.766 531.662 191.766 527.959C191.766 524.271 193.391 522.146 196.109 522.146C198.812 522.146 200.453 524.271 200.453 527.959C200.453 531.662 198.828 533.771 196.109 533.771ZM196.109 532.068C197.531 532.068 198.406 530.678 198.406 527.959C198.406 525.256 197.516 523.834 196.109 523.834C194.703 523.834 193.812 525.256 193.812 527.959C193.812 530.678 194.688 532.068 196.109 532.068ZM206.266 533.771C203.75 533.771 201.969 532.428 201.969 530.584C201.969 529.146 203.031 527.975 204.391 527.756V527.693C203.203 527.443 202.391 526.412 202.391 525.178C202.391 523.428 204.031 522.146 206.266 522.146C208.484 522.146 210.125 523.428 210.125 525.178C210.125 526.412 209.297 527.443 208.125 527.693V527.756C209.484 527.975 210.562 529.146 210.562 530.584C210.562 532.428 208.766 533.771 206.266 533.771ZM206.266 532.162C207.594 532.162 208.469 531.443 208.469 530.396C208.469 529.334 207.531 528.553 206.266 528.553C204.984 528.553 204.047 529.334 204.062 530.396C204.047 531.443 204.922 532.162 206.266 532.162ZM206.266 527.037C207.359 527.037 208.141 526.35 208.141 525.365C208.141 524.412 207.375 523.74 206.266 523.74C205.141 523.74 204.375 524.396 204.375 525.365C204.375 526.35 205.156 527.037 206.266 527.037Z" fill="#111111"/>
<path d="M237.109 533.771C234.391 533.771 232.766 531.662 232.766 527.959C232.766 524.271 234.391 522.146 237.109 522.146C239.812 522.146 241.453 524.271 241.453 527.959C241.453 531.662 239.828 533.771 237.109 533.771ZM237.109 532.068C238.531 532.068 239.406 530.678 239.406 527.959C239.406 525.256 238.516 523.834 237.109 523.834C235.703 523.834 234.812 525.256 234.812 527.959C234.812 530.678 235.688 532.068 237.109 532.068ZM243.266 533.615L248.172 524.084V524.006H242.484V522.303H250.281V524.037L245.375 533.615H243.266Z" fill="#111111"/>
<path d="M276.109 533.771C273.391 533.771 271.766 531.662 271.766 527.959C271.766 524.271 273.391 522.146 276.109 522.146C278.812 522.146 280.453 524.271 280.453 527.959C280.453 531.662 278.828 533.771 276.109 533.771ZM276.109 532.068C277.531 532.068 278.406 530.678 278.406 527.959C278.406 525.256 277.516 523.834 276.109 523.834C274.703 523.834 273.812 525.256 273.812 527.959C273.812 530.678 274.688 532.068 276.109 532.068ZM286.391 533.771C284.188 533.756 281.969 532.443 281.984 528.271C281.984 524.396 283.75 522.146 286.516 522.146C288.703 522.146 290.203 523.521 290.453 525.35H288.438C288.234 524.49 287.547 523.912 286.516 523.912C284.875 523.912 283.953 525.365 283.953 527.74H284.062C284.641 526.771 285.734 526.193 286.969 526.193C289 526.193 290.562 527.725 290.562 529.865C290.562 532.115 288.891 533.787 286.391 533.771ZM286.391 532.131C287.656 532.131 288.594 531.146 288.594 529.912C288.594 528.709 287.672 527.74 286.422 527.74C285.156 527.74 284.188 528.74 284.172 529.928C284.188 531.115 285.109 532.131 286.391 532.131Z" fill="#111111"/>
<path d="M317.109 533.771C314.391 533.771 312.766 531.662 312.766 527.959C312.766 524.271 314.391 522.146 317.109 522.146C319.812 522.146 321.453 524.271 321.453 527.959C321.453 531.662 319.828 533.771 317.109 533.771ZM317.109 532.068C318.531 532.068 319.406 530.678 319.406 527.959C319.406 525.256 318.516 523.834 317.109 523.834C315.703 523.834 314.812 525.256 314.812 527.959C314.812 530.678 315.688 532.068 317.109 532.068ZM327.172 533.771C324.906 533.771 323.25 532.428 323.188 530.553H325.172C325.234 531.475 326.094 532.131 327.172 532.131C328.438 532.131 329.344 531.209 329.344 529.959C329.344 528.662 328.406 527.74 327.109 527.74C326.234 527.725 325.594 528.037 325.234 528.709H323.344L324.031 522.303H330.719V524.006H325.703L325.359 527.006H325.469C325.906 526.506 326.734 526.146 327.656 526.146C329.766 526.146 331.312 527.725 331.312 529.896C331.312 532.162 329.609 533.771 327.172 533.771Z" fill="#111111"/>
<path d="M358.109 533.771C355.391 533.771 353.766 531.662 353.766 527.959C353.766 524.271 355.391 522.146 358.109 522.146C360.812 522.146 362.453 524.271 362.453 527.959C362.453 531.662 360.828 533.771 358.109 533.771ZM358.109 532.068C359.531 532.068 360.406 530.678 360.406 527.959C360.406 525.256 359.516 523.834 358.109 523.834C356.703 523.834 355.812 525.256 355.812 527.959C355.812 530.678 356.688 532.068 358.109 532.068ZM363.953 531.506V529.881L368.844 522.303H371.375V529.834H372.859V531.506H371.375V533.615H369.438V531.506H363.953ZM366.031 529.834H369.469V524.615H369.344L366.031 529.756V529.834Z" fill="#111111"/>
<path d="M399.109 533.771C396.391 533.771 394.766 531.662 394.766 527.959C394.766 524.271 396.391 522.146 399.109 522.146C401.812 522.146 403.453 524.271 403.453 527.959C403.453 531.662 401.828 533.771 399.109 533.771ZM399.109 532.068C400.531 532.068 401.406 530.678 401.406 527.959C401.406 525.256 400.516 523.834 399.109 523.834C397.703 523.834 396.812 525.256 396.812 527.959C396.812 530.678 397.688 532.068 399.109 532.068ZM409.266 533.771C406.844 533.771 405.125 532.459 405.078 530.553H407.125C407.188 531.459 408.094 532.053 409.266 532.053C410.516 532.053 411.406 531.365 411.406 530.365C411.406 529.35 410.531 528.615 409.062 528.615H408.047V527.053H409.062C410.266 527.053 411.109 526.381 411.094 525.396C411.109 524.443 410.391 523.803 409.281 523.803C408.219 523.803 407.297 524.396 407.266 525.35H405.312C405.359 523.443 407.078 522.146 409.297 522.146C411.594 522.146 413.078 523.553 413.062 525.287C413.078 526.553 412.234 527.475 411 527.725V527.818C412.594 528.037 413.5 529.053 413.484 530.475C413.5 532.381 411.719 533.771 409.266 533.771Z" fill="#111111"/>
<path d="M440.109 533.771C437.391 533.771 435.766 531.662 435.766 527.959C435.766 524.271 437.391 522.146 440.109 522.146C442.812 522.146 444.453 524.271 444.453 527.959C444.453 531.662 442.828 533.771 440.109 533.771ZM440.109 532.068C441.531 532.068 442.406 530.678 442.406 527.959C442.406 525.256 441.516 523.834 440.109 523.834C438.703 523.834 437.812 525.256 437.812 527.959C437.812 530.678 438.688 532.068 440.109 532.068ZM446.156 533.615V532.146L450.156 528.287C451.297 527.146 451.891 526.475 451.891 525.521C451.891 524.475 451.062 523.803 449.953 523.803C448.781 523.803 448.031 524.537 448.047 525.678H446.109C446.094 523.537 447.703 522.146 449.969 522.146C452.281 522.146 453.844 523.521 453.844 525.428C453.844 526.709 453.219 527.74 451 529.834L448.984 531.834V531.912H454.016V533.615H446.156Z" fill="#111111"/>
<path d="M480.109 533.771C477.391 533.771 475.766 531.662 475.766 527.959C475.766 524.271 477.391 522.146 480.109 522.146C482.812 522.146 484.453 524.271 484.453 527.959C484.453 531.662 482.828 533.771 480.109 533.771ZM480.109 532.068C481.531 532.068 482.406 530.678 482.406 527.959C482.406 525.256 481.516 523.834 480.109 523.834C478.703 523.834 477.812 525.256 477.812 527.959C477.812 530.678 478.688 532.068 480.109 532.068ZM490.75 522.303V533.615H488.703V524.287H488.641L486 525.975V524.115L488.797 522.303H490.75Z" fill="#111111"/>
<line x1="44" y1="220.091" x2="488" y2="220.091" stroke="#BBBBBB" stroke-width="0.5"/>
<line x1="44" y1="276.091" x2="488" y2="276.091" stroke="#BBBBBB" stroke-width="0.5"/>
<line x1="44" y1="332.091" x2="488" y2="332.091" stroke="#BBBBBB" stroke-width="0.5"/>
<path d="M470 284.341C470 279.923 473.582 276.341 478 276.341H480C484.418 276.341 488 279.923 488 284.341V332.341H470V284.341Z" fill="url(#paint3_linear_530_3309)"/>
<path d="M432 228.341C432 223.923 435.582 220.341 440 220.341H442C446.418 220.341 450 223.923 450 228.341V332.341H432V228.341Z" fill="url(#paint4_linear_530_3309)"/>
<path d="M394 228.341C394 223.923 397.582 220.341 402 220.341H404C408.418 220.341 412 223.923 412 228.341V332.341H394V228.341Z" fill="url(#paint5_linear_530_3309)"/>
<path d="M356 228.341C356 223.923 359.582 220.341 364 220.341H366C370.418 220.341 374 223.923 374 228.341V332.341H356V228.341Z" fill="url(#paint6_linear_530_3309)"/>
<path d="M318 228.341C318 223.923 321.582 220.341 326 220.341H328C332.418 220.341 336 223.923 336 228.341V332.341H318V228.341Z" fill="url(#paint7_linear_530_3309)"/>
<path d="M44.9375 355.341V353.872L48.9375 350.013C50.0781 348.872 50.6719 348.2 50.6719 347.247C50.6719 346.2 49.8438 345.528 48.7344 345.528C47.5625 345.528 46.8125 346.263 46.8281 347.403H44.8906C44.875 345.263 46.4844 343.872 48.75 343.872C51.0625 343.872 52.625 345.247 52.625 347.153C52.625 348.435 52 349.466 49.7812 351.56L47.7656 353.56V353.638H52.7969V355.341H44.9375ZM54.125 353.231V351.606L59.0156 344.028H61.5469V351.56H63.0312V353.231H61.5469V355.341H59.6094V353.231H54.125ZM56.2031 351.56H59.6406V346.341H59.5156L56.2031 351.481V351.56Z" fill="#111111"/>
<path d="M84.9375 355.341V353.872L88.9375 350.013C90.0781 348.872 90.6719 348.2 90.6719 347.247C90.6719 346.2 89.8438 345.528 88.7344 345.528C87.5625 345.528 86.8125 346.263 86.8281 347.403H84.8906C84.875 345.263 86.4844 343.872 88.75 343.872C91.0625 343.872 92.625 345.247 92.625 347.153C92.625 348.435 92 349.466 89.7812 351.56L87.7656 353.56V353.638H92.7969V355.341H84.9375ZM98.6875 355.497C96.2656 355.497 94.5469 354.185 94.5 352.278H96.5469C96.6094 353.185 97.5156 353.778 98.6875 353.778C99.9375 353.778 100.828 353.091 100.828 352.091C100.828 351.075 99.9531 350.341 98.4844 350.341H97.4688V348.778H98.4844C99.6875 348.778 100.531 348.106 100.516 347.122C100.531 346.169 99.8125 345.528 98.7031 345.528C97.6406 345.528 96.7188 346.122 96.6875 347.075H94.7344C94.7812 345.169 96.5 343.872 98.7188 343.872C101.016 343.872 102.5 345.278 102.484 347.013C102.5 348.278 101.656 349.2 100.422 349.45V349.544C102.016 349.763 102.922 350.778 102.906 352.2C102.922 354.106 101.141 355.497 98.6875 355.497Z" fill="#111111"/>
<path d="M124.938 355.341V353.872L128.938 350.013C130.078 348.872 130.672 348.2 130.672 347.247C130.672 346.2 129.844 345.528 128.734 345.528C127.562 345.528 126.812 346.263 126.828 347.403H124.891C124.875 345.263 126.484 343.872 128.75 343.872C131.062 343.872 132.625 345.247 132.625 347.153C132.625 348.435 132 349.466 129.781 351.56L127.766 353.56V353.638H132.797V355.341H124.938ZM134.578 355.341V353.872L138.578 350.013C139.719 348.872 140.312 348.2 140.312 347.247C140.312 346.2 139.484 345.528 138.375 345.528C137.203 345.528 136.453 346.263 136.469 347.403H134.531C134.516 345.263 136.125 343.872 138.391 343.872C140.703 343.872 142.266 345.247 142.266 347.153C142.266 348.435 141.641 349.466 139.422 351.56L137.406 353.56V353.638H142.438V355.341H134.578Z" fill="#111111"/>
<path d="M164.938 355.341V353.872L168.938 350.013C170.078 348.872 170.672 348.2 170.672 347.247C170.672 346.2 169.844 345.528 168.734 345.528C167.562 345.528 166.812 346.263 166.828 347.403H164.891C164.875 345.263 166.484 343.872 168.75 343.872C171.062 343.872 172.625 345.247 172.625 347.153C172.625 348.435 172 349.466 169.781 351.56L167.766 353.56V353.638H172.797V355.341H164.938ZM179.172 344.028V355.341H177.125V346.013H177.062L174.422 347.7V345.841L177.219 344.028H179.172Z" fill="#111111"/>
<path d="M201.938 355.341V353.872L205.938 350.013C207.078 348.872 207.672 348.2 207.672 347.247C207.672 346.2 206.844 345.528 205.734 345.528C204.562 345.528 203.812 346.263 203.828 347.403H201.891C201.875 345.263 203.484 343.872 205.75 343.872C208.062 343.872 209.625 345.247 209.625 347.153C209.625 348.435 209 349.466 206.781 351.56L204.766 353.56V353.638H209.797V355.341H201.938ZM215.75 355.497C213.031 355.497 211.406 353.388 211.406 349.685C211.406 345.997 213.031 343.872 215.75 343.872C218.453 343.872 220.094 345.997 220.094 349.685C220.094 353.388 218.469 355.497 215.75 355.497ZM215.75 353.794C217.172 353.794 218.047 352.403 218.047 349.685C218.047 346.981 217.156 345.56 215.75 345.56C214.344 345.56 213.453 346.981 213.453 349.685C213.453 352.403 214.328 353.794 215.75 353.794Z" fill="#111111"/>
<path d="M246.531 344.028V355.341H244.484V346.013H244.422L241.781 347.7V345.841L244.578 344.028H246.531ZM253.297 343.872C255.516 343.888 257.703 345.2 257.719 349.341C257.719 353.247 255.953 355.497 253.172 355.497C250.984 355.497 249.484 354.138 249.234 352.263H251.25C251.453 353.153 252.141 353.731 253.172 353.731C254.812 353.731 255.734 352.278 255.75 349.856H255.625C255.047 350.841 253.969 351.419 252.719 351.419C250.703 351.419 249.141 349.888 249.125 347.747C249.125 345.528 250.781 343.856 253.297 343.872ZM253.312 345.513C252.047 345.513 251.094 346.497 251.109 347.7C251.109 348.919 252.016 349.872 253.281 349.872C254.531 349.872 255.516 348.856 255.5 347.685C255.5 346.528 254.578 345.513 253.312 345.513Z" fill="#111111"/>
<path d="M284.531 344.028V355.341H282.484V346.013H282.422L279.781 347.7V345.841L282.578 344.028H284.531ZM291.391 355.497C288.875 355.497 287.094 354.153 287.094 352.31C287.094 350.872 288.156 349.7 289.516 349.481V349.419C288.328 349.169 287.516 348.138 287.516 346.903C287.516 345.153 289.156 343.872 291.391 343.872C293.609 343.872 295.25 345.153 295.25 346.903C295.25 348.138 294.422 349.169 293.25 349.419V349.481C294.609 349.7 295.688 350.872 295.688 352.31C295.688 354.153 293.891 355.497 291.391 355.497ZM291.391 353.888C292.719 353.888 293.594 353.169 293.594 352.122C293.594 351.06 292.656 350.278 291.391 350.278C290.109 350.278 289.172 351.06 289.188 352.122C289.172 353.169 290.047 353.888 291.391 353.888ZM291.391 348.763C292.484 348.763 293.266 348.075 293.266 347.091C293.266 346.138 292.5 345.466 291.391 345.466C290.266 345.466 289.5 346.122 289.5 347.091C289.5 348.075 290.281 348.763 291.391 348.763Z" fill="#111111"/>
<path d="M322.531 344.028V355.341H320.484V346.013H320.422L317.781 347.7V345.841L320.578 344.028H322.531ZM325.703 355.341L330.609 345.81V345.731H324.922V344.028H332.719V345.763L327.812 355.341H325.703Z" fill="#111111"/>
<path d="M359.531 344.028V355.341H357.484V346.013H357.422L354.781 347.7V345.841L357.578 344.028H359.531ZM366.516 355.497C364.312 355.481 362.094 354.169 362.109 349.997C362.109 346.122 363.875 343.872 366.641 343.872C368.828 343.872 370.328 345.247 370.578 347.075H368.562C368.359 346.216 367.672 345.638 366.641 345.638C365 345.638 364.078 347.091 364.078 349.466H364.188C364.766 348.497 365.859 347.919 367.094 347.919C369.125 347.919 370.688 349.45 370.688 351.591C370.688 353.841 369.016 355.513 366.516 355.497ZM366.516 353.856C367.781 353.856 368.719 352.872 368.719 351.638C368.719 350.435 367.797 349.466 366.547 349.466C365.281 349.466 364.312 350.466 364.297 351.653C364.312 352.841 365.234 353.856 366.516 353.856Z" fill="#111111"/>
<path d="M397.531 344.028V355.341H395.484V346.013H395.422L392.781 347.7V345.841L395.578 344.028H397.531ZM404.297 355.497C402.031 355.497 400.375 354.153 400.312 352.278H402.297C402.359 353.2 403.219 353.856 404.297 353.856C405.562 353.856 406.469 352.935 406.469 351.685C406.469 350.388 405.531 349.466 404.234 349.466C403.359 349.45 402.719 349.763 402.359 350.435H400.469L401.156 344.028H407.844V345.731H402.828L402.484 348.731H402.594C403.031 348.231 403.859 347.872 404.781 347.872C406.891 347.872 408.438 349.45 408.438 351.622C408.438 353.888 406.734 355.497 404.297 355.497Z" fill="#111111"/>
<path d="M435.531 344.028V355.341H433.484V346.013H433.422L430.781 347.7V345.841L433.578 344.028H435.531ZM438.078 353.231V351.606L442.969 344.028H445.5V351.56H446.984V353.231H445.5V355.341H443.562V353.231H438.078ZM440.156 351.56H443.594V346.341H443.469L440.156 351.481V351.56Z" fill="#111111"/>
<path d="M473.531 344.028V355.341H471.484V346.013H471.422L468.781 347.7V345.841L471.578 344.028H473.531ZM480.391 355.497C477.969 355.497 476.25 354.185 476.203 352.278H478.25C478.312 353.185 479.219 353.778 480.391 353.778C481.641 353.778 482.531 353.091 482.531 352.091C482.531 351.075 481.656 350.341 480.188 350.341H479.172V348.778H480.188C481.391 348.778 482.234 348.106 482.219 347.122C482.234 346.169 481.516 345.528 480.406 345.528C479.344 345.528 478.422 346.122 478.391 347.075H476.438C476.484 345.169 478.203 343.872 480.422 343.872C482.719 343.872 484.203 345.278 484.188 347.013C484.203 348.278 483.359 349.2 482.125 349.45V349.544C483.719 349.763 484.625 350.778 484.609 352.2C484.625 354.106 482.844 355.497 480.391 355.497Z" fill="#111111"/>
</g>
</g>
<g filter="url(#filter2_d_530_3309)">
<rect x="520" y="190" width="500" height="488" rx="16" fill="white"/>
<path d="M692.297 269L688.312 254.859H691.047L693.605 265.27H693.742L696.457 254.859H698.957L701.691 265.289H701.809L704.367 254.859H707.102L703.117 269H700.598L697.766 259.059H697.668L694.816 269H692.297ZM712.219 269.215C709.016 269.215 707.062 267.086 707.062 263.766C707.062 260.484 709.055 258.258 712.082 258.258C714.68 258.258 716.926 259.879 716.926 263.609V264.391H709.523C709.553 266.197 710.617 267.262 712.238 267.262C713.332 267.262 714.074 266.793 714.387 266.168H716.828C716.379 268.004 714.68 269.215 712.219 269.215ZM709.543 262.691H714.543C714.523 261.246 713.566 260.191 712.121 260.191C710.617 260.191 709.621 261.334 709.543 262.691ZM723.566 269.215C720.363 269.215 718.41 267.086 718.41 263.766C718.41 260.484 720.402 258.258 723.43 258.258C726.027 258.258 728.273 259.879 728.273 263.609V264.391H720.871C720.9 266.197 721.965 267.262 723.586 267.262C724.68 267.262 725.422 266.793 725.734 266.168H728.176C727.727 268.004 726.027 269.215 723.566 269.215ZM720.891 262.691H725.891C725.871 261.246 724.914 260.191 723.469 260.191C721.965 260.191 720.969 261.334 720.891 262.691ZM730.207 269V254.859H732.707V262.652H732.883L736.691 258.395H739.602L735.5 262.965L739.855 269H736.887L733.625 264.449L732.707 265.426V269H730.207ZM743.586 254.859V269H741.086V254.859H743.586ZM747.473 272.984C746.984 272.984 746.496 272.965 746.184 272.926V270.934C746.496 270.953 746.906 270.973 747.238 270.973C747.844 270.973 748.352 270.914 748.781 269.781L748.996 269.215L745.129 258.395H747.766L750.227 266.402H750.344L752.805 258.395H755.441L751.184 270.289C750.578 271.988 749.465 272.984 747.473 272.984ZM774.484 261.93C774.484 266.5 771.711 269.195 768 269.195C764.289 269.195 761.516 266.48 761.516 261.93C761.516 257.359 764.289 254.664 768 254.664C771.711 254.664 774.484 257.359 774.484 261.93ZM771.926 261.93C771.926 258.707 770.305 256.949 768 256.949C765.695 256.949 764.074 258.707 764.074 261.93C764.074 265.152 765.695 266.91 768 266.91C770.305 266.91 771.926 265.152 771.926 261.93ZM786.105 258.395L782.316 269H779.582L775.793 258.395H778.449L780.891 266.285H781.008L783.469 258.395H786.105ZM792.004 269.215C788.801 269.215 786.848 267.086 786.848 263.766C786.848 260.484 788.84 258.258 791.867 258.258C794.465 258.258 796.711 259.879 796.711 263.609V264.391H789.309C789.338 266.197 790.402 267.262 792.023 267.262C793.117 267.262 793.859 266.793 794.172 266.168H796.613C796.164 268.004 794.465 269.215 792.004 269.215ZM789.328 262.691H794.328C794.309 261.246 793.352 260.191 791.906 260.191C790.402 260.191 789.406 261.334 789.328 262.691ZM798.645 269V258.395H801.066V260.152H801.184C801.555 258.941 802.59 258.238 803.801 258.238C804.074 258.238 804.465 258.258 804.699 258.297V260.602C804.484 260.523 803.957 260.445 803.547 260.445C802.16 260.445 801.145 261.402 801.145 262.75V269H798.645ZM815.988 258.395L812.199 269H809.465L805.676 258.395H808.332L810.773 266.285H810.891L813.352 258.395H815.988ZM817.551 269V258.395H820.051V269H817.551ZM818.82 256.891C818.039 256.891 817.375 256.285 817.375 255.523C817.375 254.781 818.039 254.176 818.82 254.176C819.621 254.176 820.266 254.781 820.266 255.523C820.266 256.285 819.621 256.891 818.82 256.891ZM827.141 269.215C823.938 269.215 821.984 267.086 821.984 263.766C821.984 260.484 823.977 258.258 827.004 258.258C829.602 258.258 831.848 259.879 831.848 263.609V264.391H824.445C824.475 266.197 825.539 267.262 827.16 267.262C828.254 267.262 828.996 266.793 829.309 266.168H831.75C831.301 268.004 829.602 269.215 827.141 269.215ZM824.465 262.691H829.465C829.445 261.246 828.488 260.191 827.043 260.191C825.539 260.191 824.543 261.334 824.465 262.691ZM835.93 269L832.922 258.395H835.461L837.336 265.855H837.434L839.328 258.395H841.848L843.762 265.816H843.859L845.715 258.395H848.254L845.246 269H842.648L840.656 261.812H840.52L838.527 269H835.93Z" fill="#111111"/>
<path d="M727.174 287H725.273L728.76 277.102H730.947L734.447 287H732.547L731.727 284.553H727.994L727.174 287ZM728.473 283.117H731.248L729.895 279.125H729.812L728.473 283.117ZM740.285 283.883V279.576H742.021V287H740.34V285.688H740.258C739.916 286.508 739.137 287.096 738.029 287.096C736.566 287.096 735.555 286.084 735.541 284.307V279.576H737.291V284.033C737.291 284.977 737.852 285.578 738.699 285.578C739.465 285.578 740.285 285.018 740.285 283.883ZM746.93 289.939C744.961 289.939 743.717 289.064 743.594 287.67H745.33C745.453 288.312 746.068 288.627 746.957 288.627C747.996 288.627 748.68 288.176 748.68 287.082V285.66H748.598C748.324 286.207 747.736 286.891 746.451 286.891C744.742 286.891 743.389 285.646 743.389 283.227C743.389 280.779 744.742 279.48 746.465 279.48C747.777 279.48 748.324 280.26 748.598 280.793H748.68V279.576H750.402V287.123C750.402 289.023 748.939 289.939 746.93 289.939ZM746.93 285.523C748.051 285.523 748.693 284.676 748.693 283.254C748.693 281.846 748.064 280.902 746.93 280.902C745.768 280.902 745.166 281.9 745.166 283.254C745.166 284.621 745.781 285.523 746.93 285.523ZM758.893 287.137C756.91 287.137 755.461 285.961 755.406 284.32H757.143C757.197 285.127 757.949 285.701 758.893 285.701C760 285.701 760.793 284.895 760.793 283.801C760.793 282.666 759.973 281.859 758.838 281.859C758.072 281.846 757.512 282.119 757.197 282.707H755.543L756.145 277.102H761.996V278.592H757.607L757.307 281.217H757.402C757.785 280.779 758.51 280.465 759.316 280.465C761.162 280.465 762.516 281.846 762.516 283.746C762.516 285.729 761.025 287.137 758.893 287.137ZM771.854 281.34V282.775H767.396V281.34H771.854ZM778.225 287H776.324L779.811 277.102H781.998L785.498 287H783.598L782.777 284.553H779.045L778.225 287ZM779.523 283.117H782.299L780.945 279.125H780.863L779.523 283.117ZM791.336 283.883V279.576H793.072V287H791.391V285.688H791.309C790.967 286.508 790.188 287.096 789.08 287.096C787.617 287.096 786.605 286.084 786.592 284.307V279.576H788.342V284.033C788.342 284.977 788.902 285.578 789.75 285.578C790.516 285.578 791.336 285.018 791.336 283.883ZM797.98 289.939C796.012 289.939 794.768 289.064 794.645 287.67H796.381C796.504 288.312 797.119 288.627 798.008 288.627C799.047 288.627 799.73 288.176 799.73 287.082V285.66H799.648C799.375 286.207 798.787 286.891 797.502 286.891C795.793 286.891 794.439 285.646 794.439 283.227C794.439 280.779 795.793 279.48 797.516 279.48C798.828 279.48 799.375 280.26 799.648 280.793H799.73V279.576H801.453V287.123C801.453 289.023 799.99 289.939 797.98 289.939ZM797.98 285.523C799.102 285.523 799.744 284.676 799.744 283.254C799.744 281.846 799.115 280.902 797.98 280.902C796.818 280.902 796.217 281.9 796.217 283.254C796.217 284.621 796.832 285.523 797.98 285.523ZM809.943 276.965C811.885 276.979 813.799 278.127 813.812 281.75C813.812 285.168 812.268 287.137 809.834 287.137C807.92 287.137 806.607 285.947 806.389 284.307H808.152C808.33 285.086 808.932 285.592 809.834 285.592C811.27 285.592 812.076 284.32 812.09 282.201H811.98C811.475 283.062 810.531 283.568 809.438 283.568C807.674 283.568 806.307 282.229 806.293 280.355C806.293 278.414 807.742 276.951 809.943 276.965ZM809.957 278.4C808.85 278.4 808.016 279.262 808.029 280.314C808.029 281.381 808.822 282.215 809.93 282.215C811.023 282.215 811.885 281.326 811.871 280.301C811.871 279.289 811.064 278.4 809.957 278.4Z" fill="#BBBBBB"/>
<line opacity="0.5" x1="544" y1="314.75" x2="996" y2="314.75" stroke="#B1B1B1" stroke-width="0.5"/>
<line opacity="0.5" x1="544" y1="414.75" x2="996" y2="414.75" stroke="#B1B1B1" stroke-width="0.5"/>
<line opacity="0.5" x1="544" y1="514.75" x2="996" y2="514.75" stroke="#B1B1B1" stroke-width="0.5"/>
<path d="M611.047 526.688H613.547L616.906 534.906H617.047L620.406 526.688H622.906V538H620.953V530.219H620.844L617.703 537.969H616.25L613.109 530.188H613.016V538H611.047V526.688Z" fill="black"/>
<path d="M664.547 528.391V526.688H673.562V528.391H670.078V538H668.047V528.391H664.547Z" fill="black"/>
<path d="M718.438 538L715.25 526.688H717.438L719.484 535.016H719.594L721.766 526.688H723.766L725.953 535.031H726.047L728.094 526.688H730.281L727.094 538H725.078L722.812 530.047H722.734L720.453 538H718.438Z" fill="black"/>
<path d="M771.547 528.391V526.688H780.562V528.391H777.078V538H775.047V528.391H771.547Z" fill="black"/>
<path d="M823.047 538V526.688H830.297V528.391H825.078V531.484H829.797V533.188H825.078V538H823.047Z" fill="black"/>
<path d="M878.203 529.797C878.109 528.828 877.281 528.266 876.062 528.266C874.781 528.266 874 528.891 874 529.734C874 530.688 875 531.078 875.938 531.297L877 531.578C878.688 531.969 880.312 532.859 880.312 534.828C880.312 536.812 878.75 538.172 876.031 538.172C873.391 538.172 871.734 536.906 871.641 534.672H873.641C873.734 535.859 874.734 536.438 876.016 536.438C877.359 536.438 878.281 535.781 878.281 534.812C878.281 533.922 877.453 533.547 876.234 533.234L874.953 532.906C873.094 532.422 871.938 531.484 871.938 529.859C871.938 527.859 873.719 526.531 876.094 526.531C878.5 526.531 880.125 527.891 880.156 529.797H878.203Z" fill="black"/>
<path d="M928.203 529.797C928.109 528.828 927.281 528.266 926.062 528.266C924.781 528.266 924 528.891 924 529.734C924 530.688 925 531.078 925.938 531.297L927 531.578C928.688 531.969 930.312 532.859 930.312 534.828C930.312 536.812 928.75 538.172 926.031 538.172C923.391 538.172 921.734 536.906 921.641 534.672H923.641C923.734 535.859 924.734 536.438 926.016 536.438C927.359 536.438 928.281 535.781 928.281 534.812C928.281 533.922 927.453 533.547 926.234 533.234L924.953 532.906C923.094 532.422 921.938 531.484 921.938 529.859C921.938 527.859 923.719 526.531 926.094 526.531C928.5 526.531 930.125 527.891 930.156 529.797H928.203Z" fill="black"/>
<path d="M607 323C607 318.582 610.582 315 615 315H619C623.418 315 627 318.582 627 323V515H607V323Z" fill="url(#paint8_linear_530_3309)"/>
<path d="M659 323C659 318.582 662.582 315 667 315H671C675.418 315 679 318.582 679 323V515H659V323Z" fill="url(#paint9_linear_530_3309)"/>
<path d="M713 323C713 318.582 716.582 315 721 315H725C729.418 315 733 318.582 733 323V515H713V323Z" fill="url(#paint10_linear_530_3309)"/>
<path d="M767 323C767 318.582 770.582 315 775 315H779C783.418 315 787 318.582 787 323V515H767V323Z" fill="url(#paint11_linear_530_3309)"/>
<path d="M817 423C817 418.582 820.582 415 825 415H829C833.418 415 837 418.582 837 423V515H817V423Z" fill="url(#paint12_linear_530_3309)"/>
<circle cx="670" cy="583" r="16" fill="#ECEAF8"/>
<path d="M670 591.076C674.453 591.076 678.075 587.454 678.075 583.001C678.075 578.548 674.453 574.926 670 574.926C665.547 574.926 661.925 578.548 661.925 583.001C661.925 587.454 665.547 591.076 670 591.076ZM672.821 580.578C672.982 580.574 673.142 580.602 673.292 580.661C673.442 580.72 673.578 580.808 673.694 580.921C673.809 581.033 673.901 581.167 673.963 581.316C674.026 581.464 674.058 581.624 674.058 581.785C674.058 581.946 674.025 582.105 673.963 582.254C673.9 582.402 673.808 582.536 673.693 582.649C673.578 582.761 673.441 582.849 673.291 582.908C673.141 582.967 672.981 582.995 672.82 582.99C672.505 582.982 672.207 582.851 671.987 582.626C671.768 582.401 671.645 582.099 671.645 581.784C671.645 581.469 671.768 581.167 671.988 580.942C672.207 580.717 672.506 580.586 672.821 580.578ZM669.347 586.166C669.778 586.252 670.222 586.252 670.652 586.166C670.857 586.124 671.06 586.06 671.258 585.977C671.447 585.897 671.633 585.797 671.806 585.68C671.974 585.566 672.135 585.433 672.284 585.285C672.431 585.138 672.564 584.978 672.678 584.807L674.017 585.709C673.669 586.225 673.225 586.67 672.71 587.018C672.185 587.373 671.595 587.621 670.975 587.748C670.331 587.878 669.669 587.877 669.025 587.747C668.404 587.622 667.815 587.374 667.291 587.018C666.775 586.669 666.331 586.224 665.982 585.708L667.321 584.807C667.436 584.977 667.569 585.138 667.715 585.283C668.161 585.731 668.728 586.038 669.347 586.166ZM667.174 580.578C667.333 580.578 667.49 580.61 667.637 580.671C667.784 580.732 667.918 580.821 668.03 580.934C668.143 581.046 668.232 581.18 668.293 581.327C668.354 581.474 668.385 581.631 668.385 581.79C668.385 581.95 668.353 582.107 668.293 582.254C668.232 582.401 668.142 582.535 668.03 582.647C667.917 582.76 667.784 582.849 667.637 582.91C667.49 582.97 667.332 583.002 667.173 583.002C666.851 583.002 666.543 582.874 666.316 582.647C666.089 582.419 665.961 582.111 665.962 581.79C665.962 581.468 666.089 581.16 666.317 580.933C666.544 580.706 666.852 580.578 667.174 580.578Z" fill="#344BFD"/>
<path d="M702.232 570.102H704.242L706.676 574.477H706.771L709.205 570.102H711.215L707.619 576.295V580H705.842V576.295L702.232 570.102ZM714.154 580.15C711.994 580.15 710.6 578.619 710.6 576.322C710.6 574.012 711.994 572.48 714.154 572.48C716.328 572.48 717.709 574.012 717.709 576.322C717.709 578.619 716.328 580.15 714.154 580.15ZM714.168 578.756C715.357 578.756 715.945 577.676 715.945 576.309C715.945 574.955 715.357 573.861 714.168 573.861C712.951 573.861 712.363 574.955 712.363 576.309C712.363 577.676 712.951 578.756 714.168 578.756ZM723.807 576.883V572.576H725.543V580H723.861V578.688H723.779C723.438 579.508 722.658 580.096 721.551 580.096C720.088 580.096 719.076 579.084 719.062 577.307V572.576H720.812V577.033C720.812 577.977 721.373 578.578 722.221 578.578C722.986 578.578 723.807 578.018 723.807 576.883ZM730.191 577.908C730.191 576.24 731.572 575.748 732.953 575.666C733.466 575.632 734.532 575.57 734.854 575.557V574.969C734.854 574.23 734.375 573.807 733.514 573.807C732.734 573.807 732.256 574.162 732.119 574.695H730.438C730.561 573.438 731.695 572.48 733.555 572.48C734.963 572.48 736.59 573.055 736.59 575.037V580H734.922V578.975H734.867C734.539 579.604 733.842 580.15 732.68 580.15C731.258 580.15 730.191 579.371 730.191 577.908ZM731.873 577.895C731.873 578.537 732.393 578.865 733.131 578.865C734.184 578.865 734.867 578.168 734.867 577.334V576.719L733.227 576.828C732.393 576.896 731.873 577.238 731.873 577.895ZM738.23 580V572.576H739.926V573.807H740.008C740.268 572.959 740.992 572.467 741.84 572.467C742.031 572.467 742.305 572.48 742.469 572.508V574.121C742.318 574.066 741.949 574.012 741.662 574.012C740.691 574.012 739.98 574.682 739.98 575.625V580H738.23ZM746.557 580.15C744.314 580.15 742.947 578.66 742.947 576.336C742.947 574.039 744.342 572.48 746.461 572.48C748.279 572.48 749.852 573.615 749.852 576.227V576.773H744.67C744.69 578.038 745.436 578.783 746.57 578.783C747.336 578.783 747.855 578.455 748.074 578.018H749.783C749.469 579.303 748.279 580.15 746.557 580.15ZM744.684 575.584H748.184C748.17 574.572 747.5 573.834 746.488 573.834C745.436 573.834 744.738 574.634 744.684 575.584ZM757.289 580.137C755.539 580.137 754.227 578.742 754.227 576.295C754.227 573.82 755.58 572.48 757.303 572.48C758.615 572.48 759.162 573.26 759.422 573.793H759.49V570.102H761.227V580H759.518V578.824H759.422C759.148 579.371 758.574 580.137 757.289 580.137ZM757.768 578.701C758.889 578.701 759.531 577.73 759.531 576.281C759.531 574.846 758.902 573.902 757.768 573.902C756.605 573.902 756.004 574.9 756.004 576.281C756.004 577.689 756.619 578.701 757.768 578.701ZM766.23 580.15C764.07 580.15 762.676 578.619 762.676 576.322C762.676 574.012 764.07 572.48 766.23 572.48C768.404 572.48 769.785 574.012 769.785 576.322C769.785 578.619 768.404 580.15 766.23 580.15ZM766.244 578.756C767.434 578.756 768.021 577.676 768.021 576.309C768.021 574.955 767.434 573.861 766.244 573.861C765.027 573.861 764.439 574.955 764.439 576.309C764.439 577.676 765.027 578.756 766.244 578.756ZM771.139 580V572.576H772.889V580H771.139ZM772.027 571.523C771.48 571.523 771.016 571.1 771.016 570.566C771.016 570.047 771.48 569.623 772.027 569.623C772.588 569.623 773.039 570.047 773.039 570.566C773.039 571.1 772.588 571.523 772.027 571.523ZM776.307 575.652V580H774.557V572.576H776.225V573.834H776.32C776.662 573 777.414 572.48 778.521 572.48C780.066 572.48 781.078 573.492 781.064 575.27V580H779.328V575.543C779.328 574.545 778.795 573.957 777.879 573.957C776.949 573.957 776.307 574.572 776.307 575.652ZM785.973 582.939C784.004 582.939 782.76 582.064 782.637 580.67H784.373C784.496 581.312 785.111 581.627 786 581.627C787.039 581.627 787.723 581.176 787.723 580.082V578.66H787.641C787.367 579.207 786.779 579.891 785.494 579.891C783.785 579.891 782.432 578.646 782.432 576.227C782.432 573.779 783.785 572.48 785.508 572.48C786.82 572.48 787.367 573.26 787.641 573.793H787.723V572.576H789.445V580.123C789.445 582.023 787.982 582.939 785.973 582.939ZM785.973 578.523C787.094 578.523 787.736 577.676 787.736 576.254C787.736 574.846 787.107 573.902 785.973 573.902C784.811 573.902 784.209 574.9 784.209 576.254C784.209 577.621 784.824 578.523 785.973 578.523ZM797.676 582.939C795.707 582.939 794.463 582.064 794.34 580.67H796.076C796.199 581.312 796.814 581.627 797.703 581.627C798.742 581.627 799.426 581.176 799.426 580.082V578.66H799.344C799.07 579.207 798.482 579.891 797.197 579.891C795.488 579.891 794.135 578.646 794.135 576.227C794.135 573.779 795.488 572.48 797.211 572.48C798.523 572.48 799.07 573.26 799.344 573.793H799.426V572.576H801.148V580.123C801.148 582.023 799.686 582.939 797.676 582.939ZM797.676 578.523C798.797 578.523 799.439 577.676 799.439 576.254C799.439 574.846 798.811 573.902 797.676 573.902C796.514 573.902 795.912 574.9 795.912 576.254C795.912 577.621 796.527 578.523 797.676 578.523ZM806.057 580.15C803.896 580.15 802.502 578.619 802.502 576.322C802.502 574.012 803.896 572.48 806.057 572.48C808.23 572.48 809.611 574.012 809.611 576.322C809.611 578.619 808.23 580.15 806.057 580.15ZM806.07 578.756C807.26 578.756 807.848 577.676 807.848 576.309C807.848 574.955 807.26 573.861 806.07 573.861C804.854 573.861 804.266 574.955 804.266 576.309C804.266 577.676 804.854 578.756 806.07 578.756ZM814.205 580.15C812.045 580.15 810.65 578.619 810.65 576.322C810.65 574.012 812.045 572.48 814.205 572.48C816.379 572.48 817.76 574.012 817.76 576.322C817.76 578.619 816.379 580.15 814.205 580.15ZM814.219 578.756C815.408 578.756 815.996 577.676 815.996 576.309C815.996 574.955 815.408 573.861 814.219 573.861C813.002 573.861 812.414 574.955 812.414 576.309C812.414 577.676 813.002 578.756 814.219 578.756ZM821.875 580.137C820.125 580.137 818.812 578.742 818.812 576.295C818.812 573.82 820.166 572.48 821.889 572.48C823.201 572.48 823.748 573.26 824.008 573.793H824.076V570.102H825.812V580H824.104V578.824H824.008C823.734 579.371 823.16 580.137 821.875 580.137ZM822.354 578.701C823.475 578.701 824.117 577.73 824.117 576.281C824.117 574.846 823.488 573.902 822.354 573.902C821.191 573.902 820.59 574.9 820.59 576.281C820.59 577.689 821.205 578.701 822.354 578.701ZM829.695 570.102L829.545 577.088H828L827.836 570.102H829.695ZM828.779 580.109C828.191 580.109 827.713 579.631 827.713 579.043C827.713 578.469 828.191 577.99 828.779 577.99C829.34 577.99 829.832 578.469 829.832 579.043C829.832 579.631 829.34 580.109 828.779 580.109Z" fill="black"/>
<path d="M702.246 587.102H703.654L706.375 591.695H706.498L709.219 587.102H710.641L707.059 592.939V597H705.814V592.939L702.246 587.102ZM713.785 597.15C711.762 597.15 710.395 595.633 710.395 593.322C710.395 591.012 711.762 589.48 713.785 589.48C715.795 589.48 717.148 591.012 717.148 593.322C717.148 595.633 715.795 597.15 713.785 597.15ZM713.785 596.111C715.275 596.111 715.973 594.799 715.973 593.322C715.973 591.846 715.275 590.52 713.785 590.52C712.268 590.52 711.57 591.846 711.57 593.322C711.57 594.799 712.268 596.111 713.785 596.111ZM723.383 593.951V589.576H724.545V597H723.383V595.742H723.301C722.945 596.494 722.221 597.096 721.1 597.096C719.691 597.096 718.693 596.18 718.693 594.293V589.576H719.869V594.211C719.869 595.277 720.539 595.961 721.482 595.961C722.316 595.961 723.383 595.332 723.383 593.951ZM729.59 594.895C729.59 593.186 731.094 592.803 732.379 592.707C732.851 592.673 734.054 592.611 734.389 592.598V591.996C734.389 591.053 733.828 590.506 732.707 590.506C731.764 590.506 731.203 590.943 731.039 591.504H729.809C729.959 590.314 731.121 589.48 732.762 589.48C733.732 589.48 735.551 589.768 735.551 592.105V597H734.389V595.988H734.334C734.088 596.494 733.404 597.178 732.119 597.178C730.711 597.178 729.59 596.344 729.59 594.895ZM730.766 594.949C730.766 595.729 731.422 596.125 732.324 596.125C733.65 596.125 734.389 595.236 734.389 594.307V593.555L732.516 593.691C731.449 593.76 730.766 594.143 730.766 594.949ZM738.613 587.102V597H737.438V587.102H738.613ZM740.486 597V589.576H741.621V590.738H741.717C742.031 589.945 742.742 589.48 743.713 589.48C744.684 589.48 745.34 589.945 745.695 590.738H745.777C746.16 589.973 746.939 589.48 748.006 589.48C749.332 589.48 750.275 590.287 750.275 592.037V597H749.1V592.051C749.1 590.957 748.402 590.533 747.596 590.533C746.557 590.533 745.969 591.23 745.969 592.174V597H744.779V591.928C744.779 591.094 744.178 590.533 743.33 590.533C742.441 590.533 741.662 591.285 741.662 592.365V597H740.486ZM755.197 597.15C753.174 597.15 751.807 595.633 751.807 593.322C751.807 591.012 753.174 589.48 755.197 589.48C757.207 589.48 758.561 591.012 758.561 593.322C758.561 595.633 757.207 597.15 755.197 597.15ZM755.197 596.111C756.688 596.111 757.385 594.799 757.385 593.322C757.385 591.846 756.688 590.52 755.197 590.52C753.68 590.52 752.982 591.846 752.982 593.322C752.982 594.799 753.68 596.111 755.197 596.111ZM764.234 591.504C764.07 590.889 763.605 590.479 762.73 590.479C761.814 590.479 761.158 590.971 761.158 591.6C761.158 592.092 761.555 592.434 762.43 592.639L763.537 592.912C764.863 593.227 765.52 593.883 765.52 594.922C765.52 596.207 764.467 597.15 762.607 597.15C760.939 597.15 759.941 596.412 759.75 595.059H760.98C761.117 595.783 761.65 596.125 762.58 596.125C763.633 596.125 764.303 595.688 764.303 594.99C764.303 594.471 763.934 594.115 763.086 593.924L761.965 593.664C760.666 593.363 759.982 592.652 759.982 591.668C759.982 590.396 761.09 589.48 762.73 589.48C764.262 589.48 765.232 590.301 765.383 591.504H764.234ZM770.291 589.576V590.561H768.732V594.867C768.732 595.824 769.197 595.975 769.703 595.975C769.922 595.975 770.223 595.961 770.4 595.947V597.041C770.223 597.068 769.922 597.096 769.58 597.096C768.596 597.096 767.543 596.48 767.543 595.168V590.561H766.422V589.576H767.543V587.799H768.732V589.576H770.291ZM775.322 597V589.576H776.457V590.711H776.539C776.812 589.959 777.578 589.453 778.453 589.453C778.631 589.453 778.932 589.467 779.068 589.48V590.67C778.986 590.643 778.658 590.588 778.357 590.588C777.291 590.588 776.498 591.326 776.498 592.324V597H775.322ZM783.088 597.15C780.941 597.15 779.615 595.633 779.615 593.35C779.615 591.066 780.955 589.48 782.979 589.48C784.537 589.48 786.178 590.438 786.178 593.186V593.678H780.791C780.846 595.25 781.762 596.111 783.088 596.111C783.977 596.111 784.537 595.729 784.811 595.264H786.068C785.713 596.385 784.619 597.15 783.088 597.15ZM780.805 592.68H784.988C784.988 591.436 784.195 590.52 782.979 590.52C781.693 590.52 780.873 591.531 780.805 592.68ZM787.354 594.895C787.354 593.186 788.857 592.803 790.143 592.707C790.614 592.673 791.817 592.611 792.152 592.598V591.996C792.152 591.053 791.592 590.506 790.471 590.506C789.527 590.506 788.967 590.943 788.803 591.504H787.572C787.723 590.314 788.885 589.48 790.525 589.48C791.496 589.48 793.314 589.768 793.314 592.105V597H792.152V595.988H792.098C791.852 596.494 791.168 597.178 789.883 597.178C788.475 597.178 787.354 596.344 787.354 594.895ZM788.529 594.949C788.529 595.729 789.186 596.125 790.088 596.125C791.414 596.125 792.152 595.236 792.152 594.307V593.555L790.279 593.691C789.213 593.76 788.529 594.143 788.529 594.949ZM798.236 597.15C796.131 597.15 794.846 595.551 794.846 593.322C794.846 591.066 796.186 589.48 798.209 589.48C799.795 589.48 800.971 590.41 801.162 591.818H799.986C799.822 591.135 799.221 590.52 798.236 590.52C796.91 590.52 796.021 591.613 796.021 593.281C796.021 595.004 796.883 596.098 798.236 596.098C799.111 596.098 799.781 595.633 799.986 594.812H801.162C800.971 596.139 799.891 597.15 798.236 597.15ZM803.787 592.543V597H802.611V587.102H803.787V590.738H803.883C804.225 589.973 804.895 589.48 806.07 589.48C807.588 589.48 808.6 590.383 808.6 592.283V597H807.424V592.365C807.424 591.203 806.781 590.533 805.715 590.533C804.607 590.533 803.787 591.258 803.787 592.543ZM813.604 597.15C811.457 597.15 810.131 595.633 810.131 593.35C810.131 591.066 811.471 589.48 813.494 589.48C815.053 589.48 816.693 590.438 816.693 593.186V593.678H811.307C811.361 595.25 812.277 596.111 813.604 596.111C814.492 596.111 815.053 595.729 815.326 595.264H816.584C816.229 596.385 815.135 597.15 813.604 597.15ZM811.32 592.68H815.504C815.504 591.436 814.711 590.52 813.494 590.52C812.209 590.52 811.389 591.531 811.32 592.68ZM821.027 597.15C819.182 597.15 817.869 595.66 817.869 593.309C817.869 590.957 819.182 589.48 821.041 589.48C822.477 589.48 822.941 590.355 823.188 590.752H823.27V587.102H824.459V597H823.311V595.865H823.188C822.928 596.275 822.449 597.15 821.027 597.15ZM821.191 596.098C822.545 596.098 823.311 594.949 823.311 593.281C823.311 591.641 822.572 590.533 821.191 590.533C819.77 590.533 819.059 591.736 819.059 593.281C819.059 594.867 819.783 596.098 821.191 596.098ZM830.762 599.789C830.502 599.789 830.256 599.775 830.105 599.762V598.709C830.229 598.723 830.502 598.736 830.68 598.736C831.158 598.736 831.555 598.695 831.951 597.615L832.17 597.055L829.422 589.576H830.707L832.73 595.469H832.812L834.836 589.576H836.121L832.977 598.066C832.539 599.229 831.814 599.789 830.762 599.789ZM840.182 597.15C838.158 597.15 836.791 595.633 836.791 593.322C836.791 591.012 838.158 589.48 840.182 589.48C842.191 589.48 843.545 591.012 843.545 593.322C843.545 595.633 842.191 597.15 840.182 597.15ZM840.182 596.111C841.672 596.111 842.369 594.799 842.369 593.322C842.369 591.846 841.672 590.52 840.182 590.52C838.664 590.52 837.967 591.846 837.967 593.322C837.967 594.799 838.664 596.111 840.182 596.111ZM849.779 593.951V589.576H850.941V597H849.779V595.742H849.697C849.342 596.494 848.617 597.096 847.496 597.096C846.088 597.096 845.09 596.18 845.09 594.293V589.576H846.266V594.211C846.266 595.277 846.936 595.961 847.879 595.961C848.713 595.961 849.779 595.332 849.779 593.951ZM852.828 597V589.576H853.963V590.711H854.045C854.318 589.959 855.084 589.453 855.959 589.453C856.137 589.453 856.438 589.467 856.574 589.48V590.67C856.492 590.643 856.164 590.588 855.863 590.588C854.797 590.588 854.004 591.326 854.004 592.324V597H852.828ZM864.244 599.939C862.453 599.939 861.236 599.16 861.1 597.779H862.33C862.494 598.531 863.191 598.914 864.244 598.914C865.516 598.914 866.295 598.367 866.295 597.137V595.633H866.199C865.953 596.043 865.475 596.891 864.039 596.891C862.234 596.891 860.881 595.523 860.881 593.186C860.881 590.902 862.193 589.48 864.053 589.48C865.488 589.48 865.953 590.355 866.227 590.752H866.322V589.576H867.471V597.205C867.471 599.119 866.049 599.939 864.244 599.939ZM864.203 595.838C865.557 595.838 866.322 594.867 866.322 593.227C866.322 591.641 865.584 590.533 864.203 590.533C862.781 590.533 862.07 591.736 862.07 593.227C862.07 594.771 862.795 595.838 864.203 595.838ZM872.379 597.15C870.355 597.15 868.988 595.633 868.988 593.322C868.988 591.012 870.355 589.48 872.379 589.48C874.389 589.48 875.742 591.012 875.742 593.322C875.742 595.633 874.389 597.15 872.379 597.15ZM872.379 596.111C873.869 596.111 874.566 594.799 874.566 593.322C874.566 591.846 873.869 590.52 872.379 590.52C870.861 590.52 870.164 591.846 870.164 593.322C870.164 594.799 870.861 596.111 872.379 596.111ZM876.932 594.895C876.932 593.186 878.436 592.803 879.721 592.707C880.192 592.673 881.396 592.611 881.73 592.598V591.996C881.73 591.053 881.17 590.506 880.049 590.506C879.105 590.506 878.545 590.943 878.381 591.504H877.15C877.301 590.314 878.463 589.48 880.104 589.48C881.074 589.48 882.893 589.768 882.893 592.105V597H881.73V595.988H881.676C881.43 596.494 880.746 597.178 879.461 597.178C878.053 597.178 876.932 596.344 876.932 594.895ZM878.107 594.949C878.107 595.729 878.764 596.125 879.666 596.125C880.992 596.125 881.73 595.236 881.73 594.307V593.555L879.857 593.691C878.791 593.76 878.107 594.143 878.107 594.949ZM885.955 587.102V597H884.779V587.102H885.955Z" fill="#BBBBBB"/>
</g>
<g filter="url(#filter3_d_530_3309)">
<rect x="1024" y="255" width="500" height="488" rx="16" fill="white"/>
</g>
<path d="M1188.31 316.859H1191.43L1195.63 327.133H1195.81L1200.01 316.859H1203.13V331H1200.69V321.273H1200.55L1196.63 330.961H1194.81L1190.89 321.234H1190.77V331H1188.31V316.859ZM1210.26 331.215C1207.18 331.215 1205.18 329.027 1205.18 325.746C1205.18 322.445 1207.18 320.258 1210.26 320.258C1213.37 320.258 1215.34 322.445 1215.34 325.746C1215.34 329.027 1213.37 331.215 1210.26 331.215ZM1210.28 329.223C1211.98 329.223 1212.82 327.68 1212.82 325.727C1212.82 323.793 1211.98 322.23 1210.28 322.23C1208.54 322.23 1207.7 323.793 1207.7 325.727C1207.7 327.68 1208.54 329.223 1210.28 329.223ZM1219.77 324.789V331H1217.27V320.395H1219.66V322.191H1219.79C1220.28 321 1221.36 320.258 1222.94 320.258C1225.14 320.258 1226.59 321.703 1226.57 324.242V331H1224.09V324.633C1224.09 323.207 1223.33 322.367 1222.02 322.367C1220.69 322.367 1219.77 323.246 1219.77 324.789ZM1234.25 320.395V322.309H1232.16V327.816C1232.16 328.832 1232.66 329.047 1233.29 329.047C1233.58 329.047 1234.07 329.027 1234.38 329.008V331.039C1234.09 331.098 1233.6 331.137 1232.98 331.137C1231.1 331.137 1229.66 330.219 1229.68 328.227V322.309H1228.15V320.395H1229.68V317.855H1232.16V320.395H1234.25ZM1238.89 324.789V331H1236.39V316.859H1238.84V322.191H1238.97C1239.46 321 1240.48 320.258 1242.12 320.258C1244.32 320.258 1245.77 321.684 1245.77 324.242V331H1243.29V324.633C1243.29 323.188 1242.51 322.367 1241.2 322.367C1239.85 322.367 1238.89 323.246 1238.89 324.789ZM1250.63 316.859V331H1248.13V316.859H1250.63ZM1254.52 334.984C1254.03 334.984 1253.54 334.965 1253.23 334.926V332.934C1253.54 332.953 1253.95 332.973 1254.29 332.973C1254.89 332.973 1255.4 332.914 1255.83 331.781L1256.04 331.215L1252.18 320.395H1254.81L1257.27 328.402H1257.39L1259.85 320.395H1262.49L1258.23 332.289C1257.62 333.988 1256.51 334.984 1254.52 334.984ZM1281.53 323.93C1281.53 328.5 1278.76 331.195 1275.05 331.195C1271.34 331.195 1268.56 328.48 1268.56 323.93C1268.56 319.359 1271.34 316.664 1275.05 316.664C1278.76 316.664 1281.53 319.359 1281.53 323.93ZM1278.97 323.93C1278.97 320.707 1277.35 318.949 1275.05 318.949C1272.74 318.949 1271.12 320.707 1271.12 323.93C1271.12 327.152 1272.74 328.91 1275.05 328.91C1277.35 328.91 1278.97 327.152 1278.97 323.93ZM1293.15 320.395L1289.36 331H1286.63L1282.84 320.395H1285.5L1287.94 328.285H1288.05L1290.52 320.395H1293.15ZM1299.05 331.215C1295.85 331.215 1293.89 329.086 1293.89 325.766C1293.89 322.484 1295.89 320.258 1298.91 320.258C1301.51 320.258 1303.76 321.879 1303.76 325.609V326.391H1296.36C1296.38 328.197 1297.45 329.262 1299.07 329.262C1300.16 329.262 1300.91 328.793 1301.22 328.168H1303.66C1303.21 330.004 1301.51 331.215 1299.05 331.215ZM1296.38 324.691H1301.38C1301.36 323.246 1300.4 322.191 1298.95 322.191C1297.45 322.191 1296.45 323.334 1296.38 324.691ZM1305.69 331V320.395H1308.11V322.152H1308.23C1308.6 320.941 1309.64 320.238 1310.85 320.238C1311.12 320.238 1311.51 320.258 1311.75 320.297V322.602C1311.53 322.523 1311 322.445 1310.59 322.445C1309.21 322.445 1308.19 323.402 1308.19 324.75V331H1305.69ZM1323.04 320.395L1319.25 331H1316.51L1312.72 320.395H1315.38L1317.82 328.285H1317.94L1320.4 320.395H1323.04ZM1324.6 331V320.395H1327.1V331H1324.6ZM1325.87 318.891C1325.09 318.891 1324.42 318.285 1324.42 317.523C1324.42 316.781 1325.09 316.176 1325.87 316.176C1326.67 316.176 1327.31 316.781 1327.31 317.523C1327.31 318.285 1326.67 318.891 1325.87 318.891ZM1334.19 331.215C1330.98 331.215 1329.03 329.086 1329.03 325.766C1329.03 322.484 1331.02 320.258 1334.05 320.258C1336.65 320.258 1338.89 321.879 1338.89 325.609V326.391H1331.49C1331.52 328.197 1332.59 329.262 1334.21 329.262C1335.3 329.262 1336.04 328.793 1336.36 328.168H1338.8C1338.35 330.004 1336.65 331.215 1334.19 331.215ZM1331.51 324.691H1336.51C1336.49 323.246 1335.54 322.191 1334.09 322.191C1332.59 322.191 1331.59 323.334 1331.51 324.691ZM1342.98 331L1339.97 320.395H1342.51L1344.38 327.855H1344.48L1346.38 320.395H1348.89L1350.81 327.816H1350.91L1352.76 320.395H1355.3L1352.29 331H1349.7L1347.7 323.812H1347.57L1345.57 331H1342.98Z" fill="#111111"/>
<path d="M1173.17 349H1171.27L1174.76 339.102H1176.95L1180.45 349H1178.55L1177.73 346.553H1173.99L1173.17 349ZM1174.47 345.117H1177.25L1175.89 341.125H1175.81L1174.47 345.117ZM1187.24 341.576L1184.59 349H1182.68L1180.02 341.576H1181.88L1183.59 347.1H1183.67L1185.4 341.576H1187.24ZM1191.37 349.15C1189.13 349.15 1187.76 347.66 1187.76 345.336C1187.76 343.039 1189.16 341.48 1191.28 341.48C1193.09 341.48 1194.67 342.615 1194.67 345.227V345.773H1189.48C1189.5 347.038 1190.25 347.783 1191.38 347.783C1192.15 347.783 1192.67 347.455 1192.89 347.018H1194.6C1194.28 348.303 1193.09 349.15 1191.37 349.15ZM1189.5 344.584H1193C1192.98 343.572 1192.31 342.834 1191.3 342.834C1190.25 342.834 1189.55 343.634 1189.5 344.584ZM1196.02 349V341.576H1197.71V342.807H1197.8C1198.06 341.959 1198.78 341.467 1199.63 341.467C1199.82 341.467 1200.09 341.48 1200.26 341.508V343.121C1200.11 343.066 1199.74 343.012 1199.45 343.012C1198.48 343.012 1197.77 343.682 1197.77 344.625V349H1196.02ZM1200.82 346.908C1200.82 345.24 1202.2 344.748 1203.58 344.666C1204.09 344.632 1205.16 344.57 1205.48 344.557V343.969C1205.48 343.23 1205 342.807 1204.14 342.807C1203.36 342.807 1202.88 343.162 1202.75 343.695H1201.06C1201.19 342.438 1202.32 341.48 1204.18 341.48C1205.59 341.48 1207.22 342.055 1207.22 344.037V349H1205.55V347.975H1205.49C1205.17 348.604 1204.47 349.15 1203.31 349.15C1201.88 349.15 1200.82 348.371 1200.82 346.908ZM1202.5 346.895C1202.5 347.537 1203.02 347.865 1203.76 347.865C1204.81 347.865 1205.49 347.168 1205.49 346.334V345.719L1203.85 345.828C1203.02 345.896 1202.5 346.238 1202.5 346.895ZM1212.1 351.939C1210.13 351.939 1208.88 351.064 1208.76 349.67H1210.5C1210.62 350.312 1211.24 350.627 1212.12 350.627C1213.16 350.627 1213.85 350.176 1213.85 349.082V347.66H1213.77C1213.49 348.207 1212.9 348.891 1211.62 348.891C1209.91 348.891 1208.56 347.646 1208.56 345.227C1208.56 342.779 1209.91 341.48 1211.63 341.48C1212.95 341.48 1213.49 342.26 1213.77 342.793H1213.85V341.576H1215.57V349.123C1215.57 351.023 1214.11 351.939 1212.1 351.939ZM1212.1 347.523C1213.22 347.523 1213.86 346.676 1213.86 345.254C1213.86 343.846 1213.23 342.902 1212.1 342.902C1210.94 342.902 1210.33 343.9 1210.33 345.254C1210.33 346.621 1210.95 347.523 1212.1 347.523ZM1220.53 349.15C1218.29 349.15 1216.92 347.66 1216.92 345.336C1216.92 343.039 1218.32 341.48 1220.44 341.48C1222.26 341.48 1223.83 342.615 1223.83 345.227V345.773H1218.65C1218.67 347.038 1219.41 347.783 1220.55 347.783C1221.31 347.783 1221.83 347.455 1222.05 347.018H1223.76C1223.45 348.303 1222.26 349.15 1220.53 349.15ZM1218.66 344.584H1222.16C1222.15 343.572 1221.48 342.834 1220.46 342.834C1219.41 342.834 1218.71 343.634 1218.66 344.584ZM1232.21 341.576V342.916H1230.75V346.771C1230.75 347.482 1231.1 347.633 1231.54 347.633C1231.74 347.633 1232.09 347.619 1232.3 347.605V349.027C1232.1 349.068 1231.76 349.096 1231.32 349.096C1230.01 349.096 1229 348.453 1229.01 347.059V342.916H1227.94V341.576H1229.01V339.799H1230.75V341.576H1232.21ZM1233.55 349V341.576H1235.3V349H1233.55ZM1234.44 340.523C1233.89 340.523 1233.43 340.1 1233.43 339.566C1233.43 339.047 1233.89 338.623 1234.44 338.623C1235 338.623 1235.45 339.047 1235.45 339.566C1235.45 340.1 1235 340.523 1234.44 340.523ZM1236.97 349V341.576H1238.63V342.834H1238.73C1239.03 341.986 1239.78 341.48 1240.77 341.48C1241.78 341.48 1242.49 341.986 1242.78 342.834H1242.86C1243.19 342.014 1244.01 341.48 1245.09 341.48C1246.44 341.48 1247.4 342.355 1247.4 344.01V349H1245.66V344.283C1245.66 343.354 1245.1 342.943 1244.39 342.943C1243.53 342.943 1243.04 343.531 1243.04 344.365V349H1241.34V344.215C1241.34 343.449 1240.82 342.943 1240.08 342.943C1239.33 342.943 1238.72 343.559 1238.72 344.488V349H1236.97ZM1252.36 349.15C1250.12 349.15 1248.75 347.66 1248.75 345.336C1248.75 343.039 1250.15 341.48 1252.27 341.48C1254.08 341.48 1255.66 342.615 1255.66 345.227V345.773H1250.47C1250.5 347.038 1251.24 347.783 1252.38 347.783C1253.14 347.783 1253.66 347.455 1253.88 347.018H1255.59C1255.27 348.303 1254.08 349.15 1252.36 349.15ZM1250.49 344.584H1253.99C1253.97 343.572 1253.3 342.834 1252.29 342.834C1251.24 342.834 1250.54 343.634 1250.49 344.584ZM1261.38 351.789C1261.04 351.789 1260.7 351.775 1260.48 351.748V350.354C1260.7 350.367 1260.99 350.381 1261.22 350.381C1261.64 350.381 1262 350.34 1262.3 349.547L1262.45 349.15L1259.74 341.576H1261.59L1263.31 347.182H1263.39L1265.12 341.576H1266.96L1263.98 349.902C1263.56 351.092 1262.78 351.789 1261.38 351.789ZM1271.04 349.15C1268.88 349.15 1267.48 347.619 1267.48 345.322C1267.48 343.012 1268.88 341.48 1271.04 341.48C1273.21 341.48 1274.59 343.012 1274.59 345.322C1274.59 347.619 1273.21 349.15 1271.04 349.15ZM1271.05 347.756C1272.24 347.756 1272.83 346.676 1272.83 345.309C1272.83 343.955 1272.24 342.861 1271.05 342.861C1269.83 342.861 1269.25 343.955 1269.25 345.309C1269.25 346.676 1269.83 347.756 1271.05 347.756ZM1280.69 345.883V341.576H1282.43V349H1280.74V347.688H1280.66C1280.32 348.508 1279.54 349.096 1278.43 349.096C1276.97 349.096 1275.96 348.084 1275.95 346.307V341.576H1277.7V346.033C1277.7 346.977 1278.26 347.578 1279.1 347.578C1279.87 347.578 1280.69 347.018 1280.69 345.883ZM1291.63 343.695C1291.52 343.135 1291.05 342.779 1290.31 342.779C1289.56 342.779 1289.02 343.148 1289.03 343.654C1289.02 344.037 1289.33 344.324 1290.08 344.502L1291.34 344.762C1292.75 345.076 1293.42 345.719 1293.43 346.785C1293.42 348.18 1292.2 349.15 1290.26 349.15C1288.37 349.15 1287.25 348.303 1287.07 346.881H1288.85C1288.96 347.51 1289.45 347.824 1290.26 347.824C1291.09 347.824 1291.65 347.482 1291.65 346.936C1291.65 346.512 1291.31 346.238 1290.57 346.074L1289.38 345.814C1288 345.541 1287.29 344.816 1287.29 343.75C1287.29 342.383 1288.47 341.48 1290.29 341.48C1292.06 341.48 1293.16 342.342 1293.28 343.695H1291.63ZM1294.76 351.789V341.576H1296.47V342.793H1296.58C1296.85 342.26 1297.4 341.48 1298.71 341.48C1300.42 341.48 1301.77 342.82 1301.77 345.295C1301.77 347.742 1300.46 349.137 1298.71 349.137C1297.42 349.137 1296.85 348.371 1296.58 347.824H1296.51V351.789H1294.76ZM1296.47 345.281C1296.47 346.73 1297.1 347.701 1298.23 347.701C1299.38 347.701 1299.99 346.689 1299.99 345.281C1299.99 343.9 1299.39 342.902 1298.23 342.902C1297.1 342.902 1296.47 343.846 1296.47 345.281ZM1306.43 349.15C1304.19 349.15 1302.82 347.66 1302.82 345.336C1302.82 343.039 1304.22 341.48 1306.34 341.48C1308.16 341.48 1309.73 342.615 1309.73 345.227V345.773H1304.55C1304.57 347.038 1305.31 347.783 1306.45 347.783C1307.21 347.783 1307.73 347.455 1307.95 347.018H1309.66C1309.35 348.303 1308.16 349.15 1306.43 349.15ZM1304.56 344.584H1308.06C1308.05 343.572 1307.38 342.834 1306.37 342.834C1305.31 342.834 1304.62 343.634 1304.56 344.584ZM1312.83 344.652V349H1311.08V341.576H1312.75V342.834H1312.85C1313.19 342 1313.94 341.48 1315.05 341.48C1316.59 341.48 1317.6 342.492 1317.59 344.27V349H1315.85V344.543C1315.85 343.545 1315.32 342.957 1314.4 342.957C1313.47 342.957 1312.83 343.572 1312.83 344.652ZM1322.96 341.576V342.916H1321.5V346.771C1321.5 347.482 1321.86 347.633 1322.29 347.633C1322.5 347.633 1322.84 347.619 1323.06 347.605V349.027C1322.85 349.068 1322.51 349.096 1322.07 349.096C1320.76 349.096 1319.75 348.453 1319.76 347.059V342.916H1318.7V341.576H1319.76V339.799H1321.5V341.576H1322.96ZM1327.62 349V341.576H1329.29V342.834H1329.39C1329.69 341.986 1330.44 341.48 1331.43 341.48C1332.44 341.48 1333.15 341.986 1333.44 342.834H1333.52C1333.85 342.014 1334.67 341.48 1335.75 341.48C1337.1 341.48 1338.06 342.355 1338.06 344.01V349H1336.32V344.283C1336.32 343.354 1335.76 342.943 1335.05 342.943C1334.19 342.943 1333.7 343.531 1333.7 344.365V349H1332V344.215C1332 343.449 1331.48 342.943 1330.74 342.943C1329.99 342.943 1329.38 343.559 1329.38 344.488V349H1327.62ZM1342.96 349.15C1340.8 349.15 1339.41 347.619 1339.41 345.322C1339.41 343.012 1340.8 341.48 1342.96 341.48C1345.14 341.48 1346.52 343.012 1346.52 345.322C1346.52 347.619 1345.14 349.15 1342.96 349.15ZM1342.98 347.756C1344.17 347.756 1344.76 346.676 1344.76 345.309C1344.76 343.955 1344.17 342.861 1342.98 342.861C1341.76 342.861 1341.17 343.955 1341.17 345.309C1341.17 346.676 1341.76 347.756 1342.98 347.756ZM1349.62 344.652V349H1347.87V341.576H1349.54V342.834H1349.64C1349.98 342 1350.73 341.48 1351.84 341.48C1353.38 341.48 1354.39 342.492 1354.38 344.27V349H1352.64V344.543C1352.64 343.545 1352.11 342.957 1351.2 342.957C1350.27 342.957 1349.62 343.572 1349.62 344.652ZM1359.75 341.576V342.916H1358.29V346.771C1358.29 347.482 1358.65 347.633 1359.08 347.633C1359.29 347.633 1359.63 347.619 1359.85 347.605V349.027C1359.64 349.068 1359.3 349.096 1358.87 349.096C1357.55 349.096 1356.54 348.453 1356.55 347.059V342.916H1355.49V341.576H1356.55V339.799H1358.29V341.576H1359.75ZM1363.01 344.652V349H1361.26V339.102H1362.97V342.834H1363.06C1363.4 342 1364.12 341.48 1365.26 341.48C1366.81 341.48 1367.82 342.479 1367.82 344.27V349H1366.08V344.543C1366.08 343.531 1365.54 342.957 1364.62 342.957C1363.68 342.957 1363.01 343.572 1363.01 344.652Z" fill="#BBBBBB"/>
<line opacity="0.5" x1="1048" y1="476.75" x2="1500" y2="476.75" stroke="#B1B1B1" stroke-width="0.5"/>
<path d="M1053.53 588.688V600H1051.48V590.672H1051.42L1048.78 592.359V590.5L1051.58 588.688H1053.53Z" fill="black"/>
<path d="M1084.94 600V598.531L1088.94 594.672C1090.08 593.531 1090.67 592.859 1090.67 591.906C1090.67 590.859 1089.84 590.188 1088.73 590.188C1087.56 590.188 1086.81 590.922 1086.83 592.062H1084.89C1084.88 589.922 1086.48 588.531 1088.75 588.531C1091.06 588.531 1092.62 589.906 1092.62 591.812C1092.62 593.094 1092 594.125 1089.78 596.219L1087.77 598.219V598.297H1092.8V600H1084.94Z" fill="black"/>
<path d="M1127.05 600.156C1124.62 600.156 1122.91 598.844 1122.86 596.938H1124.91C1124.97 597.844 1125.88 598.438 1127.05 598.438C1128.3 598.438 1129.19 597.75 1129.19 596.75C1129.19 595.734 1128.31 595 1126.84 595H1125.83V593.438H1126.84C1128.05 593.438 1128.89 592.766 1128.88 591.781C1128.89 590.828 1128.17 590.188 1127.06 590.188C1126 590.188 1125.08 590.781 1125.05 591.734H1123.09C1123.14 589.828 1124.86 588.531 1127.08 588.531C1129.38 588.531 1130.86 589.938 1130.84 591.672C1130.86 592.938 1130.02 593.859 1128.78 594.109V594.203C1130.38 594.422 1131.28 595.438 1131.27 596.859C1131.28 598.766 1129.5 600.156 1127.05 600.156Z" fill="black"/>
<path d="M1161.73 597.891V596.266L1166.62 588.688H1169.16V596.219H1170.64V597.891H1169.16V600H1167.22V597.891H1161.73ZM1163.81 596.219H1167.25V591H1167.12L1163.81 596.141V596.219Z" fill="black"/>
<path d="M1204.95 600.156C1202.69 600.156 1201.03 598.812 1200.97 596.938H1202.95C1203.02 597.859 1203.88 598.516 1204.95 598.516C1206.22 598.516 1207.12 597.594 1207.12 596.344C1207.12 595.047 1206.19 594.125 1204.89 594.125C1204.02 594.109 1203.38 594.422 1203.02 595.094H1201.12L1201.81 588.688H1208.5V590.391H1203.48L1203.14 593.391H1203.25C1203.69 592.891 1204.52 592.531 1205.44 592.531C1207.55 592.531 1209.09 594.109 1209.09 596.281C1209.09 598.547 1207.39 600.156 1204.95 600.156Z" fill="black"/>
<path d="M1243.17 600.156C1240.97 600.141 1238.75 598.828 1238.77 594.656C1238.77 590.781 1240.53 588.531 1243.3 588.531C1245.48 588.531 1246.98 589.906 1247.23 591.734H1245.22C1245.02 590.875 1244.33 590.297 1243.3 590.297C1241.66 590.297 1240.73 591.75 1240.73 594.125H1240.84C1241.42 593.156 1242.52 592.578 1243.75 592.578C1245.78 592.578 1247.34 594.109 1247.34 596.25C1247.34 598.5 1245.67 600.172 1243.17 600.156ZM1243.17 598.516C1244.44 598.516 1245.38 597.531 1245.38 596.297C1245.38 595.094 1244.45 594.125 1243.2 594.125C1241.94 594.125 1240.97 595.125 1240.95 596.312C1240.97 597.5 1241.89 598.516 1243.17 598.516Z" fill="black"/>
<path d="M1278.36 600L1283.27 590.469V590.391H1277.58V588.688H1285.38V590.422L1280.47 600H1278.36Z" fill="black"/>
<path d="M1320.05 600.156C1317.53 600.156 1315.75 598.812 1315.75 596.969C1315.75 595.531 1316.81 594.359 1318.17 594.141V594.078C1316.98 593.828 1316.17 592.797 1316.17 591.562C1316.17 589.812 1317.81 588.531 1320.05 588.531C1322.27 588.531 1323.91 589.812 1323.91 591.562C1323.91 592.797 1323.08 593.828 1321.91 594.078V594.141C1323.27 594.359 1324.34 595.531 1324.34 596.969C1324.34 598.812 1322.55 600.156 1320.05 600.156ZM1320.05 598.547C1321.38 598.547 1322.25 597.828 1322.25 596.781C1322.25 595.719 1321.31 594.938 1320.05 594.938C1318.77 594.938 1317.83 595.719 1317.84 596.781C1317.83 597.828 1318.7 598.547 1320.05 598.547ZM1320.05 593.422C1321.14 593.422 1321.92 592.734 1321.92 591.75C1321.92 590.797 1321.16 590.125 1320.05 590.125C1318.92 590.125 1318.16 590.781 1318.16 591.75C1318.16 592.734 1318.94 593.422 1320.05 593.422Z" fill="black"/>
<path d="M1358.95 588.531C1361.17 588.547 1363.36 589.859 1363.38 594C1363.38 597.906 1361.61 600.156 1358.83 600.156C1356.64 600.156 1355.14 598.797 1354.89 596.922H1356.91C1357.11 597.812 1357.8 598.391 1358.83 598.391C1360.47 598.391 1361.39 596.938 1361.41 594.516H1361.28C1360.7 595.5 1359.62 596.078 1358.38 596.078C1356.36 596.078 1354.8 594.547 1354.78 592.406C1354.78 590.188 1356.44 588.516 1358.95 588.531ZM1358.97 590.172C1357.7 590.172 1356.75 591.156 1356.77 592.359C1356.77 593.578 1357.67 594.531 1358.94 594.531C1360.19 594.531 1361.17 593.516 1361.16 592.344C1361.16 591.188 1360.23 590.172 1358.97 590.172Z" fill="black"/>
<path d="M1398.53 588.688V600H1396.48V590.672H1396.42L1393.78 592.359V590.5L1396.58 588.688H1398.53ZM1405.45 600.156C1402.73 600.156 1401.11 598.047 1401.11 594.344C1401.11 590.656 1402.73 588.531 1405.45 588.531C1408.16 588.531 1409.8 590.656 1409.8 594.344C1409.8 598.047 1408.17 600.156 1405.45 600.156ZM1405.45 598.453C1406.88 598.453 1407.75 597.062 1407.75 594.344C1407.75 591.641 1406.86 590.219 1405.45 590.219C1404.05 590.219 1403.16 591.641 1403.16 594.344C1403.16 597.062 1404.03 598.453 1405.45 598.453Z" fill="black"/>
<path d="M1444.53 588.688V600H1442.48V590.672H1442.42L1439.78 592.359V590.5L1442.58 588.688H1444.53ZM1451.88 588.688V600H1449.83V590.672H1449.77L1447.12 592.359V590.5L1449.92 588.688H1451.88Z" fill="black"/>
<path d="M1487.53 588.688V600H1485.48V590.672H1485.42L1482.78 592.359V590.5L1485.58 588.688H1487.53ZM1490.28 600V598.531L1494.28 594.672C1495.42 593.531 1496.02 592.859 1496.02 591.906C1496.02 590.859 1495.19 590.188 1494.08 590.188C1492.91 590.188 1492.16 590.922 1492.17 592.062H1490.23C1490.22 589.922 1491.83 588.531 1494.09 588.531C1496.41 588.531 1497.97 589.906 1497.97 591.812C1497.97 593.094 1497.34 594.125 1495.12 596.219L1493.11 598.219V598.297H1498.14V600H1490.28Z" fill="black"/>
<path d="M1131 422C1131 417.582 1134.58 414 1139 414H1143C1147.42 414 1151 417.582 1151 422V577H1131V422Z" fill="url(#paint13_linear_530_3309)"/>
<path d="M1169 442C1169 437.582 1172.58 434 1177 434H1181C1185.42 434 1189 437.582 1189 442V577H1169V442Z" fill="url(#paint14_linear_530_3309)"/>
<path d="M1207 412C1207 407.582 1210.58 404 1215 404H1219C1223.42 404 1227 407.582 1227 412V577H1207V412Z" fill="url(#paint15_linear_530_3309)"/>
<path d="M1245 385C1245 380.582 1248.58 377 1253 377H1257C1261.42 377 1265 380.582 1265 385V577H1245V385Z" fill="url(#paint16_linear_530_3309)"/>
<path d="M1283 403C1283 398.582 1286.58 395 1291 395H1295C1299.42 395 1303 398.582 1303 403V577H1283V403Z" fill="url(#paint17_linear_530_3309)"/>
<path d="M1321 389C1321 384.582 1324.58 381 1329 381H1333C1337.42 381 1341 384.582 1341 389V577H1321V389Z" fill="url(#paint18_linear_530_3309)"/>
<path d="M1359 419C1359 414.582 1362.58 411 1367 411H1371C1375.42 411 1379 414.582 1379 419V577H1359V419Z" fill="url(#paint19_linear_530_3309)"/>
<path d="M1397 494C1397 489.582 1400.58 486 1405 486H1409C1413.42 486 1417 489.582 1417 494V577H1397V494Z" fill="url(#paint20_linear_530_3309)"/>
<circle cx="1173" cy="646" r="16" fill="#ECEAF8"/>
<path d="M1173 654.076C1177.45 654.076 1181.08 650.454 1181.08 646.001C1181.08 641.548 1177.45 637.926 1173 637.926C1168.55 637.926 1164.92 641.548 1164.92 646.001C1164.92 650.454 1168.55 654.076 1173 654.076ZM1175.82 643.578C1175.98 643.574 1176.14 643.602 1176.29 643.661C1176.44 643.72 1176.58 643.808 1176.69 643.921C1176.81 644.033 1176.9 644.167 1176.96 644.316C1177.03 644.464 1177.06 644.624 1177.06 644.785C1177.06 644.946 1177.03 645.105 1176.96 645.254C1176.9 645.402 1176.81 645.536 1176.69 645.649C1176.58 645.761 1176.44 645.849 1176.29 645.908C1176.14 645.967 1175.98 645.995 1175.82 645.99C1175.51 645.982 1175.21 645.851 1174.99 645.626C1174.77 645.401 1174.64 645.099 1174.64 644.784C1174.65 644.469 1174.77 644.167 1174.99 643.942C1175.21 643.717 1175.51 643.586 1175.82 643.578ZM1172.35 649.166C1172.78 649.252 1173.22 649.252 1173.65 649.166C1173.86 649.124 1174.06 649.06 1174.26 648.977C1174.45 648.897 1174.63 648.797 1174.81 648.68C1174.97 648.566 1175.13 648.433 1175.28 648.285C1175.43 648.138 1175.56 647.978 1175.68 647.807L1177.02 648.709C1176.67 649.225 1176.23 649.67 1175.71 650.018C1175.18 650.373 1174.6 650.621 1173.97 650.748C1173.33 650.878 1172.67 650.877 1172.03 650.747C1171.4 650.622 1170.81 650.374 1170.29 650.018C1169.78 649.669 1169.33 649.224 1168.98 648.708L1170.32 647.807C1170.44 647.977 1170.57 648.138 1170.71 648.283C1171.16 648.731 1171.73 649.038 1172.35 649.166ZM1170.17 643.578C1170.33 643.578 1170.49 643.61 1170.64 643.671C1170.78 643.732 1170.92 643.821 1171.03 643.934C1171.14 644.046 1171.23 644.18 1171.29 644.327C1171.35 644.474 1171.38 644.631 1171.38 644.79C1171.38 644.95 1171.35 645.107 1171.29 645.254C1171.23 645.401 1171.14 645.535 1171.03 645.647C1170.92 645.76 1170.78 645.849 1170.64 645.91C1170.49 645.97 1170.33 646.002 1170.17 646.002C1169.85 646.002 1169.54 645.874 1169.32 645.647C1169.09 645.419 1168.96 645.111 1168.96 644.79C1168.96 644.468 1169.09 644.16 1169.32 643.933C1169.54 643.706 1169.85 643.578 1170.17 643.578Z" fill="#344BFD"/>
<path d="M1205.23 633.102H1207.24L1209.68 637.477H1209.77L1212.21 633.102H1214.21L1210.62 639.295V643H1208.84V639.295L1205.23 633.102ZM1217.15 643.15C1214.99 643.15 1213.6 641.619 1213.6 639.322C1213.6 637.012 1214.99 635.48 1217.15 635.48C1219.33 635.48 1220.71 637.012 1220.71 639.322C1220.71 641.619 1219.33 643.15 1217.15 643.15ZM1217.17 641.756C1218.36 641.756 1218.95 640.676 1218.95 639.309C1218.95 637.955 1218.36 636.861 1217.17 636.861C1215.95 636.861 1215.36 637.955 1215.36 639.309C1215.36 640.676 1215.95 641.756 1217.17 641.756ZM1226.81 639.883V635.576H1228.54V643H1226.86V641.688H1226.78C1226.44 642.508 1225.66 643.096 1224.55 643.096C1223.09 643.096 1222.08 642.084 1222.06 640.307V635.576H1223.81V640.033C1223.81 640.977 1224.37 641.578 1225.22 641.578C1225.99 641.578 1226.81 641.018 1226.81 639.883ZM1233.19 640.908C1233.19 639.24 1234.57 638.748 1235.95 638.666C1236.47 638.632 1237.53 638.57 1237.85 638.557V637.969C1237.85 637.23 1237.38 636.807 1236.51 636.807C1235.73 636.807 1235.26 637.162 1235.12 637.695H1233.44C1233.56 636.438 1234.7 635.48 1236.55 635.48C1237.96 635.48 1239.59 636.055 1239.59 638.037V643H1237.92V641.975H1237.87C1237.54 642.604 1236.84 643.15 1235.68 643.15C1234.26 643.15 1233.19 642.371 1233.19 640.908ZM1234.87 640.895C1234.87 641.537 1235.39 641.865 1236.13 641.865C1237.18 641.865 1237.87 641.168 1237.87 640.334V639.719L1236.23 639.828C1235.39 639.896 1234.87 640.238 1234.87 640.895ZM1241.23 643V635.576H1242.93V636.807H1243.01C1243.27 635.959 1243.99 635.467 1244.84 635.467C1245.03 635.467 1245.3 635.48 1245.47 635.508V637.121C1245.32 637.066 1244.95 637.012 1244.66 637.012C1243.69 637.012 1242.98 637.682 1242.98 638.625V643H1241.23ZM1249.56 643.15C1247.31 643.15 1245.95 641.66 1245.95 639.336C1245.95 637.039 1247.34 635.48 1249.46 635.48C1251.28 635.48 1252.85 636.615 1252.85 639.227V639.773H1247.67C1247.69 641.038 1248.44 641.783 1249.57 641.783C1250.34 641.783 1250.86 641.455 1251.07 641.018H1252.78C1252.47 642.303 1251.28 643.15 1249.56 643.15ZM1247.68 638.584H1251.18C1251.17 637.572 1250.5 636.834 1249.49 636.834C1248.44 636.834 1247.74 637.634 1247.68 638.584ZM1260.29 643.137C1258.54 643.137 1257.23 641.742 1257.23 639.295C1257.23 636.82 1258.58 635.48 1260.3 635.48C1261.62 635.48 1262.16 636.26 1262.42 636.793H1262.49V633.102H1264.23V643H1262.52V641.824H1262.42C1262.15 642.371 1261.57 643.137 1260.29 643.137ZM1260.77 641.701C1261.89 641.701 1262.53 640.73 1262.53 639.281C1262.53 637.846 1261.9 636.902 1260.77 636.902C1259.61 636.902 1259 637.9 1259 639.281C1259 640.689 1259.62 641.701 1260.77 641.701ZM1269.23 643.15C1267.07 643.15 1265.68 641.619 1265.68 639.322C1265.68 637.012 1267.07 635.48 1269.23 635.48C1271.4 635.48 1272.79 637.012 1272.79 639.322C1272.79 641.619 1271.4 643.15 1269.23 643.15ZM1269.24 641.756C1270.43 641.756 1271.02 640.676 1271.02 639.309C1271.02 637.955 1270.43 636.861 1269.24 636.861C1268.03 636.861 1267.44 637.955 1267.44 639.309C1267.44 640.676 1268.03 641.756 1269.24 641.756ZM1274.14 643V635.576H1275.89V643H1274.14ZM1275.03 634.523C1274.48 634.523 1274.02 634.1 1274.02 633.566C1274.02 633.047 1274.48 632.623 1275.03 632.623C1275.59 632.623 1276.04 633.047 1276.04 633.566C1276.04 634.1 1275.59 634.523 1275.03 634.523ZM1279.31 638.652V643H1277.56V635.576H1279.22V636.834H1279.32C1279.66 636 1280.41 635.48 1281.52 635.48C1283.07 635.48 1284.08 636.492 1284.06 638.27V643H1282.33V638.543C1282.33 637.545 1281.79 636.957 1280.88 636.957C1279.95 636.957 1279.31 637.572 1279.31 638.652ZM1288.97 645.939C1287 645.939 1285.76 645.064 1285.64 643.67H1287.37C1287.5 644.312 1288.11 644.627 1289 644.627C1290.04 644.627 1290.72 644.176 1290.72 643.082V641.66H1290.64C1290.37 642.207 1289.78 642.891 1288.49 642.891C1286.79 642.891 1285.43 641.646 1285.43 639.227C1285.43 636.779 1286.79 635.48 1288.51 635.48C1289.82 635.48 1290.37 636.26 1290.64 636.793H1290.72V635.576H1292.45V643.123C1292.45 645.023 1290.98 645.939 1288.97 645.939ZM1288.97 641.523C1290.09 641.523 1290.74 640.676 1290.74 639.254C1290.74 637.846 1290.11 636.902 1288.97 636.902C1287.81 636.902 1287.21 637.9 1287.21 639.254C1287.21 640.621 1287.82 641.523 1288.97 641.523ZM1300.68 645.939C1298.71 645.939 1297.46 645.064 1297.34 643.67H1299.08C1299.2 644.312 1299.81 644.627 1300.7 644.627C1301.74 644.627 1302.43 644.176 1302.43 643.082V641.66H1302.34C1302.07 642.207 1301.48 642.891 1300.2 642.891C1298.49 642.891 1297.13 641.646 1297.13 639.227C1297.13 636.779 1298.49 635.48 1300.21 635.48C1301.52 635.48 1302.07 636.26 1302.34 636.793H1302.43V635.576H1304.15V643.123C1304.15 645.023 1302.69 645.939 1300.68 645.939ZM1300.68 641.523C1301.8 641.523 1302.44 640.676 1302.44 639.254C1302.44 637.846 1301.81 636.902 1300.68 636.902C1299.51 636.902 1298.91 637.9 1298.91 639.254C1298.91 640.621 1299.53 641.523 1300.68 641.523ZM1309.06 643.15C1306.9 643.15 1305.5 641.619 1305.5 639.322C1305.5 637.012 1306.9 635.48 1309.06 635.48C1311.23 635.48 1312.61 637.012 1312.61 639.322C1312.61 641.619 1311.23 643.15 1309.06 643.15ZM1309.07 641.756C1310.26 641.756 1310.85 640.676 1310.85 639.309C1310.85 637.955 1310.26 636.861 1309.07 636.861C1307.85 636.861 1307.27 637.955 1307.27 639.309C1307.27 640.676 1307.85 641.756 1309.07 641.756ZM1317.21 643.15C1315.04 643.15 1313.65 641.619 1313.65 639.322C1313.65 637.012 1315.04 635.48 1317.21 635.48C1319.38 635.48 1320.76 637.012 1320.76 639.322C1320.76 641.619 1319.38 643.15 1317.21 643.15ZM1317.22 641.756C1318.41 641.756 1319 640.676 1319 639.309C1319 637.955 1318.41 636.861 1317.22 636.861C1316 636.861 1315.41 637.955 1315.41 639.309C1315.41 640.676 1316 641.756 1317.22 641.756ZM1324.88 643.137C1323.12 643.137 1321.81 641.742 1321.81 639.295C1321.81 636.82 1323.17 635.48 1324.89 635.48C1326.2 635.48 1326.75 636.26 1327.01 636.793H1327.08V633.102H1328.81V643H1327.1V641.824H1327.01C1326.73 642.371 1326.16 643.137 1324.88 643.137ZM1325.35 641.701C1326.47 641.701 1327.12 640.73 1327.12 639.281C1327.12 637.846 1326.49 636.902 1325.35 636.902C1324.19 636.902 1323.59 637.9 1323.59 639.281C1323.59 640.689 1324.21 641.701 1325.35 641.701ZM1332.7 633.102L1332.54 640.088H1331L1330.84 633.102H1332.7ZM1331.78 643.109C1331.19 643.109 1330.71 642.631 1330.71 642.043C1330.71 641.469 1331.19 640.99 1331.78 640.99C1332.34 640.99 1332.83 641.469 1332.83 642.043C1332.83 642.631 1332.34 643.109 1331.78 643.109Z" fill="black"/>
<path d="M1205.25 650.102H1206.65L1209.38 654.695H1209.5L1212.22 650.102H1213.64L1210.06 655.939V660H1208.81V655.939L1205.25 650.102ZM1216.79 660.15C1214.76 660.15 1213.39 658.633 1213.39 656.322C1213.39 654.012 1214.76 652.48 1216.79 652.48C1218.79 652.48 1220.15 654.012 1220.15 656.322C1220.15 658.633 1218.79 660.15 1216.79 660.15ZM1216.79 659.111C1218.28 659.111 1218.97 657.799 1218.97 656.322C1218.97 654.846 1218.28 653.52 1216.79 653.52C1215.27 653.52 1214.57 654.846 1214.57 656.322C1214.57 657.799 1215.27 659.111 1216.79 659.111ZM1226.38 656.951V652.576H1227.54V660H1226.38V658.742H1226.3C1225.95 659.494 1225.22 660.096 1224.1 660.096C1222.69 660.096 1221.69 659.18 1221.69 657.293V652.576H1222.87V657.211C1222.87 658.277 1223.54 658.961 1224.48 658.961C1225.32 658.961 1226.38 658.332 1226.38 656.951ZM1232.59 657.895C1232.59 656.186 1234.09 655.803 1235.38 655.707C1235.85 655.673 1237.05 655.611 1237.39 655.598V654.996C1237.39 654.053 1236.83 653.506 1235.71 653.506C1234.76 653.506 1234.2 653.943 1234.04 654.504H1232.81C1232.96 653.314 1234.12 652.48 1235.76 652.48C1236.73 652.48 1238.55 652.768 1238.55 655.105V660H1237.39V658.988H1237.33C1237.09 659.494 1236.4 660.178 1235.12 660.178C1233.71 660.178 1232.59 659.344 1232.59 657.895ZM1233.77 657.949C1233.77 658.729 1234.42 659.125 1235.32 659.125C1236.65 659.125 1237.39 658.236 1237.39 657.307V656.555L1235.52 656.691C1234.45 656.76 1233.77 657.143 1233.77 657.949ZM1241.61 650.102V660H1240.44V650.102H1241.61ZM1243.49 660V652.576H1244.62V653.738H1244.72C1245.03 652.945 1245.74 652.48 1246.71 652.48C1247.68 652.48 1248.34 652.945 1248.7 653.738H1248.78C1249.16 652.973 1249.94 652.48 1251.01 652.48C1252.33 652.48 1253.28 653.287 1253.28 655.037V660H1252.1V655.051C1252.1 653.957 1251.4 653.533 1250.6 653.533C1249.56 653.533 1248.97 654.23 1248.97 655.174V660H1247.78V654.928C1247.78 654.094 1247.18 653.533 1246.33 653.533C1245.44 653.533 1244.66 654.285 1244.66 655.365V660H1243.49ZM1258.2 660.15C1256.17 660.15 1254.81 658.633 1254.81 656.322C1254.81 654.012 1256.17 652.48 1258.2 652.48C1260.21 652.48 1261.56 654.012 1261.56 656.322C1261.56 658.633 1260.21 660.15 1258.2 660.15ZM1258.2 659.111C1259.69 659.111 1260.38 657.799 1260.38 656.322C1260.38 654.846 1259.69 653.52 1258.2 653.52C1256.68 653.52 1255.98 654.846 1255.98 656.322C1255.98 657.799 1256.68 659.111 1258.2 659.111ZM1267.23 654.504C1267.07 653.889 1266.61 653.479 1265.73 653.479C1264.81 653.479 1264.16 653.971 1264.16 654.6C1264.16 655.092 1264.55 655.434 1265.43 655.639L1266.54 655.912C1267.86 656.227 1268.52 656.883 1268.52 657.922C1268.52 659.207 1267.47 660.15 1265.61 660.15C1263.94 660.15 1262.94 659.412 1262.75 658.059H1263.98C1264.12 658.783 1264.65 659.125 1265.58 659.125C1266.63 659.125 1267.3 658.688 1267.3 657.99C1267.3 657.471 1266.93 657.115 1266.09 656.924L1264.96 656.664C1263.67 656.363 1262.98 655.652 1262.98 654.668C1262.98 653.396 1264.09 652.48 1265.73 652.48C1267.26 652.48 1268.23 653.301 1268.38 654.504H1267.23ZM1273.29 652.576V653.561H1271.73V657.867C1271.73 658.824 1272.2 658.975 1272.7 658.975C1272.92 658.975 1273.22 658.961 1273.4 658.947V660.041C1273.22 660.068 1272.92 660.096 1272.58 660.096C1271.6 660.096 1270.54 659.48 1270.54 658.168V653.561H1269.42V652.576H1270.54V650.799H1271.73V652.576H1273.29ZM1278.32 660V652.576H1279.46V653.711H1279.54C1279.81 652.959 1280.58 652.453 1281.45 652.453C1281.63 652.453 1281.93 652.467 1282.07 652.48V653.67C1281.99 653.643 1281.66 653.588 1281.36 653.588C1280.29 653.588 1279.5 654.326 1279.5 655.324V660H1278.32ZM1286.09 660.15C1283.94 660.15 1282.62 658.633 1282.62 656.35C1282.62 654.066 1283.96 652.48 1285.98 652.48C1287.54 652.48 1289.18 653.438 1289.18 656.186V656.678H1283.79C1283.85 658.25 1284.76 659.111 1286.09 659.111C1286.98 659.111 1287.54 658.729 1287.81 658.264H1289.07C1288.71 659.385 1287.62 660.15 1286.09 660.15ZM1283.8 655.68H1287.99C1287.99 654.436 1287.2 653.52 1285.98 653.52C1284.69 653.52 1283.87 654.531 1283.8 655.68ZM1290.35 657.895C1290.35 656.186 1291.86 655.803 1293.14 655.707C1293.61 655.673 1294.82 655.611 1295.15 655.598V654.996C1295.15 654.053 1294.59 653.506 1293.47 653.506C1292.53 653.506 1291.97 653.943 1291.8 654.504H1290.57C1290.72 653.314 1291.88 652.48 1293.53 652.48C1294.5 652.48 1296.31 652.768 1296.31 655.105V660H1295.15V658.988H1295.1C1294.85 659.494 1294.17 660.178 1292.88 660.178C1291.47 660.178 1290.35 659.344 1290.35 657.895ZM1291.53 657.949C1291.53 658.729 1292.19 659.125 1293.09 659.125C1294.41 659.125 1295.15 658.236 1295.15 657.307V656.555L1293.28 656.691C1292.21 656.76 1291.53 657.143 1291.53 657.949ZM1301.24 660.15C1299.13 660.15 1297.85 658.551 1297.85 656.322C1297.85 654.066 1299.19 652.48 1301.21 652.48C1302.79 652.48 1303.97 653.41 1304.16 654.818H1302.99C1302.82 654.135 1302.22 653.52 1301.24 653.52C1299.91 653.52 1299.02 654.613 1299.02 656.281C1299.02 658.004 1299.88 659.098 1301.24 659.098C1302.11 659.098 1302.78 658.633 1302.99 657.812H1304.16C1303.97 659.139 1302.89 660.15 1301.24 660.15ZM1306.79 655.543V660H1305.61V650.102H1306.79V653.738H1306.88C1307.22 652.973 1307.89 652.48 1309.07 652.48C1310.59 652.48 1311.6 653.383 1311.6 655.283V660H1310.42V655.365C1310.42 654.203 1309.78 653.533 1308.71 653.533C1307.61 653.533 1306.79 654.258 1306.79 655.543ZM1316.6 660.15C1314.46 660.15 1313.13 658.633 1313.13 656.35C1313.13 654.066 1314.47 652.48 1316.49 652.48C1318.05 652.48 1319.69 653.438 1319.69 656.186V656.678H1314.31C1314.36 658.25 1315.28 659.111 1316.6 659.111C1317.49 659.111 1318.05 658.729 1318.33 658.264H1319.58C1319.23 659.385 1318.13 660.15 1316.6 660.15ZM1314.32 655.68H1318.5C1318.5 654.436 1317.71 653.52 1316.49 653.52C1315.21 653.52 1314.39 654.531 1314.32 655.68ZM1324.03 660.15C1322.18 660.15 1320.87 658.66 1320.87 656.309C1320.87 653.957 1322.18 652.48 1324.04 652.48C1325.48 652.48 1325.94 653.355 1326.19 653.752H1326.27V650.102H1327.46V660H1326.31V658.865H1326.19C1325.93 659.275 1325.45 660.15 1324.03 660.15ZM1324.19 659.098C1325.54 659.098 1326.31 657.949 1326.31 656.281C1326.31 654.641 1325.57 653.533 1324.19 653.533C1322.77 653.533 1322.06 654.736 1322.06 656.281C1322.06 657.867 1322.78 659.098 1324.19 659.098ZM1333.76 662.789C1333.5 662.789 1333.26 662.775 1333.11 662.762V661.709C1333.23 661.723 1333.5 661.736 1333.68 661.736C1334.16 661.736 1334.55 661.695 1334.95 660.615L1335.17 660.055L1332.42 652.576H1333.71L1335.73 658.469H1335.81L1337.84 652.576H1339.12L1335.98 661.066C1335.54 662.229 1334.81 662.789 1333.76 662.789ZM1343.18 660.15C1341.16 660.15 1339.79 658.633 1339.79 656.322C1339.79 654.012 1341.16 652.48 1343.18 652.48C1345.19 652.48 1346.54 654.012 1346.54 656.322C1346.54 658.633 1345.19 660.15 1343.18 660.15ZM1343.18 659.111C1344.67 659.111 1345.37 657.799 1345.37 656.322C1345.37 654.846 1344.67 653.52 1343.18 653.52C1341.66 653.52 1340.97 654.846 1340.97 656.322C1340.97 657.799 1341.66 659.111 1343.18 659.111ZM1352.78 656.951V652.576H1353.94V660H1352.78V658.742H1352.7C1352.34 659.494 1351.62 660.096 1350.5 660.096C1349.09 660.096 1348.09 659.18 1348.09 657.293V652.576H1349.27V657.211C1349.27 658.277 1349.94 658.961 1350.88 658.961C1351.71 658.961 1352.78 658.332 1352.78 656.951ZM1355.83 660V652.576H1356.96V653.711H1357.04C1357.32 652.959 1358.08 652.453 1358.96 652.453C1359.14 652.453 1359.44 652.467 1359.57 652.48V653.67C1359.49 653.643 1359.16 653.588 1358.86 653.588C1357.8 653.588 1357 654.326 1357 655.324V660H1355.83ZM1367.24 662.939C1365.45 662.939 1364.24 662.16 1364.1 660.779H1365.33C1365.49 661.531 1366.19 661.914 1367.24 661.914C1368.52 661.914 1369.29 661.367 1369.29 660.137V658.633H1369.2C1368.95 659.043 1368.47 659.891 1367.04 659.891C1365.23 659.891 1363.88 658.523 1363.88 656.186C1363.88 653.902 1365.19 652.48 1367.05 652.48C1368.49 652.48 1368.95 653.355 1369.23 653.752H1369.32V652.576H1370.47V660.205C1370.47 662.119 1369.05 662.939 1367.24 662.939ZM1367.2 658.838C1368.56 658.838 1369.32 657.867 1369.32 656.227C1369.32 654.641 1368.58 653.533 1367.2 653.533C1365.78 653.533 1365.07 654.736 1365.07 656.227C1365.07 657.771 1365.79 658.838 1367.2 658.838ZM1375.38 660.15C1373.36 660.15 1371.99 658.633 1371.99 656.322C1371.99 654.012 1373.36 652.48 1375.38 652.48C1377.39 652.48 1378.74 654.012 1378.74 656.322C1378.74 658.633 1377.39 660.15 1375.38 660.15ZM1375.38 659.111C1376.87 659.111 1377.57 657.799 1377.57 656.322C1377.57 654.846 1376.87 653.52 1375.38 653.52C1373.86 653.52 1373.16 654.846 1373.16 656.322C1373.16 657.799 1373.86 659.111 1375.38 659.111ZM1379.93 657.895C1379.93 656.186 1381.44 655.803 1382.72 655.707C1383.19 655.673 1384.4 655.611 1384.73 655.598V654.996C1384.73 654.053 1384.17 653.506 1383.05 653.506C1382.11 653.506 1381.54 653.943 1381.38 654.504H1380.15C1380.3 653.314 1381.46 652.48 1383.1 652.48C1384.07 652.48 1385.89 652.768 1385.89 655.105V660H1384.73V658.988H1384.68C1384.43 659.494 1383.75 660.178 1382.46 660.178C1381.05 660.178 1379.93 659.344 1379.93 657.895ZM1381.11 657.949C1381.11 658.729 1381.76 659.125 1382.67 659.125C1383.99 659.125 1384.73 658.236 1384.73 657.307V656.555L1382.86 656.691C1381.79 656.76 1381.11 657.143 1381.11 657.949ZM1388.96 650.102V660H1387.78V650.102H1388.96Z" fill="#BBBBBB"/>
<defs>
<filter id="filter0_d_530_3309" x="0" y="-4" width="540" height="697.998" filterUnits="userSpaceOnUse" color-interpolation-filters="sRGB">
<feFlood flood-opacity="0" result="BackgroundImageFix"/>
<feColorMatrix in="SourceAlpha" type="matrix" values="0 0 0 0 0 0 0 0 0 0 0 0 0 0 0 0 0 0 127 0" result="hardAlpha"/>
<feOffset dx="4" dy="16"/>
<feGaussianBlur stdDeviation="10"/>
<feComposite in2="hardAlpha" operator="out"/>
<feColorMatrix type="matrix" values="0 0 0 0 0 0 0 0 0 0 0 0 0 0 0 0 0 0 0.25 0"/>
<feBlend mode="normal" in2="BackgroundImageFix" result="effect1_dropShadow_530_3309"/>
<feBlend mode="normal" in="SourceGraphic" in2="effect1_dropShadow_530_3309" result="shape"/>
</filter>
<filter id="filter1_d_530_3309" x="12" y="105.162" width="508" height="496.757" filterUnits="userSpaceOnUse" color-interpolation-filters="sRGB">
<feFlood flood-opacity="0" result="BackgroundImageFix"/>
<feColorMatrix in="SourceAlpha" type="matrix" values="0 0 0 0 0 0 0 0 0 0 0 0 0 0 0 0 0 0 127 0" result="hardAlpha"/>
<feOffset dy="4"/>
<feGaussianBlur stdDeviation="2"/>
<feComposite in2="hardAlpha" operator="out"/>
<feColorMatrix type="matrix" values="0 0 0 0 0 0 0 0 0 0 0 0 0 0 0 0 0 0 0.25 0"/>
<feBlend mode="normal" in2="BackgroundImageFix" result="effect1_dropShadow_530_3309"/>
<feBlend mode="normal" in="SourceGraphic" in2="effect1_dropShadow_530_3309" result="shape"/>
</filter>
<filter id="filter2_d_530_3309" x="504" y="186" width="540" height="528" filterUnits="userSpaceOnUse" color-interpolation-filters="sRGB">
<feFlood flood-opacity="0" result="BackgroundImageFix"/>
<feColorMatrix in="SourceAlpha" type="matrix" values="0 0 0 0 0 0 0 0 0 0 0 0 0 0 0 0 0 0 127 0" result="hardAlpha"/>
<feOffset dx="4" dy="16"/>
<feGaussianBlur stdDeviation="10"/>
<feComposite in2="hardAlpha" operator="out"/>
<feColorMatrix type="matrix" values="0 0 0 0 0 0 0 0 0 0 0 0 0 0 0 0 0 0 0.25 0"/>
<feBlend mode="normal" in2="BackgroundImageFix" result="effect1_dropShadow_530_3309"/>
<feBlend mode="normal" in="SourceGraphic" in2="effect1_dropShadow_530_3309" result="shape"/>
</filter>
<filter id="filter3_d_530_3309" x="1008" y="251" width="540" height="528" filterUnits="userSpaceOnUse" color-interpolation-filters="sRGB">
<feFlood flood-opacity="0" result="BackgroundImageFix"/>
<feColorMatrix in="SourceAlpha" type="matrix" values="0 0 0 0 0 0 0 0 0 0 0 0 0 0 0 0 0 0 127 0" result="hardAlpha"/>
<feOffset dx="4" dy="16"/>
<feGaussianBlur stdDeviation="10"/>
<feComposite in2="hardAlpha" operator="out"/>
<feColorMatrix type="matrix" values="0 0 0 0 0 0 0 0 0 0 0 0 0 0 0 0 0 0 0.25 0"/>
<feBlend mode="normal" in2="BackgroundImageFix" result="effect1_dropShadow_530_3309"/>
<feBlend mode="normal" in="SourceGraphic" in2="effect1_dropShadow_530_3309" result="shape"/>
</filter>
<linearGradient id="paint0_linear_530_3309" x1="117" y1="398.615" x2="117" y2="510.615" gradientUnits="userSpaceOnUse">
<stop stop-color="#1B32FF"/>
<stop offset="0.493391" stop-color="#4A5CFF"/>
<stop offset="1" stop-color="#8D98FF"/>
</linearGradient>
<linearGradient id="paint1_linear_530_3309" x1="81" y1="398.615" x2="81" y2="510.615" gradientUnits="userSpaceOnUse">
<stop stop-color="#1B32FF"/>
<stop offset="0.493391" stop-color="#4A5CFF"/>
<stop offset="1" stop-color="#8D98FF"/>
</linearGradient>
<linearGradient id="paint2_linear_530_3309" x1="45" y1="489.615" x2="45" y2="510.615" gradientUnits="userSpaceOnUse">
<stop stop-color="#1B32FF"/>
<stop offset="0.493391" stop-color="#4A5CFF"/>
<stop offset="1" stop-color="#8D98FF"/>
</linearGradient>
<linearGradient id="paint3_linear_530_3309" x1="479" y1="276.341" x2="479" y2="332.341" gradientUnits="userSpaceOnUse">
<stop stop-color="#1B32FF"/>
<stop offset="0.493391" stop-color="#4A5CFF"/>
<stop offset="1" stop-color="#8D98FF"/>
</linearGradient>
<linearGradient id="paint4_linear_530_3309" x1="441" y1="220.341" x2="441" y2="332.341" gradientUnits="userSpaceOnUse">
<stop stop-color="#1B32FF"/>
<stop offset="0.493391" stop-color="#4A5CFF"/>
<stop offset="1" stop-color="#8D98FF"/>
</linearGradient>
<linearGradient id="paint5_linear_530_3309" x1="403" y1="220.341" x2="403" y2="332.341" gradientUnits="userSpaceOnUse">
<stop stop-color="#1B32FF"/>
<stop offset="0.493391" stop-color="#4A5CFF"/>
<stop offset="1" stop-color="#8D98FF"/>
</linearGradient>
<linearGradient id="paint6_linear_530_3309" x1="365" y1="220.341" x2="365" y2="332.341" gradientUnits="userSpaceOnUse">
<stop stop-color="#1B32FF"/>
<stop offset="0.493391" stop-color="#4A5CFF"/>
<stop offset="1" stop-color="#8D98FF"/>
</linearGradient>
<linearGradient id="paint7_linear_530_3309" x1="327" y1="220.341" x2="327" y2="332.341" gradientUnits="userSpaceOnUse">
<stop stop-color="#1B32FF"/>
<stop offset="0.493391" stop-color="#4A5CFF"/>
<stop offset="1" stop-color="#8D98FF"/>
</linearGradient>
<linearGradient id="paint8_linear_530_3309" x1="617" y1="315" x2="617" y2="515" gradientUnits="userSpaceOnUse">
<stop stop-color="#1B32FF"/>
<stop offset="0.409466" stop-color="#4A5CFF"/>
<stop offset="1" stop-color="#8D98FF"/>
</linearGradient>
<linearGradient id="paint9_linear_530_3309" x1="669" y1="315" x2="669" y2="515" gradientUnits="userSpaceOnUse">
<stop stop-color="#1B32FF"/>
<stop offset="0.409466" stop-color="#4A5CFF"/>
<stop offset="1" stop-color="#8D98FF"/>
</linearGradient>
<linearGradient id="paint10_linear_530_3309" x1="723" y1="315" x2="723" y2="515" gradientUnits="userSpaceOnUse">
<stop stop-color="#1B32FF"/>
<stop offset="0.409466" stop-color="#4A5CFF"/>
<stop offset="1" stop-color="#8D98FF"/>
</linearGradient>
<linearGradient id="paint11_linear_530_3309" x1="777" y1="315" x2="777" y2="515" gradientUnits="userSpaceOnUse">
<stop stop-color="#1B32FF"/>
<stop offset="0.409466" stop-color="#4A5CFF"/>
<stop offset="1" stop-color="#8D98FF"/>
</linearGradient>
<linearGradient id="paint12_linear_530_3309" x1="827" y1="415" x2="827" y2="515" gradientUnits="userSpaceOnUse">
<stop stop-color="#1B32FF"/>
<stop offset="0.409466" stop-color="#4A5CFF"/>
<stop offset="1" stop-color="#8D98FF"/>
</linearGradient>
<linearGradient id="paint13_linear_530_3309" x1="1141" y1="414" x2="1141" y2="577" gradientUnits="userSpaceOnUse">
<stop stop-color="#FE7A01"/>
<stop offset="0.409466" stop-color="#FE9534"/>
<stop offset="1" stop-color="#FFD0AF"/>
</linearGradient>
<linearGradient id="paint14_linear_530_3309" x1="1179" y1="434" x2="1179" y2="577" gradientUnits="userSpaceOnUse">
<stop stop-color="#FE7A01"/>
<stop offset="0.409466" stop-color="#FE9534"/>
<stop offset="1" stop-color="#FFD0AF"/>
</linearGradient>
<linearGradient id="paint15_linear_530_3309" x1="1217" y1="404" x2="1217" y2="577" gradientUnits="userSpaceOnUse">
<stop stop-color="#FE7A01"/>
<stop offset="0.409466" stop-color="#FE9534"/>
<stop offset="1" stop-color="#FFD0AF"/>
</linearGradient>
<linearGradient id="paint16_linear_530_3309" x1="1255" y1="377" x2="1255" y2="577" gradientUnits="userSpaceOnUse">
<stop stop-color="#FE7A01"/>
<stop offset="0.409466" stop-color="#FE9534"/>
<stop offset="1" stop-color="#FFD0AF"/>
</linearGradient>
<linearGradient id="paint17_linear_530_3309" x1="1293" y1="395" x2="1293" y2="577" gradientUnits="userSpaceOnUse">
<stop stop-color="#FE7A01"/>
<stop offset="0.409466" stop-color="#FE9534"/>
<stop offset="1" stop-color="#FFD0AF"/>
</linearGradient>
<linearGradient id="paint18_linear_530_3309" x1="1331" y1="381" x2="1331" y2="577" gradientUnits="userSpaceOnUse">
<stop stop-color="#FE7A01"/>
<stop offset="0.409466" stop-color="#FE9534"/>
<stop offset="1" stop-color="#FFD0AF"/>
</linearGradient>
<linearGradient id="paint19_linear_530_3309" x1="1369" y1="411" x2="1369" y2="577" gradientUnits="userSpaceOnUse">
<stop stop-color="#FE7A01"/>
<stop offset="0.409466" stop-color="#FE9534"/>
<stop offset="1" stop-color="#FFD0AF"/>
</linearGradient>
<linearGradient id="paint20_linear_530_3309" x1="1407" y1="486" x2="1407" y2="577" gradientUnits="userSpaceOnUse">
<stop stop-color="#1B32FF"/>
<stop offset="0.409466" stop-color="#4A5CFF"/>
<stop offset="1" stop-color="#8D98FF"/>
</linearGradient>
</defs>
</svg>
