<svg width="510" height="392" viewBox="0 0 510 392" fill="none" xmlns="http://www.w3.org/2000/svg">
<g filter="url(#filter0_d_315_7454)">
<g filter="url(#filter1_dd_315_7454)">
<path d="M21 11C21 6.58172 24.5817 3 29 3H481C485.418 3 489 6.58172 489 11V343C489 347.418 485.418 351 481 351H29C24.5817 351 21 347.418 21 343V11Z" fill="white"/>
<path d="M21 11C21 6.58172 24.5817 3 29 3H481C485.418 3 489 6.58172 489 11V343C489 347.418 485.418 351 481 351H29C24.5817 351 21 347.418 21 343V11Z" stroke="#DEE2E6"/>
<path d="M255 83C260.523 83 265.523 80.7614 269.142 77.1421C272.761 73.5228 275 68.5228 275 63C275 57.4772 272.761 52.4772 269.142 48.8579C265.523 45.2386 260.523 43 255 43C249.477 43 244.477 45.2386 240.858 48.8579C237.239 52.4772 235 57.4772 235 63C235 68.5228 237.239 73.5228 240.858 77.1421C244.477 80.7614 249.477 83 255 83Z" fill="white" stroke="#1B32FF" stroke-width="4" stroke-linejoin="round"/>
<path d="M247 63L253 69L265 57" stroke="#1B32FF" stroke-width="4" stroke-linecap="round" stroke-linejoin="round"/>
<path d="M144.839 119.453C144.773 118.833 144.494 118.35 144.001 118.004C143.514 117.659 142.879 117.486 142.098 117.486C141.549 117.486 141.078 117.569 140.685 117.734C140.292 117.9 139.991 118.125 139.783 118.409C139.574 118.693 139.468 119.018 139.463 119.382C139.463 119.685 139.532 119.948 139.669 120.17C139.811 120.393 140.003 120.582 140.244 120.739C140.486 120.89 140.753 121.018 141.047 121.122C141.34 121.226 141.636 121.314 141.935 121.385L143.298 121.726C143.848 121.854 144.375 122.027 144.882 122.244C145.393 122.462 145.85 122.737 146.253 123.068C146.66 123.4 146.982 123.8 147.219 124.268C147.455 124.737 147.574 125.286 147.574 125.916C147.574 126.768 147.356 127.519 146.92 128.168C146.485 128.812 145.855 129.316 145.031 129.68C144.212 130.04 143.22 130.22 142.055 130.22C140.924 130.22 139.941 130.045 139.108 129.695C138.279 129.344 137.631 128.833 137.162 128.161C136.698 127.488 136.447 126.669 136.409 125.703H139.001C139.039 126.21 139.196 126.631 139.47 126.967C139.745 127.304 140.102 127.554 140.543 127.72C140.988 127.886 141.485 127.969 142.034 127.969C142.607 127.969 143.109 127.884 143.54 127.713C143.975 127.538 144.316 127.296 144.562 126.989C144.809 126.676 144.934 126.312 144.939 125.895C144.934 125.516 144.823 125.204 144.605 124.957C144.387 124.706 144.082 124.498 143.689 124.332C143.301 124.162 142.846 124.01 142.325 123.878L140.67 123.452C139.473 123.144 138.526 122.678 137.83 122.053C137.138 121.423 136.793 120.587 136.793 119.545C136.793 118.688 137.025 117.938 137.489 117.294C137.957 116.65 138.594 116.151 139.399 115.795C140.204 115.436 141.116 115.256 142.134 115.256C143.166 115.256 144.07 115.436 144.847 115.795C145.628 116.151 146.241 116.645 146.686 117.28C147.131 117.91 147.361 118.634 147.375 119.453H144.839ZM156.762 125.412V119.091H159.333V130H156.841V128.061H156.727C156.481 128.672 156.076 129.171 155.512 129.56C154.954 129.948 154.265 130.142 153.446 130.142C152.731 130.142 152.099 129.983 151.549 129.666C151.005 129.344 150.579 128.878 150.271 128.267C149.963 127.652 149.809 126.908 149.809 126.037V119.091H152.38V125.639C152.38 126.33 152.57 126.88 152.949 127.287C153.327 127.694 153.824 127.898 154.44 127.898C154.819 127.898 155.186 127.805 155.541 127.621C155.896 127.436 156.187 127.161 156.414 126.797C156.646 126.428 156.762 125.966 156.762 125.412ZM166.736 130.213C165.647 130.213 164.712 129.974 163.93 129.496C163.154 129.018 162.555 128.357 162.134 127.514C161.717 126.667 161.509 125.691 161.509 124.588C161.509 123.48 161.722 122.502 162.148 121.655C162.574 120.803 163.175 120.14 163.952 119.666C164.733 119.188 165.656 118.949 166.722 118.949C167.607 118.949 168.391 119.112 169.072 119.439C169.759 119.761 170.306 120.218 170.713 120.81C171.12 121.397 171.352 122.083 171.409 122.869H168.952C168.852 122.344 168.616 121.906 168.241 121.555C167.872 121.2 167.377 121.023 166.757 121.023C166.232 121.023 165.77 121.165 165.372 121.449C164.974 121.728 164.664 122.131 164.442 122.656C164.224 123.182 164.115 123.812 164.115 124.545C164.115 125.289 164.224 125.928 164.442 126.463C164.66 126.993 164.965 127.403 165.358 127.692C165.756 127.976 166.222 128.118 166.757 128.118C167.136 128.118 167.474 128.047 167.773 127.905C168.076 127.758 168.329 127.547 168.533 127.273C168.736 126.998 168.876 126.664 168.952 126.271H171.409C171.348 127.043 171.12 127.727 170.727 128.324C170.334 128.916 169.799 129.38 169.122 129.716C168.445 130.047 167.65 130.213 166.736 130.213ZM178.279 130.213C177.19 130.213 176.255 129.974 175.473 129.496C174.697 129.018 174.098 128.357 173.676 127.514C173.26 126.667 173.051 125.691 173.051 124.588C173.051 123.48 173.265 122.502 173.691 121.655C174.117 120.803 174.718 120.14 175.495 119.666C176.276 119.188 177.199 118.949 178.265 118.949C179.15 118.949 179.934 119.112 180.615 119.439C181.302 119.761 181.849 120.218 182.256 120.81C182.663 121.397 182.895 122.083 182.952 122.869H180.495C180.395 122.344 180.158 121.906 179.784 121.555C179.415 121.2 178.92 121.023 178.3 121.023C177.775 121.023 177.313 121.165 176.915 121.449C176.517 121.728 176.207 122.131 175.985 122.656C175.767 123.182 175.658 123.812 175.658 124.545C175.658 125.289 175.767 125.928 175.985 126.463C176.203 126.993 176.508 127.403 176.901 127.692C177.299 127.976 177.765 128.118 178.3 128.118C178.679 128.118 179.017 128.047 179.316 127.905C179.619 127.758 179.872 127.547 180.076 127.273C180.279 126.998 180.419 126.664 180.495 126.271H182.952C182.891 127.043 182.663 127.727 182.27 128.324C181.877 128.916 181.342 129.38 180.665 129.716C179.988 130.047 179.193 130.213 178.279 130.213ZM189.893 130.213C188.799 130.213 187.854 129.986 187.059 129.531C186.268 129.072 185.66 128.423 185.234 127.585C184.808 126.742 184.594 125.75 184.594 124.609C184.594 123.487 184.808 122.502 185.234 121.655C185.665 120.803 186.266 120.14 187.038 119.666C187.809 119.188 188.716 118.949 189.758 118.949C190.43 118.949 191.065 119.058 191.661 119.276C192.263 119.489 192.793 119.82 193.252 120.27C193.716 120.72 194.081 121.293 194.346 121.989C194.611 122.68 194.744 123.504 194.744 124.46V125.249H185.802V123.516H192.279C192.274 123.023 192.168 122.585 191.96 122.202C191.751 121.813 191.46 121.508 191.086 121.286C190.717 121.063 190.286 120.952 189.793 120.952C189.268 120.952 188.806 121.08 188.408 121.335C188.011 121.586 187.701 121.918 187.478 122.33C187.26 122.737 187.149 123.184 187.144 123.672V125.185C187.144 125.819 187.26 126.364 187.492 126.818C187.724 127.268 188.049 127.614 188.465 127.855C188.882 128.092 189.37 128.21 189.928 128.21C190.302 128.21 190.641 128.158 190.944 128.054C191.247 127.945 191.51 127.786 191.732 127.578C191.955 127.37 192.123 127.112 192.237 126.804L194.637 127.074C194.486 127.708 194.197 128.262 193.771 128.736C193.349 129.205 192.809 129.569 192.151 129.83C191.493 130.085 190.74 130.213 189.893 130.213ZM205.541 121.974L203.197 122.23C203.131 121.993 203.015 121.771 202.849 121.562C202.688 121.354 202.47 121.186 202.196 121.058C201.921 120.93 201.585 120.866 201.187 120.866C200.652 120.866 200.202 120.982 199.838 121.214C199.478 121.446 199.3 121.747 199.305 122.116C199.3 122.434 199.416 122.692 199.653 122.891C199.895 123.089 200.292 123.253 200.846 123.381L202.707 123.778C203.739 124.001 204.506 124.354 205.008 124.837C205.515 125.32 205.77 125.952 205.775 126.733C205.77 127.42 205.569 128.026 205.172 128.551C204.779 129.072 204.232 129.479 203.531 129.773C202.83 130.066 202.025 130.213 201.116 130.213C199.781 130.213 198.706 129.934 197.892 129.375C197.077 128.812 196.592 128.028 196.436 127.024L198.943 126.783C199.056 127.275 199.298 127.647 199.667 127.898C200.037 128.149 200.517 128.274 201.109 128.274C201.72 128.274 202.21 128.149 202.579 127.898C202.953 127.647 203.14 127.337 203.14 126.967C203.14 126.655 203.02 126.397 202.778 126.193C202.541 125.99 202.172 125.833 201.67 125.724L199.809 125.334C198.763 125.116 197.989 124.749 197.487 124.233C196.985 123.712 196.736 123.054 196.741 122.259C196.736 121.586 196.919 121.004 197.288 120.511C197.662 120.014 198.181 119.631 198.843 119.361C199.511 119.086 200.28 118.949 201.152 118.949C202.43 118.949 203.436 119.221 204.17 119.766C204.909 120.31 205.366 121.046 205.541 121.974ZM216.517 121.974L214.174 122.23C214.107 121.993 213.991 121.771 213.826 121.562C213.665 121.354 213.447 121.186 213.172 121.058C212.898 120.93 212.561 120.866 212.164 120.866C211.629 120.866 211.179 120.982 210.814 121.214C210.454 121.446 210.277 121.747 210.282 122.116C210.277 122.434 210.393 122.692 210.63 122.891C210.871 123.089 211.269 123.253 211.823 123.381L213.684 123.778C214.716 124.001 215.483 124.354 215.985 124.837C216.491 125.32 216.747 125.952 216.752 126.733C216.747 127.42 216.546 128.026 216.148 128.551C215.755 129.072 215.208 129.479 214.507 129.773C213.807 130.066 213.002 130.213 212.093 130.213C210.757 130.213 209.683 129.934 208.868 129.375C208.054 128.812 207.569 128.028 207.412 127.024L209.919 126.783C210.033 127.275 210.275 127.647 210.644 127.898C211.013 128.149 211.494 128.274 212.086 128.274C212.696 128.274 213.186 128.149 213.556 127.898C213.93 127.647 214.117 127.337 214.117 126.967C214.117 126.655 213.996 126.397 213.755 126.193C213.518 125.99 213.149 125.833 212.647 125.724L210.786 125.334C209.739 125.116 208.965 124.749 208.463 124.233C207.962 123.712 207.713 123.054 207.718 122.259C207.713 121.586 207.895 121.004 208.265 120.511C208.639 120.014 209.157 119.631 209.82 119.361C210.488 119.086 211.257 118.949 212.128 118.949C213.407 118.949 214.413 119.221 215.147 119.766C215.885 120.31 216.342 121.046 216.517 121.974ZM224.397 119.091V121.08H217.949V119.091H224.397ZM219.561 130V118.061C219.561 117.327 219.712 116.716 220.015 116.229C220.323 115.741 220.735 115.376 221.251 115.135C221.767 114.893 222.34 114.773 222.97 114.773C223.415 114.773 223.81 114.808 224.156 114.879C224.502 114.95 224.757 115.014 224.923 115.071L224.412 117.06C224.303 117.027 224.165 116.993 224 116.96C223.834 116.922 223.649 116.903 223.446 116.903C222.967 116.903 222.629 117.019 222.43 117.251C222.236 117.479 222.139 117.805 222.139 118.232V130H219.561ZM233.364 125.412V119.091H235.935V130H233.442V128.061H233.328C233.082 128.672 232.677 129.171 232.114 129.56C231.555 129.948 230.866 130.142 230.047 130.142C229.332 130.142 228.7 129.983 228.151 129.666C227.606 129.344 227.18 128.878 226.873 128.267C226.565 127.652 226.411 126.908 226.411 126.037V119.091H228.982V125.639C228.982 126.33 229.171 126.88 229.55 127.287C229.929 127.694 230.426 127.898 231.042 127.898C231.42 127.898 231.787 127.805 232.142 127.621C232.498 127.436 232.789 127.161 233.016 126.797C233.248 126.428 233.364 125.966 233.364 125.412ZM241.15 115.455V130H238.579V115.455H241.15ZM246.365 115.455V130H243.794V115.455H246.365ZM250.607 134.091C250.256 134.091 249.932 134.063 249.634 134.006C249.34 133.954 249.106 133.892 248.93 133.821L249.527 131.818C249.901 131.927 250.235 131.979 250.528 131.974C250.822 131.97 251.08 131.877 251.303 131.697C251.53 131.522 251.722 131.229 251.878 130.817L252.098 130.227L248.142 119.091H250.869L253.384 127.33H253.497L256.018 119.091H258.753L254.385 131.321C254.181 131.899 253.911 132.393 253.575 132.805C253.239 133.222 252.827 133.539 252.339 133.757C251.857 133.98 251.279 134.091 250.607 134.091ZM270.251 130.213C269.162 130.213 268.227 129.974 267.446 129.496C266.67 129.018 266.071 128.357 265.649 127.514C265.232 126.667 265.024 125.691 265.024 124.588C265.024 123.48 265.237 122.502 265.663 121.655C266.089 120.803 266.691 120.14 267.467 119.666C268.249 119.188 269.172 118.949 270.237 118.949C271.123 118.949 271.906 119.112 272.588 119.439C273.275 119.761 273.821 120.218 274.229 120.81C274.636 121.397 274.868 122.083 274.925 122.869H272.467C272.368 122.344 272.131 121.906 271.757 121.555C271.388 121.2 270.893 121.023 270.273 121.023C269.747 121.023 269.286 121.165 268.888 121.449C268.49 121.728 268.18 122.131 267.957 122.656C267.74 123.182 267.631 123.812 267.631 124.545C267.631 125.289 267.74 125.928 267.957 126.463C268.175 126.993 268.481 127.403 268.874 127.692C269.271 127.976 269.738 128.118 270.273 128.118C270.652 128.118 270.99 128.047 271.288 127.905C271.591 127.758 271.845 127.547 272.048 127.273C272.252 126.998 272.392 126.664 272.467 126.271H274.925C274.863 127.043 274.636 127.727 274.243 128.324C273.85 128.916 273.315 129.38 272.638 129.716C271.961 130.047 271.165 130.213 270.251 130.213ZM281.794 130.213C280.729 130.213 279.806 129.979 279.025 129.51C278.243 129.041 277.637 128.385 277.206 127.543C276.78 126.7 276.567 125.715 276.567 124.588C276.567 123.461 276.78 122.474 277.206 121.626C277.637 120.779 278.243 120.121 279.025 119.652C279.806 119.183 280.729 118.949 281.794 118.949C282.86 118.949 283.783 119.183 284.564 119.652C285.346 120.121 285.949 120.779 286.375 121.626C286.806 122.474 287.022 123.461 287.022 124.588C287.022 125.715 286.806 126.7 286.375 127.543C285.949 128.385 285.346 129.041 284.564 129.51C283.783 129.979 282.86 130.213 281.794 130.213ZM281.809 128.153C282.386 128.153 282.869 127.995 283.257 127.678C283.646 127.356 283.935 126.925 284.124 126.385C284.318 125.845 284.415 125.244 284.415 124.581C284.415 123.913 284.318 123.31 284.124 122.77C283.935 122.225 283.646 121.792 283.257 121.47C282.869 121.148 282.386 120.987 281.809 120.987C281.217 120.987 280.724 121.148 280.331 121.47C279.943 121.792 279.652 122.225 279.458 122.77C279.268 123.31 279.174 123.913 279.174 124.581C279.174 125.244 279.268 125.845 279.458 126.385C279.652 126.925 279.943 127.356 280.331 127.678C280.724 127.995 281.217 128.153 281.809 128.153ZM289.204 130V119.091H291.661V120.945H291.789C292.016 120.32 292.393 119.832 292.918 119.482C293.444 119.126 294.071 118.949 294.8 118.949C295.539 118.949 296.162 119.129 296.668 119.489C297.18 119.844 297.54 120.329 297.748 120.945H297.862C298.103 120.339 298.51 119.856 299.083 119.496C299.661 119.131 300.345 118.949 301.136 118.949C302.139 118.949 302.959 119.266 303.593 119.901C304.228 120.535 304.545 121.461 304.545 122.678V130H301.967V123.075C301.967 122.398 301.787 121.903 301.427 121.591C301.067 121.274 300.627 121.115 300.106 121.115C299.486 121.115 299 121.309 298.65 121.697C298.304 122.081 298.131 122.58 298.131 123.196V130H295.61V122.969C295.61 122.405 295.44 121.955 295.099 121.619C294.763 121.283 294.322 121.115 293.778 121.115C293.408 121.115 293.072 121.21 292.769 121.399C292.466 121.584 292.225 121.847 292.045 122.188C291.865 122.524 291.775 122.917 291.775 123.366V130H289.204ZM307.153 134.091V119.091H309.681V120.895H309.831C309.963 120.63 310.15 120.348 310.392 120.05C310.633 119.747 310.96 119.489 311.372 119.276C311.784 119.058 312.309 118.949 312.949 118.949C313.791 118.949 314.551 119.164 315.228 119.595C315.91 120.021 316.45 120.653 316.848 121.491C317.25 122.325 317.451 123.348 317.451 124.56C317.451 125.758 317.255 126.776 316.862 127.614C316.469 128.452 315.934 129.091 315.257 129.531C314.58 129.972 313.813 130.192 312.956 130.192C312.331 130.192 311.812 130.088 311.4 129.879C310.988 129.671 310.657 129.42 310.406 129.126C310.16 128.828 309.968 128.546 309.831 128.281H309.724V134.091H307.153ZM309.674 124.545C309.674 125.251 309.774 125.869 309.973 126.399C310.176 126.929 310.467 127.344 310.846 127.642C311.23 127.936 311.694 128.082 312.238 128.082C312.806 128.082 313.282 127.931 313.666 127.628C314.049 127.32 314.338 126.901 314.532 126.371C314.731 125.836 314.831 125.227 314.831 124.545C314.831 123.868 314.734 123.267 314.539 122.741C314.345 122.216 314.056 121.804 313.673 121.506C313.289 121.207 312.811 121.058 312.238 121.058C311.689 121.058 311.223 121.203 310.839 121.491C310.456 121.78 310.164 122.185 309.966 122.706C309.771 123.227 309.674 123.84 309.674 124.545ZM322.224 115.455V130H319.653V115.455H322.224ZM329.697 130.213C328.604 130.213 327.659 129.986 326.864 129.531C326.073 129.072 325.464 128.423 325.038 127.585C324.612 126.742 324.399 125.75 324.399 124.609C324.399 123.487 324.612 122.502 325.038 121.655C325.469 120.803 326.071 120.14 326.842 119.666C327.614 119.188 328.521 118.949 329.562 118.949C330.235 118.949 330.869 119.058 331.466 119.276C332.067 119.489 332.598 119.82 333.057 120.27C333.521 120.72 333.885 121.293 334.151 121.989C334.416 122.68 334.548 123.504 334.548 124.46V125.249H325.607V123.516H332.084C332.079 123.023 331.973 122.585 331.764 122.202C331.556 121.813 331.265 121.508 330.891 121.286C330.521 121.063 330.09 120.952 329.598 120.952C329.072 120.952 328.611 121.08 328.213 121.335C327.815 121.586 327.505 121.918 327.283 122.33C327.065 122.737 326.954 123.184 326.949 123.672V125.185C326.949 125.819 327.065 126.364 327.297 126.818C327.529 127.268 327.853 127.614 328.27 127.855C328.687 128.092 329.174 128.21 329.733 128.21C330.107 128.21 330.446 128.158 330.749 128.054C331.052 127.945 331.314 127.786 331.537 127.578C331.759 127.37 331.928 127.112 332.041 126.804L334.442 127.074C334.29 127.708 334.001 128.262 333.575 128.736C333.154 129.205 332.614 129.569 331.956 129.83C331.298 130.085 330.545 130.213 329.697 130.213ZM342.171 119.091V121.08H335.9V119.091H342.171ZM337.448 116.477H340.019V126.719C340.019 127.064 340.071 127.33 340.175 127.514C340.284 127.694 340.426 127.817 340.601 127.884C340.776 127.95 340.971 127.983 341.184 127.983C341.345 127.983 341.491 127.971 341.624 127.947C341.761 127.924 341.865 127.902 341.936 127.884L342.37 129.893C342.232 129.941 342.036 129.993 341.78 130.05C341.529 130.107 341.221 130.14 340.857 130.149C340.213 130.168 339.633 130.071 339.117 129.858C338.601 129.64 338.191 129.304 337.888 128.849C337.59 128.395 337.443 127.827 337.448 127.145V116.477ZM349.033 130.213C347.94 130.213 346.995 129.986 346.2 129.531C345.409 129.072 344.8 128.423 344.374 127.585C343.948 126.742 343.735 125.75 343.735 124.609C343.735 123.487 343.948 122.502 344.374 121.655C344.805 120.803 345.406 120.14 346.178 119.666C346.95 119.188 347.857 118.949 348.898 118.949C349.571 118.949 350.205 119.058 350.802 119.276C351.403 119.489 351.933 119.82 352.393 120.27C352.857 120.72 353.221 121.293 353.487 121.989C353.752 122.68 353.884 123.504 353.884 124.46V125.249H344.942V123.516H351.42C351.415 123.023 351.308 122.585 351.1 122.202C350.892 121.813 350.601 121.508 350.227 121.286C349.857 121.063 349.426 120.952 348.934 120.952C348.408 120.952 347.947 121.08 347.549 121.335C347.151 121.586 346.841 121.918 346.619 122.33C346.401 122.737 346.29 123.184 346.285 123.672V125.185C346.285 125.819 346.401 126.364 346.633 126.818C346.865 127.268 347.189 127.614 347.606 127.855C348.022 128.092 348.51 128.21 349.069 128.21C349.443 128.21 349.781 128.158 350.085 128.054C350.388 127.945 350.65 127.786 350.873 127.578C351.095 127.37 351.263 127.112 351.377 126.804L353.778 127.074C353.626 127.708 353.337 128.262 352.911 128.736C352.49 129.205 351.95 129.569 351.292 129.83C350.634 130.085 349.881 130.213 349.033 130.213ZM360.108 130.192C359.251 130.192 358.484 129.972 357.806 129.531C357.129 129.091 356.594 128.452 356.201 127.614C355.808 126.776 355.612 125.758 355.612 124.56C355.612 123.348 355.811 122.325 356.208 121.491C356.611 120.653 357.153 120.021 357.835 119.595C358.517 119.164 359.277 118.949 360.115 118.949C360.754 118.949 361.279 119.058 361.691 119.276C362.103 119.489 362.43 119.747 362.672 120.05C362.913 120.348 363.1 120.63 363.233 120.895H363.339V115.455H365.917V130H363.389V128.281H363.233C363.1 128.546 362.908 128.828 362.657 129.126C362.406 129.42 362.075 129.671 361.663 129.879C361.251 130.088 360.733 130.192 360.108 130.192ZM360.825 128.082C361.369 128.082 361.833 127.936 362.217 127.642C362.6 127.344 362.892 126.929 363.091 126.399C363.289 125.869 363.389 125.251 363.389 124.545C363.389 123.84 363.289 123.227 363.091 122.706C362.896 122.185 362.608 121.78 362.224 121.491C361.845 121.203 361.379 121.058 360.825 121.058C360.252 121.058 359.774 121.207 359.39 121.506C359.007 121.804 358.718 122.216 358.524 122.741C358.33 123.267 358.233 123.868 358.233 124.545C358.233 125.227 358.33 125.836 358.524 126.371C358.723 126.901 359.014 127.32 359.397 127.628C359.786 127.931 360.261 128.082 360.825 128.082ZM371.803 115.455L371.569 125.724H369.282L369.055 115.455H371.803ZM370.425 130.156C369.995 130.156 369.625 130.005 369.317 129.702C369.014 129.399 368.863 129.029 368.863 128.594C368.863 128.168 369.014 127.803 369.317 127.5C369.625 127.197 369.995 127.045 370.425 127.045C370.847 127.045 371.211 127.197 371.519 127.5C371.832 127.803 371.988 128.168 371.988 128.594C371.988 128.883 371.915 129.145 371.768 129.382C371.626 129.619 371.436 129.808 371.2 129.95C370.968 130.088 370.71 130.156 370.425 130.156Z" fill="#535353"/>
<path d="M187.659 147.953V154.242H186.579V151.084H183.872V150.195H186.579V147.953H187.659ZM187.659 154.857V157.756H180.864V159.082H188.11V159.943H179.812V156.936H186.593V155.719H179.784V154.857H187.659ZM181.726 149.498C181.712 151.098 182.97 152.547 184.747 153.135L184.173 153.969C182.826 153.49 181.753 152.533 181.22 151.303C180.7 152.69 179.6 153.75 178.157 154.27L177.569 153.408C179.401 152.807 180.659 151.275 180.673 149.498V148.35H181.726V149.498ZM199.759 147.953V155.199H198.679V152.014H196.231V151.125H198.679V147.953H199.759ZM195.726 155.582C198.255 155.582 199.8 156.402 199.8 157.838C199.8 159.273 198.255 160.094 195.726 160.107C193.196 160.094 191.651 159.273 191.651 157.838C191.651 156.402 193.196 155.582 195.726 155.582ZM195.726 156.416C193.866 156.416 192.704 156.949 192.718 157.838C192.704 158.713 193.866 159.246 195.726 159.246C197.585 159.246 198.733 158.713 198.733 157.838C198.733 156.949 197.585 156.416 195.726 156.416ZM193.907 150.182C193.907 151.768 195.124 153.271 196.901 153.887L196.341 154.748C194.974 154.256 193.914 153.237 193.401 151.973C192.868 153.401 191.74 154.543 190.298 155.09L189.737 154.229C191.542 153.572 192.827 151.932 192.827 150.195V149.744H190.079V148.842H196.628V149.744H193.907V150.182ZM211.188 147.953V152.971H213.226V153.859H211.188V160.107H210.122V147.953H211.188ZM208.946 149.908V150.797H201.714V149.908H204.845V148.104H205.911V149.908H208.946ZM205.392 151.809C207.114 151.809 208.358 152.957 208.372 154.598C208.358 156.238 207.114 157.387 205.392 157.387C203.655 157.387 202.397 156.238 202.411 154.598C202.397 152.957 203.655 151.809 205.392 151.809ZM205.392 152.711C204.257 152.711 203.423 153.504 203.437 154.598C203.423 155.705 204.257 156.484 205.392 156.471C206.513 156.484 207.333 155.705 207.347 154.598C207.333 153.504 206.513 152.711 205.392 152.711ZM223.917 147.967V156.881H222.851V147.967H223.917ZM224.3 158.945V159.848H216.069V156.061H217.136V158.945H224.3ZM218.188 149.867C218.175 151.713 219.446 153.381 221.251 154.037L220.69 154.898C219.282 154.358 218.188 153.265 217.655 151.863C217.115 153.354 216.008 154.55 214.593 155.117L214.005 154.283C215.851 153.572 217.095 151.781 217.095 149.867V148.65H218.188V149.867ZM233.815 151.221C233.802 153.436 235.319 155.678 237.11 156.484L236.454 157.332C235.073 156.655 233.877 155.227 233.296 153.49C232.729 155.329 231.532 156.86 230.11 157.578L229.427 156.676C231.231 155.842 232.735 153.531 232.749 151.221V149.006H233.815V151.221ZM239.517 147.953V160.135H238.437V147.953H239.517ZM251.097 147.953V151.658H252.929V152.561H251.097V156.854H250.017V147.953H251.097ZM247.815 148.896C247.815 152.027 245.573 154.352 242.073 155.445L241.608 154.584C244.521 153.675 246.421 151.938 246.653 149.799H242.114V148.896H247.815ZM251.657 158.945V159.848H243.481V155.951H244.548V158.945H251.657ZM263.716 147.953V160.135H262.636V147.953H263.716ZM257.249 148.896C259.054 148.91 260.353 150.551 260.353 153.135C260.353 155.719 259.054 157.359 257.249 157.359C255.431 157.359 254.146 155.719 254.146 153.135C254.146 150.551 255.431 148.91 257.249 148.896ZM257.249 149.854C256.032 149.867 255.185 151.152 255.185 153.135C255.185 155.117 256.032 156.402 257.249 156.402C258.466 156.402 259.313 155.117 259.313 153.135C259.313 151.152 258.466 149.867 257.249 149.854ZM273.655 151.686C273.655 153.75 275.159 155.842 276.95 156.621L276.349 157.469C274.927 156.819 273.696 155.418 273.136 153.736C272.562 155.521 271.338 157.072 269.95 157.77L269.308 156.922C271.044 156.088 272.562 153.791 272.575 151.686V150.1H269.704V149.211H276.554V150.1H273.655V151.686ZM279.329 147.953V160.107H278.249V147.953H279.329ZM290.909 147.967V150.852H292.755V151.754H290.909V154.762H289.843V147.967H290.909ZM283.075 148.719V153.094C284.805 153.087 286.589 152.95 288.558 152.561L288.694 153.449C286.63 153.859 284.798 153.996 282.966 153.996H281.995V148.719H283.075ZM285.413 156.156C285.413 157.243 285.98 158.405 287.136 159.068C288.312 158.351 288.886 157.093 288.899 156.156V155.268H289.952V156.156C289.952 157.428 290.854 158.686 292.427 159.219L291.88 160.025C290.67 159.588 289.829 158.727 289.419 157.701C289.043 158.692 288.312 159.643 287.163 160.135C285.974 159.67 285.235 158.761 284.88 157.729C284.449 158.72 283.622 159.574 282.474 160.025L281.927 159.219C283.444 158.658 284.401 157.332 284.401 156.156V155.268H285.413V156.156ZM295.981 155.254V156.676H302.052V155.254H303.132V159.943H294.915V155.254H295.981ZM295.981 159.082H302.052V157.523H295.981V159.082ZM304.581 153.504V154.393H293.507V153.504H304.581ZM299.604 148.664C299.604 150.168 301.819 151.508 303.952 151.781L303.556 152.643C301.669 152.362 299.823 151.398 299.058 150.031C298.278 151.405 296.419 152.362 294.546 152.643L294.136 151.781C296.296 151.494 298.497 150.209 298.497 148.664V148.09H299.604V148.664ZM315.628 147.953V160.107H314.562V147.953H315.628ZM307.452 149.156V156.047C309.305 156.04 311.226 155.89 313.263 155.459L313.413 156.375C311.253 156.826 309.325 156.977 307.384 156.977H306.399V149.156H307.452ZM327.112 147.953V152.766H329.149V153.668H327.112V160.135H326.046V147.953H327.112ZM323.913 149.143V150.031H319.306V156.184C321.507 156.184 323.065 156.081 324.87 155.746L325.007 156.676C323.106 157.018 321.507 157.086 319.196 157.086H318.239V149.143H323.913ZM331.774 149.102L331.679 156.211H330.53L330.435 149.102H331.774ZM331.104 159.082C330.626 159.082 330.216 158.686 330.229 158.193C330.216 157.715 330.626 157.318 331.104 157.318C331.583 157.318 331.979 157.715 331.979 158.193C331.979 158.686 331.583 159.082 331.104 159.082ZM158.333 169.953V182.135H157.253V169.953H158.333ZM151.866 170.896C153.671 170.91 154.97 172.551 154.97 175.135C154.97 177.719 153.671 179.359 151.866 179.359C150.048 179.359 148.763 177.719 148.763 175.135C148.763 172.551 150.048 170.91 151.866 170.896ZM151.866 171.854C150.649 171.867 149.802 173.152 149.802 175.135C149.802 177.117 150.649 178.402 151.866 178.402C153.083 178.402 153.931 177.117 153.931 175.135C153.931 173.152 153.083 171.867 151.866 171.854ZM170.802 169.953V182.107H169.776V169.953H170.802ZM168.341 170.254V181.479H167.329V175.217H165.278V174.342H167.329V170.254H168.341ZM163.979 173.426C163.979 175.531 164.923 177.623 166.604 178.594L165.948 179.387C164.752 178.669 163.904 177.356 163.487 175.805C163.043 177.479 162.161 178.908 160.944 179.674L160.261 178.867C161.956 177.855 162.94 175.641 162.94 173.426V172.277H160.603V171.389H166.208V172.277H163.979V173.426ZM185.854 173.658V174.533H177.556V170.418H178.622V173.658H185.854ZM187.112 175.969V176.857H182.19V179.373H181.124V176.857H176.024V175.969H187.112ZM185.937 180.945V181.848H177.446V178.293H178.513V180.945H185.937ZM197.694 171.744C197.694 173.822 200.073 175.682 202.192 176.078L201.7 176.98C199.868 176.557 197.934 175.251 197.147 173.453C196.361 175.244 194.434 176.55 192.595 176.98L192.103 176.078C194.208 175.668 196.573 173.836 196.573 171.744V170.814H197.694V171.744ZM202.767 179.564V180.453H191.638V179.564H202.767ZM213.581 176.529V177.404H205.173V171.006H213.444V171.908H206.267V173.713H213.185V174.574H206.267V176.529H213.581ZM214.866 179.633V180.521H203.737V179.633H214.866ZM220.581 171.307V175.504H217.286V178.211C218.688 178.204 220.014 178.156 221.634 177.869L221.716 178.758C219.979 179.072 218.599 179.1 217.054 179.113H216.247V174.615H219.556V172.195H216.22V171.307H220.581ZM226.228 169.953V182.107H225.202V169.953H226.228ZM223.739 170.254V181.465H222.728V175.217H221.169V174.342H222.728V170.254H223.739ZM232.353 172.496C232.353 174.041 233.679 175.408 235.497 175.928L234.991 176.762C233.556 176.338 232.407 175.415 231.847 174.205C231.313 175.538 230.179 176.584 228.716 177.076L228.183 176.229C229.987 175.654 231.286 174.164 231.286 172.496V172.332H228.483V171.471H231.286V169.953H232.366V171.471H235.142V172.332H232.353V172.496ZM237.972 169.967V177.418H236.905V169.967H237.972ZM233.911 177.678C236.454 177.664 237.999 178.471 238.013 179.865C237.999 181.287 236.454 182.08 233.911 182.08C231.354 182.08 229.81 181.287 229.81 179.865C229.81 178.471 231.354 177.664 233.911 177.678ZM233.911 178.525C232.011 178.525 230.89 179.031 230.89 179.865C230.89 180.727 232.011 181.232 233.911 181.232C235.798 181.232 236.946 180.727 236.946 179.865C236.946 179.031 235.798 178.525 233.911 178.525ZM245.573 170.172C248.28 170.172 249.866 170.91 249.866 172.264C249.866 173.645 248.28 174.383 245.573 174.396C242.866 174.383 241.267 173.645 241.267 172.264C241.267 170.91 242.866 170.172 245.573 170.172ZM245.573 170.979C243.55 170.979 242.374 171.471 242.388 172.264C242.374 173.111 243.55 173.576 245.573 173.576C247.583 173.576 248.772 173.111 248.772 172.264C248.772 171.471 247.583 170.979 245.573 170.979ZM251.11 175.217V176.092H240.036V175.217H251.11ZM249.688 177.145V179.865H242.47V181.123H250.058V181.971H241.403V179.072H248.636V177.965H241.376V177.145H249.688ZM259.97 173.221C259.956 175.436 261.474 177.678 263.265 178.484L262.608 179.332C261.228 178.655 260.031 177.227 259.45 175.49C258.883 177.329 257.687 178.86 256.265 179.578L255.581 178.676C257.386 177.842 258.89 175.531 258.903 173.221V171.006H259.97V173.221ZM265.671 169.953V182.135H264.591V169.953H265.671ZM277.251 169.953V173.658H279.083V174.561H277.251V178.854H276.171V169.953H277.251ZM273.97 170.896C273.97 174.027 271.728 176.352 268.228 177.445L267.763 176.584C270.675 175.675 272.575 173.938 272.808 171.799H268.269V170.896H273.97ZM277.812 180.945V181.848H269.636V177.951H270.702V180.945H277.812ZM285.386 170.172C288.093 170.172 289.679 170.91 289.679 172.264C289.679 173.645 288.093 174.383 285.386 174.396C282.679 174.383 281.079 173.645 281.079 172.264C281.079 170.91 282.679 170.172 285.386 170.172ZM285.386 170.979C283.362 170.979 282.187 171.471 282.2 172.264C282.187 173.111 283.362 173.576 285.386 173.576C287.396 173.576 288.585 173.111 288.585 172.264C288.585 171.471 287.396 170.979 285.386 170.979ZM290.923 175.217V176.092H279.849V175.217H290.923ZM289.501 177.145V179.865H282.282V181.123H289.87V181.971H281.216V179.072H288.448V177.965H281.188V177.145H289.501ZM304.868 169.953V174.902H306.837V175.805H304.868V182.107H303.802V169.953H304.868ZM301.724 171.266C301.724 174.711 300.11 177.842 296.146 179.797L295.544 178.949C298.688 177.384 300.397 175.046 300.644 172.168H296.104V171.266H301.724ZM317.638 169.953V182.107H316.558V176.871H314.069V175.969H316.558V174.287H314.069V173.385H316.558V169.953H317.638ZM311.772 173.562C311.772 175.463 313.222 177.76 314.958 178.635L314.315 179.455C312.989 178.765 311.82 177.261 311.267 175.586C310.72 177.425 309.53 179.011 308.19 179.756L307.479 178.936C309.216 178.074 310.679 175.736 310.692 173.562V172.1H307.917V171.211H314.548V172.1H311.772V173.562ZM322.204 170.158V171.32H328.22V170.158H329.286V174.15H325.704V175.354H330.735V176.229H319.661V175.354H324.651V174.15H321.138V170.158H322.204ZM322.204 173.316H328.22V172.141H322.204V173.316ZM329.313 177.24V179.934H322.095V181.123H329.683V181.971H321.028V179.141H328.261V178.061H321.001V177.24H329.313ZM341.386 169.953V174.971H343.231V175.873H341.386V182.107H340.306V169.953H341.386ZM335.452 171.279C335.438 174.178 334.782 177.021 332.581 179.359L331.72 178.744C333.559 176.864 334.297 174.602 334.44 172.182H332.103V171.279H335.452ZM338.788 171.279C338.774 174.164 338.351 177.514 336.081 180.166L335.206 179.564C337.106 177.418 337.681 174.718 337.776 172.182H335.835V171.279H338.788ZM354.989 179.646V180.549H343.86V179.646H346.622V176.365C345.583 175.825 344.954 174.95 344.954 173.85C344.954 171.963 346.8 170.732 349.397 170.719C351.995 170.732 353.841 171.963 353.841 173.85C353.841 174.93 353.232 175.798 352.228 176.338V179.646H354.989ZM349.397 171.607C347.401 171.594 345.993 172.496 345.993 173.85C345.993 175.203 347.401 176.119 349.397 176.119C351.38 176.119 352.802 175.203 352.802 173.85C352.802 172.496 351.38 171.594 349.397 171.607ZM347.675 179.646H351.147V176.748C350.621 176.892 350.033 176.967 349.397 176.967C348.775 176.967 348.194 176.898 347.675 176.762V179.646ZM357.901 178.143C357.915 176.311 358.476 175.75 359.419 175.176C359.979 174.834 360.417 174.287 360.417 173.521C360.417 172.592 359.692 172.004 358.79 172.004C358.011 172.004 357.231 172.469 357.149 173.59H355.905C355.974 171.936 357.231 170.965 358.79 170.965C360.499 170.965 361.62 172.072 361.62 173.576C361.62 174.643 361.114 175.395 360.267 175.914C359.419 176.434 359.104 176.953 359.077 178.143V178.211H357.901V178.143ZM358.53 181.082C358.052 181.082 357.642 180.686 357.655 180.193C357.642 179.715 358.052 179.318 358.53 179.318C359.009 179.318 359.405 179.715 359.405 180.193C359.405 180.686 359.009 181.082 358.53 181.082Z" fill="#54595E" fill-opacity="0.6"/>
<rect x="61" y="211" width="388" height="44" rx="8" fill="#1B32FF"/>
<path d="M248.531 227.172C248.531 229.125 251.094 230.828 253.594 231.172L253.094 232.172C250.938 231.812 248.805 230.617 247.906 228.906C247.016 230.625 244.875 231.812 242.719 232.172L242.219 231.172C244.719 230.828 247.266 229.156 247.266 227.172V226.375H248.531V227.172ZM254.219 233.703V234.734H248.469V239.766H247.266V234.734H241.562V233.703H254.219ZM262.281 226.719V230.547H257.219V232.562C259.688 232.562 261.477 232.477 263.641 232.109L263.766 233.125C261.531 233.5 259.672 233.578 257.094 233.578H256.016V229.578H261.078V227.719H255.984V226.719H262.281ZM266.25 225.891V229.453H268.359V230.484H266.25V234.328H265.031V225.891H266.25ZM266.25 235.062V239.766H265.031V236.062H257.156V235.062H266.25Z" fill="white"/>
<rect x="61.5" y="271.5" width="387" height="43" rx="7.5" fill="white"/>
<rect x="61.5" y="271.5" width="387" height="43" rx="7.5" stroke="#1B32FF"/>
<path d="M246.797 288.5C246.797 289.906 248.188 291.094 250.156 291.531L249.656 292.516C248.055 292.125 246.82 291.273 246.219 290.141C245.617 291.367 244.367 292.297 242.719 292.703L242.188 291.719C244.188 291.281 245.578 289.984 245.578 288.5V288.438H242.484V287.469H245.578V285.922H246.797V287.469H249.891V288.438H246.797V288.5ZM253.016 285.891V299.781H251.812V285.891H253.016ZM241.531 293.688C244.188 293.688 247.719 293.656 250.797 293.266L250.875 294.156C249.547 294.375 248.172 294.508 246.828 294.578V299.359H245.609V294.641C244.203 294.711 242.867 294.719 241.703 294.719L241.531 293.688ZM268.109 296.938V297.953H255.391V296.938H261.078V293.531H262.281V296.938H268.109ZM262.312 287.891C262.312 290.219 265.062 292.25 267.484 292.672L266.938 293.688C264.82 293.258 262.586 291.82 261.688 289.812C260.773 291.812 258.555 293.258 256.438 293.688L255.891 292.672C258.312 292.25 261.031 290.219 261.031 287.891V286.828H262.312V287.891Z" fill="#1B32FF"/>
</g>
<rect x="453" y="13" width="24" height="24" rx="12" fill="#BBBBBB"/>
<path d="M465 23.8891L468.889 20L470 21.1109L466.111 25L470 28.8891L468.889 30L465 26.1109L461.111 30L460 28.8891L463.889 25L460 21.1109L461.111 20L465 23.8891Z" fill="#2E3338"/>
</g>
<defs>
<filter id="filter0_d_315_7454" x="16.5" y="2.5" width="477.5" height="378.5" filterUnits="userSpaceOnUse" color-interpolation-filters="sRGB">
<feFlood flood-opacity="0" result="BackgroundImageFix"/>
<feColorMatrix in="SourceAlpha" type="matrix" values="0 0 0 0 0 0 0 0 0 0 0 0 0 0 0 0 0 0 127 0" result="hardAlpha"/>
<feOffset dy="4"/>
<feGaussianBlur stdDeviation="2"/>
<feComposite in2="hardAlpha" operator="out"/>
<feColorMatrix type="matrix" values="0 0 0 0 0 0 0 0 0 0 0 0 0 0 0 0 0 0 0.25 0"/>
<feBlend mode="normal" in2="BackgroundImageFix" result="effect1_dropShadow_315_7454"/>
<feBlend mode="normal" in="SourceGraphic" in2="effect1_dropShadow_315_7454" result="shape"/>
</filter>
<filter id="filter1_dd_315_7454" x="0.5" y="0.5" width="509" height="391" filterUnits="userSpaceOnUse" color-interpolation-filters="sRGB">
<feFlood flood-opacity="0" result="BackgroundImageFix"/>
<feColorMatrix in="SourceAlpha" type="matrix" values="0 0 0 0 0 0 0 0 0 0 0 0 0 0 0 0 0 0 127 0" result="hardAlpha"/>
<feOffset dy="20"/>
<feGaussianBlur stdDeviation="10"/>
<feColorMatrix type="matrix" values="0 0 0 0 0 0 0 0 0 0 0 0 0 0 0 0 0 0 0.08 0"/>
<feBlend mode="normal" in2="BackgroundImageFix" result="effect1_dropShadow_315_7454"/>
<feColorMatrix in="SourceAlpha" type="matrix" values="0 0 0 0 0 0 0 0 0 0 0 0 0 0 0 0 0 0 127 0" result="hardAlpha"/>
<feOffset/>
<feGaussianBlur stdDeviation="1"/>
<feColorMatrix type="matrix" values="0 0 0 0 0 0 0 0 0 0 0 0 0 0 0 0 0 0 0.12 0"/>
<feBlend mode="normal" in2="effect1_dropShadow_315_7454" result="effect2_dropShadow_315_7454"/>
<feBlend mode="normal" in="SourceGraphic" in2="effect2_dropShadow_315_7454" result="shape"/>
</filter>
</defs>
</svg>
