<svg width="1078" height="548" viewBox="0 0 1078 548" fill="none" xmlns="http://www.w3.org/2000/svg">
<path d="M7.8125 381V310.297H50.3906V318.109H16.6016V341.742H47.168V349.457H16.6016V381H7.8125ZM123.242 345.648C123.242 368.012 110.059 381.977 91.9922 381.977C73.8281 381.977 60.7422 368.012 60.7422 345.648C60.7422 323.285 73.8281 309.32 91.9922 309.32C110.059 309.32 123.242 323.285 123.242 345.648ZM114.746 345.648C114.746 327.387 104.785 317.523 91.9922 317.523C79.1992 317.523 69.2383 327.387 69.2383 345.648C69.2383 363.91 79.1992 373.773 91.9922 373.773C104.785 373.773 114.746 363.91 114.746 345.648ZM184.375 332.562C182.324 322.797 173.926 317.523 164.648 317.523C151.855 317.523 141.895 327.387 141.895 345.648C141.895 363.91 151.855 373.773 164.648 373.773C173.926 373.773 182.227 368.5 184.375 358.832H193.164C190.625 373.285 179.004 381.977 164.648 381.977C146.484 381.977 133.398 368.012 133.398 345.648C133.398 323.285 146.484 309.32 164.648 309.32C178.906 309.32 190.527 317.914 193.164 332.562H184.375ZM251.758 310.297H260.547V357.074C260.547 371.625 249.707 382.27 233.008 382.27C216.309 382.27 205.469 371.625 205.469 357.074V310.297H214.258V356.391C214.258 366.645 221.387 374.066 233.008 374.066C244.727 374.066 251.758 366.645 251.758 356.391V310.297ZM314.746 328.07C313.965 321.137 307.617 317.133 299.121 317.133C289.746 317.133 283.594 322.016 283.594 328.754C283.594 336.176 291.895 338.91 297.266 340.277L304.297 342.23C311.914 344.184 324.316 348.578 324.316 361.762C324.316 373.285 315.039 382.27 298.633 382.27C283.398 382.27 273.926 374.359 273.145 362.641H282.129C282.91 370.551 290.234 374.262 298.633 374.262C308.398 374.262 315.723 369.281 315.723 361.566C315.723 354.73 309.18 352.094 301.758 349.945L293.066 347.602C281.934 344.379 275.098 338.715 275.098 329.145C275.098 317.23 285.742 309.32 299.414 309.32C313.086 309.32 322.949 317.328 323.34 328.07H314.746ZM421.777 345.648C421.777 368.012 408.594 381.977 390.527 381.977C372.363 381.977 359.277 368.012 359.277 345.648C359.277 323.285 372.363 309.32 390.527 309.32C408.594 309.32 421.777 323.285 421.777 345.648ZM413.281 345.648C413.281 327.387 403.32 317.523 390.527 317.523C377.734 317.523 367.773 327.387 367.773 345.648C367.773 363.91 377.734 373.773 390.527 373.773C403.32 373.773 413.281 363.91 413.281 345.648ZM490.82 310.297V381H482.422L444.141 325.922H443.457V381H434.668V310.297H443.164L481.445 365.473H482.129V310.297H490.82ZM525.488 310.297H535.547L554.98 343.109H555.859L575.293 310.297H585.449L559.863 351.996V381H550.977V351.996L525.488 310.297ZM651.27 345.648C651.27 368.012 638.086 381.977 620.02 381.977C601.855 381.977 588.77 368.012 588.77 345.648C588.77 323.285 601.855 309.32 620.02 309.32C638.086 309.32 651.27 323.285 651.27 345.648ZM642.773 345.648C642.773 327.387 632.812 317.523 620.02 317.523C607.227 317.523 597.266 327.387 597.266 345.648C597.266 363.91 607.227 373.773 620.02 373.773C632.812 373.773 642.773 363.91 642.773 345.648ZM710.449 310.297H719.238V357.074C719.238 371.625 708.398 382.27 691.699 382.27C675 382.27 664.16 371.625 664.16 357.074V310.297H672.949V356.391C672.949 366.645 680.078 374.066 691.699 374.066C703.418 374.066 710.449 366.645 710.449 356.391V310.297ZM734.863 381V310.297H758.887C775.488 310.297 783.008 319.477 783.008 332.074C783.008 341.4 778.809 348.773 769.824 351.898L785.742 381H775.488L760.742 353.461L758.984 353.559H743.652V381H734.863ZM743.652 345.551H758.594C769.824 345.551 774.316 340.473 774.316 332.074C774.316 323.578 769.824 318.109 758.496 318.109H743.652V345.551ZM820.801 381V310.297H829.59V373.188H862.402V381H820.801ZM882.91 310.297V381H874.121V310.297H882.91ZM898.535 381V310.297H941.113V318.109H907.324V341.742H937.891V349.457H907.324V381H898.535ZM954.199 381V310.297H997.07V318.109H962.988V341.742H994.824V349.457H962.988V373.188H997.559V381H954.199Z" fill="white"/>
<path d="M46.3867 471.07C45.6055 464.137 39.2578 460.133 30.7617 460.133C21.3867 460.133 15.2344 465.016 15.2344 471.754C15.2344 479.176 23.5352 481.91 28.9062 483.277L35.9375 485.23C43.5547 487.184 55.957 491.578 55.957 504.762C55.957 516.285 46.6797 525.27 30.2734 525.27C15.0391 525.27 5.56641 517.359 4.78516 505.641H13.7695C14.5508 513.551 21.875 517.262 30.2734 517.262C40.0391 517.262 47.3633 512.281 47.3633 504.566C47.3633 497.73 40.8203 495.094 33.3984 492.945L24.707 490.602C13.5742 487.379 6.73828 481.715 6.73828 472.145C6.73828 460.23 17.3828 452.32 31.0547 452.32C44.7266 452.32 54.5898 460.328 54.9805 471.07H46.3867ZM64.6484 461.109V453.297H117.969V461.109H95.8008V524H86.9141V461.109H64.6484ZM124.512 524H115.332L141.211 453.297H150.488L176.367 524H167.09L160.059 504.078H131.641L124.512 524ZM134.277 496.363H157.324L146.094 464.723H145.508L134.277 496.363ZM185.938 524V453.297H209.961C226.562 453.297 234.082 462.477 234.082 475.074C234.082 484.4 229.883 491.773 220.898 494.898L236.816 524H226.562L211.816 496.461L210.059 496.559H194.727V524H185.938ZM194.727 488.551H209.668C220.898 488.551 225.391 483.473 225.391 475.074C225.391 466.578 220.898 461.109 209.57 461.109H194.727V488.551ZM242.871 461.109V453.297H296.191V461.109H274.023V524H265.137V461.109H242.871ZM329.102 461.109V453.297H382.422V461.109H360.254V524H351.367V461.109H329.102ZM450.977 488.648C450.977 511.012 437.793 524.977 419.727 524.977C401.562 524.977 388.477 511.012 388.477 488.648C388.477 466.285 401.562 452.32 419.727 452.32C437.793 452.32 450.977 466.285 450.977 488.648ZM442.48 488.648C442.48 470.387 432.52 460.523 419.727 460.523C406.934 460.523 396.973 470.387 396.973 488.648C396.973 506.91 406.934 516.773 419.727 516.773C432.52 516.773 442.48 506.91 442.48 488.648ZM485.84 524H463.867V453.297H486.719C507.324 453.297 519.531 466.578 519.531 488.551C519.531 510.621 507.324 524 485.84 524ZM472.656 516.188H485.254C502.637 516.188 510.938 505.738 510.938 488.551C510.938 471.461 502.637 461.109 486.133 461.109H472.656V516.188ZM532.129 524H522.949L548.828 453.297H558.105L583.984 524H574.707L567.676 504.078H539.258L532.129 524ZM541.895 496.363H564.941L553.711 464.723H553.125L541.895 496.363ZM580.273 453.297H590.332L609.766 486.109H610.645L630.078 453.297H640.234L614.648 494.996V524H605.762V494.996L580.273 453.297Z" fill="white"/>
<path d="M381.758 238.977C367.891 238.977 359.199 230.676 359.199 219.25C359.199 210.656 364.863 205.432 373.164 199.621C368.33 193.859 364.961 188.977 364.961 182.727C364.961 173.156 371.699 166.613 382.148 166.613C392.793 166.613 399.336 173.449 399.336 181.457C399.336 188.195 395.723 192.883 389.961 197.18L384.785 201.086L400.02 219.543C401.826 216.027 402.949 211.779 402.949 206.945H411.055C411.055 216.76 408.076 222.57 405.391 226.086L415.156 238H405.098L400.117 232.043C395.527 236.633 388.301 238.977 381.758 238.977ZM367.793 219.25C367.793 225.793 373.262 231.555 381.562 231.555C386.348 231.555 391.23 229.602 395.137 225.988L378.34 205.871L375.898 207.727C369.551 212.316 367.793 217.199 367.793 219.25ZM373.359 182.824C373.359 186.73 376.24 190.686 379.707 194.836L384.395 191.418C388.301 188.781 390.938 186.242 390.938 181.457C390.938 177.941 387.422 173.84 382.441 173.84C377.07 173.84 373.359 178.43 373.359 182.824ZM497.09 189.562C495.039 179.797 486.641 174.523 477.363 174.523C464.57 174.523 454.609 184.387 454.609 202.648C454.609 220.91 464.57 230.773 477.363 230.773C486.641 230.773 494.941 225.5 497.09 215.832H505.879C503.34 230.285 491.719 238.977 477.363 238.977C459.199 238.977 446.113 225.012 446.113 202.648C446.113 180.285 459.199 166.32 477.363 166.32C491.621 166.32 503.242 174.914 505.879 189.562H497.09ZM518.184 238V167.297H526.973V198.742H564.375V167.297H573.262V238H564.375V206.457H526.973V238H518.184ZM588.789 238V167.297H631.66V175.109H597.578V198.742H629.414V206.457H597.578V230.188H632.148V238H588.789ZM693.77 189.562C691.719 179.797 683.32 174.523 674.043 174.523C661.25 174.523 651.289 184.387 651.289 202.648C651.289 220.91 661.25 230.773 674.043 230.773C683.32 230.773 691.621 225.5 693.77 215.832H702.559C700.02 230.285 688.398 238.977 674.043 238.977C655.879 238.977 642.793 225.012 642.793 202.648C642.793 180.285 655.879 166.32 674.043 166.32C688.301 166.32 699.922 174.914 702.559 189.562H693.77ZM714.863 238V167.297H723.652V202.258H724.531L755.977 167.297H767.5L737.91 199.23L767.5 238H756.758L732.441 205.285L723.652 215.246V238H714.863ZM815.156 238L795.82 167.297H804.707L819.453 224.523H820.137L835.078 167.297H844.941L859.98 224.523H860.566L875.312 167.297H884.199L864.863 238H855.781L840.352 182.043H839.766L824.238 238H815.156ZM949.922 202.648C949.922 225.012 936.738 238.977 918.672 238.977C900.508 238.977 887.422 225.012 887.422 202.648C887.422 180.285 900.508 166.32 918.672 166.32C936.738 166.32 949.922 180.285 949.922 202.648ZM941.426 202.648C941.426 184.387 931.465 174.523 918.672 174.523C905.879 174.523 895.918 184.387 895.918 202.648C895.918 220.91 905.879 230.773 918.672 230.773C931.465 230.773 941.426 220.91 941.426 202.648ZM962.812 238V167.297H986.836C1003.44 167.297 1010.96 176.477 1010.96 189.074C1010.96 198.4 1006.76 205.773 997.773 208.898L1013.69 238H1003.44L988.691 210.461L986.934 210.559H971.602V238H962.812ZM971.602 202.551H986.543C997.773 202.551 1002.27 197.473 1002.27 189.074C1002.27 180.578 997.773 175.109 986.445 175.109H971.602V202.551ZM1023.65 238V167.297H1032.44V202.258H1033.32L1064.77 167.297H1076.29L1046.7 199.23L1076.29 238H1065.55L1041.23 205.285L1032.44 215.246V238H1023.65Z" fill="white"/>
<path d="M3.90625 32.1094V24.2969H57.2266V32.1094H35.0586V95H26.1719V32.1094H3.90625ZM125.781 59.6484C125.781 82.0117 112.598 95.9766 94.5312 95.9766C76.3672 95.9766 63.2812 82.0117 63.2812 59.6484C63.2812 37.2852 76.3672 23.3203 94.5312 23.3203C112.598 23.3203 125.781 37.2852 125.781 59.6484ZM117.285 59.6484C117.285 41.3867 107.324 31.5234 94.5312 31.5234C81.7383 31.5234 71.7773 41.3867 71.7773 59.6484C71.7773 77.9102 81.7383 87.7734 94.5312 87.7734C107.324 87.7734 117.285 77.9102 117.285 59.6484ZM212.012 46.3672C208.984 37.2852 202.051 31.5234 191.992 31.5234C179.492 31.5234 169.531 41.3867 169.531 59.6484C169.531 77.9102 179.492 87.7734 192.578 87.7734C204.541 87.7734 212.695 79.7656 212.891 67.2656H194.434V59.5508H221.484V67.168C221.484 84.7461 209.375 95.9766 192.578 95.9766C173.73 95.9766 161.035 82.0117 161.035 59.6484C161.035 37.2852 173.828 23.3203 191.992 23.3203C206.934 23.3203 218.457 32.6953 221.094 46.3672H212.012ZM234.668 95V24.2969H277.539V32.1094H243.457V55.7422H275.293V63.457H243.457V87.1875H278.027V95H234.668ZM287.5 32.1094V24.2969H340.82V32.1094H318.652V95H309.766V32.1094H287.5ZM380.762 95H371.582L397.461 24.2969H406.738L432.617 95H423.34L416.309 75.0781H387.891L380.762 95ZM390.527 67.3633H413.574L402.344 35.7227H401.758L390.527 67.3633ZM467.285 95V24.2969H492.09C506.934 24.2969 513.867 32.5977 513.867 43.0469C513.867 52.1289 508.496 56.2305 502.344 57.8906V58.5742C508.887 58.9648 516.699 65.0195 516.699 76.25C516.699 86.8945 509.668 95 492.969 95H467.285ZM492.871 87.1875C503.906 87.1875 508.203 82.3047 508.203 76.1523C508.203 68.9258 502.441 62.8711 493.359 62.8711H476.074V87.1875H492.871ZM491.797 55.2539C499.414 55.2539 505.469 50.5664 505.469 43.1445C505.469 36.9922 501.367 32.1094 492.09 32.1094H476.074V55.2539H491.797ZM532.324 95H523.145L549.023 24.2969H558.301L584.18 95H574.902L567.871 75.0781H539.453L532.324 95ZM542.09 67.3633H565.137L553.906 35.7227H553.32L542.09 67.3633ZM593.75 95V24.2969H602.539V87.1875H635.352V95H593.75ZM654.492 95H645.312L671.191 24.2969H680.469L706.348 95H697.07L690.039 75.0781H661.621L654.492 95ZM664.258 67.3633H687.305L676.074 35.7227H675.488L664.258 67.3633ZM772.07 24.2969V95H763.672L725.391 39.9219H724.707V95H715.918V24.2969H724.414L762.695 79.4727H763.379V24.2969H772.07ZM835.938 46.5625C833.887 36.7969 825.488 31.5234 816.211 31.5234C803.418 31.5234 793.457 41.3867 793.457 59.6484C793.457 77.9102 803.418 87.7734 816.211 87.7734C825.488 87.7734 833.789 82.5 835.938 72.832H844.727C842.188 87.2852 830.566 95.9766 816.211 95.9766C798.047 95.9766 784.961 82.0117 784.961 59.6484C784.961 37.2852 798.047 23.3203 816.211 23.3203C830.469 23.3203 842.09 31.9141 844.727 46.5625H835.938ZM857.031 95V24.2969H899.902V32.1094H865.82V55.7422H897.656V63.457H865.82V87.1875H900.391V95H857.031Z" fill="white"/>
</svg>
