<svg width="754" height="666" viewBox="0 0 754 666" fill="none" xmlns="http://www.w3.org/2000/svg">
<g filter="url(#filter0_d_315_1721)">
<rect x="16" y="122" width="712" height="508" rx="16" fill="white"/>
<circle cx="68" cy="172" r="50" fill="white"/>
<path d="M53.1523 182L53.125 180.195L59.8789 173.086C62.2305 170.598 63.3516 169.258 63.3516 167.426C63.3516 165.402 61.6289 164.062 59.4141 164.062C57.0625 164.062 55.5586 165.566 55.5586 167.781H53.2344C53.207 164.281 55.9141 161.93 59.4961 161.93C63.0781 161.93 65.6484 164.336 65.6484 167.426C65.6484 169.641 64.6094 171.363 61.1094 174.973L56.5703 179.648V179.812H66.0039V182H53.1523ZM76.2031 182.273C72.0469 182.273 69.1484 179.977 69.1758 176.75C69.1484 174.18 70.9258 172.074 73.1953 171.719V171.609C71.2266 171.145 69.9414 169.34 69.9414 167.18C69.9414 164.145 72.5938 161.93 76.2031 161.93C79.8125 161.93 82.4648 164.145 82.4922 167.18C82.4648 169.34 81.1523 171.145 79.2109 171.609V171.719C81.4531 172.074 83.2305 174.18 83.2578 176.75C83.2305 179.977 80.332 182.273 76.2031 182.273ZM76.2031 180.113C79.0469 180.113 80.7969 178.691 80.7969 176.613C80.7969 174.426 78.8555 172.812 76.2031 172.812C73.5508 172.812 71.582 174.426 71.6367 176.613C71.582 178.691 73.3594 180.113 76.2031 180.113ZM76.2031 170.734C78.4453 170.734 80.0859 169.367 80.0859 167.371C80.0859 165.402 78.5273 164.062 76.2031 164.062C73.8516 164.062 72.3203 165.402 72.3203 167.371C72.3203 169.367 73.9336 170.734 76.2031 170.734Z" fill="#BBBBBB"/>
<circle cx="168" cy="172" r="50" fill="white"/>
<path d="M153.057 182L153.029 180.195L159.783 173.086C162.135 170.598 163.256 169.258 163.256 167.426C163.256 165.402 161.533 164.062 159.318 164.062C156.967 164.062 155.463 165.566 155.463 167.781H153.139C153.111 164.281 155.818 161.93 159.4 161.93C162.982 161.93 165.553 164.336 165.553 167.426C165.553 169.641 164.514 171.363 161.014 174.973L156.475 179.648V179.812H165.908V182H153.057ZM176.08 161.93C179.498 161.957 183.271 164.008 183.271 171.309C183.271 178.336 180.4 182.273 175.752 182.273C172.279 182.273 169.818 180.141 169.326 176.996H171.76C172.197 178.773 173.537 180.086 175.752 180.086C178.979 180.086 180.947 177.297 180.975 172.484H180.701C179.553 174.125 177.748 175.109 175.643 175.109C172.088 175.109 169.162 172.402 169.162 168.574C169.162 164.883 171.869 161.902 176.08 161.93ZM176.08 164.09C173.482 164.09 171.541 166.113 171.568 168.547C171.568 171.008 173.4 172.949 175.998 172.949C178.568 172.949 180.592 170.816 180.592 168.492C180.592 166.223 178.705 164.09 176.08 164.09Z" fill="#BBBBBB"/>
<circle cx="270" cy="172" r="50" fill="white"/>
<path d="M261.715 182.273C257.777 182.273 254.961 180.168 254.824 177.023H257.312C257.449 178.91 259.336 180.086 261.688 180.086C264.285 180.086 266.199 178.664 266.199 176.613C266.199 174.453 264.477 172.922 261.387 172.922H259.773V170.762H261.387C263.793 170.762 265.461 169.422 265.461 167.371C265.461 165.402 264.012 164.062 261.77 164.062C259.664 164.062 257.723 165.238 257.613 167.18H255.234C255.371 164.035 258.27 161.93 261.797 161.93C265.57 161.93 267.867 164.391 267.84 167.234C267.867 169.477 266.555 171.145 264.477 171.719V171.855C267.047 172.266 268.633 174.098 268.605 176.613C268.633 179.867 265.652 182.273 261.715 182.273ZM278.641 182.273C274.238 182.273 271.723 178.582 271.723 172.102C271.723 165.676 274.293 161.93 278.641 161.93C282.988 161.93 285.559 165.676 285.559 172.102C285.559 178.582 283.016 182.273 278.641 182.273ZM278.641 180.086C281.484 180.086 283.152 177.215 283.152 172.102C283.152 166.988 281.484 164.062 278.641 164.062C275.797 164.062 274.102 166.988 274.102 172.102C274.102 177.215 275.77 180.086 278.641 180.086Z" fill="#BBBBBB"/>
<circle cx="372" cy="172" r="50" fill="white"/>
<path d="M365.916 182.273C361.979 182.273 359.162 180.168 359.025 177.023H361.514C361.65 178.91 363.537 180.086 365.889 180.086C368.486 180.086 370.4 178.664 370.4 176.613C370.4 174.453 368.678 172.922 365.588 172.922H363.975V170.762H365.588C367.994 170.762 369.662 169.422 369.662 167.371C369.662 165.402 368.213 164.062 365.971 164.062C363.865 164.062 361.924 165.238 361.814 167.18H359.436C359.572 164.035 362.471 161.93 365.998 161.93C369.771 161.93 372.068 164.391 372.041 167.234C372.068 169.477 370.756 171.145 368.678 171.719V171.855C371.248 172.266 372.834 174.098 372.807 176.613C372.834 179.867 369.854 182.273 365.916 182.273ZM383.361 162.203V182H380.873V164.773H380.764L375.951 167.973V165.484L380.873 162.203H383.361Z" fill="#BBBBBB"/>
<circle cx="474" cy="172" r="50" fill="white"/>
<path d="M477.221 162.203V182H474.732V164.773H474.623L469.811 167.973V165.484L474.732 162.203H477.221Z" fill="#111111"/>
<circle cx="576" cy="172" r="50" fill="white"/>
<path d="M570.143 182L570.115 180.195L576.869 173.086C579.221 170.598 580.342 169.258 580.342 167.426C580.342 165.402 578.619 164.062 576.404 164.062C574.053 164.062 572.549 165.566 572.549 167.781H570.225C570.197 164.281 572.904 161.93 576.486 161.93C580.068 161.93 582.639 164.336 582.639 167.426C582.639 169.641 581.6 171.363 578.1 174.973L573.561 179.648V179.812H582.994V182H570.143Z" fill="#111111"/>
<circle cx="678" cy="172" r="50" fill="white"/>
<path d="M678.055 182.273C674.117 182.273 671.301 180.168 671.164 177.023H673.652C673.789 178.91 675.676 180.086 678.027 180.086C680.625 180.086 682.539 178.664 682.539 176.613C682.539 174.453 680.816 172.922 677.727 172.922H676.113V170.762H677.727C680.133 170.762 681.801 169.422 681.801 167.371C681.801 165.402 680.352 164.062 678.109 164.062C676.004 164.062 674.062 165.238 673.953 167.18H671.574C671.711 164.035 674.609 161.93 678.137 161.93C681.91 161.93 684.207 164.391 684.18 167.234C684.207 169.477 682.895 171.145 680.816 171.719V171.855C683.387 172.266 684.973 174.098 684.945 176.613C684.973 179.867 681.992 182.273 678.055 182.273Z" fill="#111111"/>
<circle cx="66" cy="274" r="50" fill="white"/>
<path d="M58.6309 279.953V277.93L67.5449 264.203H70.5801V277.793H73.3418V279.953H70.5801V284H68.2285V279.953H58.6309ZM61.2832 277.793H68.2285V267.32H67.9824L61.2832 277.629V277.793Z" fill="#111111"/>
<circle cx="166" cy="274" r="50" fill="#FE9636"/>
<path d="M166.459 284.273C162.877 284.273 160.17 282.059 160.033 279.023H162.412C162.604 280.801 164.326 282.113 166.459 282.113C169.029 282.113 170.889 280.227 170.889 277.738C170.889 275.168 168.947 273.281 166.295 273.254C164.627 273.227 163.342 273.746 162.604 275.031H160.225L161.619 264.203H172.338V266.391H163.67L162.932 272.188H163.123C163.998 271.504 165.338 271.039 166.732 271.039C170.506 271.039 173.295 273.828 173.295 277.684C173.295 281.512 170.396 284.273 166.459 284.273Z" fill="#111111"/>
<circle cx="268" cy="274" r="50" fill="#FE9636"/>
<path d="M268.164 284.273C264.719 284.219 260.945 282.195 260.945 274.867C260.945 267.867 263.816 263.93 268.465 263.93C271.938 263.93 274.371 266.062 274.891 269.18H272.457C271.992 267.43 270.68 266.117 268.465 266.117C265.211 266.117 263.27 268.906 263.27 273.664H263.516C264.664 272.023 266.469 271.039 268.602 271.039C272.129 271.039 275.055 273.773 275.055 277.602C275.055 281.32 272.32 284.301 268.164 284.273ZM268.164 282.113C270.734 282.113 272.648 280.09 272.676 277.629C272.648 275.195 270.816 273.199 268.219 273.199C265.621 273.199 263.625 275.305 263.598 277.656C263.598 279.98 265.512 282.113 268.164 282.113Z" fill="#111111"/>
<circle cx="370" cy="274" r="50" fill="#FE9636"/>
<path d="M364.764 284L373.842 266.527V266.391H363.369V264.203H376.385V266.5L367.334 284H364.764Z" fill="#111111"/>
<circle cx="472" cy="274" r="50" fill="#FE9636"/>
<path d="M472.486 284.273C468.33 284.273 465.432 281.977 465.459 278.75C465.432 276.18 467.209 274.074 469.479 273.719V273.609C467.51 273.145 466.225 271.34 466.225 269.18C466.225 266.145 468.877 263.93 472.486 263.93C476.096 263.93 478.748 266.145 478.775 269.18C478.748 271.34 477.436 273.145 475.494 273.609V273.719C477.736 274.074 479.514 276.18 479.541 278.75C479.514 281.977 476.615 284.273 472.486 284.273ZM472.486 282.113C475.33 282.113 477.08 280.691 477.08 278.613C477.08 276.426 475.139 274.812 472.486 274.812C469.834 274.812 467.865 276.426 467.92 278.613C467.865 280.691 469.643 282.113 472.486 282.113ZM472.486 272.734C474.729 272.734 476.369 271.367 476.369 269.371C476.369 267.402 474.811 266.062 472.486 266.062C470.135 266.062 468.604 267.402 468.604 269.371C468.604 271.367 470.217 272.734 472.486 272.734Z" fill="#111111"/>
<circle cx="574" cy="274" r="50" fill="#FE9636"/>
<path d="M573.863 263.93C577.281 263.957 581.055 266.008 581.055 273.309C581.055 280.336 578.184 284.273 573.535 284.273C570.062 284.273 567.602 282.141 567.109 278.996H569.543C569.98 280.773 571.32 282.086 573.535 282.086C576.762 282.086 578.73 279.297 578.758 274.484H578.484C577.336 276.125 575.531 277.109 573.426 277.109C569.871 277.109 566.945 274.402 566.945 270.574C566.945 266.883 569.652 263.902 573.863 263.93ZM573.863 266.09C571.266 266.09 569.324 268.113 569.352 270.547C569.352 273.008 571.184 274.949 573.781 274.949C576.352 274.949 578.375 272.816 578.375 270.492C578.375 268.223 576.488 266.09 573.863 266.09Z" fill="#111111"/>
<circle cx="676" cy="274" r="50" fill="white"/>
<path d="M670.881 264.203V284H668.393V266.773H668.283L663.471 269.973V267.484L668.393 264.203H670.881ZM682.639 284.273C678.236 284.273 675.721 280.582 675.721 274.102C675.721 267.676 678.291 263.93 682.639 263.93C686.986 263.93 689.557 267.676 689.557 274.102C689.557 280.582 687.014 284.273 682.639 284.273ZM682.639 282.086C685.482 282.086 687.15 279.215 687.15 274.102C687.15 268.988 685.482 266.062 682.639 266.062C679.795 266.062 678.1 268.988 678.1 274.102C678.1 279.215 679.768 282.086 682.639 282.086Z" fill="#111111"/>
<circle cx="68" cy="376" r="50" fill="white"/>
<path d="M65.082 366.203V386H62.5938V368.773H62.4844L57.6719 371.973V369.484L62.5938 366.203H65.082ZM77.3594 366.203V386H74.8711V368.773H74.7617L69.9492 371.973V369.484L74.8711 366.203H77.3594Z" fill="#111111"/>
<circle cx="168" cy="376" r="50" fill="#FE9636"/>
<path d="M163.004 366.203V386H160.516V368.773H160.406L155.594 371.973V369.484L160.516 366.203H163.004ZM168.281 386L168.254 384.195L175.008 377.086C177.359 374.598 178.48 373.258 178.48 371.426C178.48 369.402 176.758 368.062 174.543 368.062C172.191 368.062 170.688 369.566 170.688 371.781H168.363C168.336 368.281 171.043 365.93 174.625 365.93C178.207 365.93 180.777 368.336 180.777 371.426C180.777 373.641 179.738 375.363 176.238 378.973L171.699 383.648V383.812H181.133V386H168.281Z" fill="#111111"/>
<circle cx="270" cy="376" r="50" fill="#FE9636"/>
<path d="M264.08 366.203V386H261.592V368.773H261.482L256.67 371.973V369.484L261.592 366.203H264.08ZM276.193 386.273C272.256 386.273 269.439 384.168 269.303 381.023H271.791C271.928 382.91 273.814 384.086 276.166 384.086C278.764 384.086 280.678 382.664 280.678 380.613C280.678 378.453 278.955 376.922 275.865 376.922H274.252V374.762H275.865C278.271 374.762 279.939 373.422 279.939 371.371C279.939 369.402 278.49 368.062 276.248 368.062C274.143 368.062 272.201 369.238 272.092 371.18H269.713C269.85 368.035 272.748 365.93 276.275 365.93C280.049 365.93 282.346 368.391 282.318 371.234C282.346 373.477 281.033 375.145 278.955 375.719V375.855C281.525 376.266 283.111 378.098 283.084 380.613C283.111 383.867 280.131 386.273 276.193 386.273Z" fill="#111111"/>
<circle cx="372" cy="376" r="50" fill="#FE9636"/>
<path d="M365.984 366.203V386H363.496V368.773H363.387L358.574 371.973V369.484L363.496 366.203H365.984ZM370.77 381.953V379.93L379.684 366.203H382.719V379.793H385.48V381.953H382.719V386H380.367V381.953H370.77ZM373.422 379.793H380.367V369.32H380.121L373.422 379.629V379.793Z" fill="#111111"/>
<circle cx="474" cy="376" r="50" fill="white"/>
<path d="M468.867 366.203V386H466.379V368.773H466.27L461.457 371.973V369.484L466.379 366.203H468.867ZM480.598 386.273C477.016 386.273 474.309 384.059 474.172 381.023H476.551C476.742 382.801 478.465 384.113 480.598 384.113C483.168 384.113 485.027 382.227 485.027 379.738C485.027 377.168 483.086 375.281 480.434 375.254C478.766 375.227 477.48 375.746 476.742 377.031H474.363L475.758 366.203H486.477V368.391H477.809L477.07 374.188H477.262C478.137 373.504 479.477 373.039 480.871 373.039C484.645 373.039 487.434 375.828 487.434 379.684C487.434 383.512 484.535 386.273 480.598 386.273Z" fill="#111111"/>
<circle cx="576" cy="376" r="50" fill="#FE9636"/>
<path d="M570.135 366.203V386H567.646V368.773H567.537L562.725 371.973V369.484L567.646 366.203H570.135ZM582.303 386.273C578.857 386.219 575.084 384.195 575.084 376.867C575.084 369.867 577.955 365.93 582.604 365.93C586.076 365.93 588.51 368.062 589.029 371.18H586.596C586.131 369.43 584.818 368.117 582.604 368.117C579.35 368.117 577.408 370.906 577.408 375.664H577.654C578.803 374.023 580.607 373.039 582.74 373.039C586.268 373.039 589.193 375.773 589.193 379.602C589.193 383.32 586.459 386.301 582.303 386.273ZM582.303 384.113C584.873 384.113 586.787 382.09 586.814 379.629C586.787 377.195 584.955 375.199 582.357 375.199C579.76 375.199 577.764 377.305 577.736 379.656C577.736 381.98 579.65 384.113 582.303 384.113Z" fill="#111111"/>
<circle cx="678" cy="376" r="50" fill="white"/>
<path d="M672.996 366.203V386H670.508V368.773H670.398L665.586 371.973V369.484L670.508 366.203H672.996ZM678.902 386L687.98 368.527V368.391H677.508V366.203H690.523V368.5L681.473 386H678.902Z" fill="#111111"/>
<circle cx="68" cy="478" r="50" fill="white"/>
<path d="M62.2305 468.203V488H59.7422V470.773H59.6328L54.8203 473.973V471.484L59.7422 468.203H62.2305ZM74.125 488.273C69.9688 488.273 67.0703 485.977 67.0977 482.75C67.0703 480.18 68.8477 478.074 71.1172 477.719V477.609C69.1484 477.145 67.8633 475.34 67.8633 473.18C67.8633 470.145 70.5156 467.93 74.125 467.93C77.7344 467.93 80.3867 470.145 80.4141 473.18C80.3867 475.34 79.0742 477.145 77.1328 477.609V477.719C79.375 478.074 81.1523 480.18 81.1797 482.75C81.1523 485.977 78.2539 488.273 74.125 488.273ZM74.125 486.113C76.9688 486.113 78.7188 484.691 78.7188 482.613C78.7188 480.426 76.7773 478.812 74.125 478.812C71.4727 478.812 69.5039 480.426 69.5586 482.613C69.5039 484.691 71.2812 486.113 74.125 486.113ZM74.125 476.734C76.3672 476.734 78.0078 475.367 78.0078 473.371C78.0078 471.402 76.4492 470.062 74.125 470.062C71.7734 470.062 70.2422 471.402 70.2422 473.371C70.2422 475.367 71.8555 476.734 74.125 476.734Z" fill="#111111"/>
<circle cx="168" cy="478" r="50" fill="white"/>
<path d="M162.135 468.203V488H159.646V470.773H159.537L154.725 473.973V471.484L159.646 468.203H162.135ZM174.002 467.93C177.42 467.957 181.193 470.008 181.193 477.309C181.193 484.336 178.322 488.273 173.674 488.273C170.201 488.273 167.74 486.141 167.248 482.996H169.682C170.119 484.773 171.459 486.086 173.674 486.086C176.9 486.086 178.869 483.297 178.896 478.484H178.623C177.475 480.125 175.67 481.109 173.564 481.109C170.01 481.109 167.084 478.402 167.084 474.574C167.084 470.883 169.791 467.902 174.002 467.93ZM174.002 470.09C171.404 470.09 169.463 472.113 169.49 474.547C169.49 477.008 171.322 478.949 173.92 478.949C176.49 478.949 178.514 476.816 178.514 474.492C178.514 472.223 176.627 470.09 174.002 470.09Z" fill="#111111"/>
<circle cx="270" cy="478" r="50" fill="white"/>
<path d="M255.303 488L255.275 486.195L262.029 479.086C264.381 476.598 265.502 475.258 265.502 473.426C265.502 471.402 263.779 470.062 261.564 470.062C259.213 470.062 257.709 471.566 257.709 473.781H255.385C255.357 470.281 258.064 467.93 261.646 467.93C265.229 467.93 267.799 470.336 267.799 473.426C267.799 475.641 266.76 477.363 263.26 480.973L258.721 485.648V485.812H268.154V488H255.303ZM278.217 488.273C273.814 488.273 271.299 484.582 271.299 478.102C271.299 471.676 273.869 467.93 278.217 467.93C282.564 467.93 285.135 471.676 285.135 478.102C285.135 484.582 282.592 488.273 278.217 488.273ZM278.217 486.086C281.061 486.086 282.729 483.215 282.729 478.102C282.729 472.988 281.061 470.062 278.217 470.062C275.373 470.062 273.678 472.988 273.678 478.102C273.678 483.215 275.346 486.086 278.217 486.086Z" fill="#111111"/>
<circle cx="372" cy="478" r="50" fill="white"/>
<path d="M360.004 488L359.977 486.195L366.73 479.086C369.082 476.598 370.203 475.258 370.203 473.426C370.203 471.402 368.48 470.062 366.266 470.062C363.914 470.062 362.41 471.566 362.41 473.781H360.086C360.059 470.281 362.766 467.93 366.348 467.93C369.93 467.93 372.5 470.336 372.5 473.426C372.5 475.641 371.461 477.363 367.961 480.973L363.422 485.648V485.812H372.855V488H360.004ZM383.438 468.203V488H380.949V470.773H380.84L376.027 473.973V471.484L380.949 468.203H383.438Z" fill="#111111"/>
<circle cx="474" cy="478" r="50" fill="white"/>
<path d="M459.926 488L459.898 486.195L466.652 479.086C469.004 476.598 470.125 475.258 470.125 473.426C470.125 471.402 468.402 470.062 466.188 470.062C463.836 470.062 462.332 471.566 462.332 473.781H460.008C459.98 470.281 462.688 467.93 466.27 467.93C469.852 467.93 472.422 470.336 472.422 473.426C472.422 475.641 471.383 477.363 467.883 480.973L463.344 485.648V485.812H472.777V488H459.926ZM476.359 488L476.332 486.195L483.086 479.086C485.438 476.598 486.559 475.258 486.559 473.426C486.559 471.402 484.836 470.062 482.621 470.062C480.27 470.062 478.766 471.566 478.766 473.781H476.441C476.414 470.281 479.121 467.93 482.703 467.93C486.285 467.93 488.855 470.336 488.855 473.426C488.855 475.641 487.816 477.363 484.316 480.973L479.777 485.648V485.812H489.211V488H476.359Z" fill="#111111"/>
<circle cx="576" cy="478" r="50" fill="white"/>
<path d="M561.002 488L560.975 486.195L567.729 479.086C570.08 476.598 571.201 475.258 571.201 473.426C571.201 471.402 569.479 470.062 567.264 470.062C564.912 470.062 563.408 471.566 563.408 473.781H561.084C561.057 470.281 563.764 467.93 567.346 467.93C570.928 467.93 573.498 470.336 573.498 473.426C573.498 475.641 572.459 477.363 568.959 480.973L564.42 485.648V485.812H573.854V488H561.002ZM584.271 488.273C580.334 488.273 577.518 486.168 577.381 483.023H579.869C580.006 484.91 581.893 486.086 584.244 486.086C586.842 486.086 588.756 484.664 588.756 482.613C588.756 480.453 587.033 478.922 583.943 478.922H582.33V476.762H583.943C586.35 476.762 588.018 475.422 588.018 473.371C588.018 471.402 586.568 470.062 584.326 470.062C582.221 470.062 580.279 471.238 580.17 473.18H577.791C577.928 470.035 580.826 467.93 584.354 467.93C588.127 467.93 590.424 470.391 590.396 473.234C590.424 475.477 589.111 477.145 587.033 477.719V477.855C589.604 478.266 591.189 480.098 591.162 482.613C591.189 485.867 588.209 488.273 584.271 488.273Z" fill="#111111"/>
<circle cx="678" cy="478" r="50" fill="white"/>
<path d="M663.125 488L663.098 486.195L669.852 479.086C672.203 476.598 673.324 475.258 673.324 473.426C673.324 471.402 671.602 470.062 669.387 470.062C667.035 470.062 665.531 471.566 665.531 473.781H663.207C663.18 470.281 665.887 467.93 669.469 467.93C673.051 467.93 675.621 470.336 675.621 473.426C675.621 475.641 674.582 477.363 671.082 480.973L666.543 485.648V485.812H675.977V488H663.125ZM678.629 483.953V481.93L687.543 468.203H690.578V481.793H693.34V483.953H690.578V488H688.227V483.953H678.629ZM681.281 481.793H688.227V471.32H687.98L681.281 481.629V481.793Z" fill="#111111"/>
<circle cx="68" cy="580" r="50" fill="white"/>
<path d="M53.2891 590L53.2617 588.195L60.0156 581.086C62.3672 578.598 63.4883 577.258 63.4883 575.426C63.4883 573.402 61.7656 572.062 59.5508 572.062C57.1992 572.062 55.6953 573.566 55.6953 575.781H53.3711C53.3438 572.281 56.0508 569.93 59.6328 569.93C63.2148 569.93 65.7852 572.336 65.7852 575.426C65.7852 577.641 64.7461 579.363 61.2461 582.973L56.707 587.648V587.812H66.1406V590H53.2891ZM76.1758 590.273C72.5938 590.273 69.8867 588.059 69.75 585.023H72.1289C72.3203 586.801 74.043 588.113 76.1758 588.113C78.7461 588.113 80.6055 586.227 80.6055 583.738C80.6055 581.168 78.6641 579.281 76.0117 579.254C74.3438 579.227 73.0586 579.746 72.3203 581.031H69.9414L71.3359 570.203H82.0547V572.391H73.3867L72.6484 578.188H72.8398C73.7148 577.504 75.0547 577.039 76.4492 577.039C80.2227 577.039 83.0117 579.828 83.0117 583.684C83.0117 587.512 80.1133 590.273 76.1758 590.273Z" fill="#111111"/>
<circle cx="168" cy="580" r="50" fill="white"/>
<path d="M153.057 590L153.029 588.195L159.783 581.086C162.135 578.598 163.256 577.258 163.256 575.426C163.256 573.402 161.533 572.062 159.318 572.062C156.967 572.062 155.463 573.566 155.463 575.781H153.139C153.111 572.281 155.818 569.93 159.4 569.93C162.982 569.93 165.553 572.336 165.553 575.426C165.553 577.641 164.514 579.363 161.014 582.973L156.475 587.648V587.812H165.908V590H153.057ZM176.381 590.273C172.936 590.219 169.162 588.195 169.162 580.867C169.162 573.867 172.033 569.93 176.682 569.93C180.154 569.93 182.588 572.062 183.107 575.18H180.674C180.209 573.43 178.896 572.117 176.682 572.117C173.428 572.117 171.486 574.906 171.486 579.664H171.732C172.881 578.023 174.686 577.039 176.818 577.039C180.346 577.039 183.271 579.773 183.271 583.602C183.271 587.32 180.537 590.301 176.381 590.273ZM176.381 588.113C178.951 588.113 180.865 586.09 180.893 583.629C180.865 581.195 179.033 579.199 176.436 579.199C173.838 579.199 171.842 581.305 171.814 583.656C171.814 585.98 173.729 588.113 176.381 588.113Z" fill="#111111"/>
<circle cx="270" cy="580" r="50" fill="white"/>
<path d="M255.918 590L255.891 588.195L262.645 581.086C264.996 578.598 266.117 577.258 266.117 575.426C266.117 573.402 264.395 572.062 262.18 572.062C259.828 572.062 258.324 573.566 258.324 575.781H256C255.973 572.281 258.68 569.93 262.262 569.93C265.844 569.93 268.414 572.336 268.414 575.426C268.414 577.641 267.375 579.363 263.875 582.973L259.336 587.648V587.812H268.77V590H255.918ZM272.98 590L282.059 572.527V572.391H271.586V570.203H284.602V572.5L275.551 590H272.98Z" fill="#111111"/>
<circle cx="372" cy="580" r="50" fill="white"/>
<path d="M357.152 590L357.125 588.195L363.879 581.086C366.23 578.598 367.352 577.258 367.352 575.426C367.352 573.402 365.629 572.062 363.414 572.062C361.062 572.062 359.559 573.566 359.559 575.781H357.234C357.207 572.281 359.914 569.93 363.496 569.93C367.078 569.93 369.648 572.336 369.648 575.426C369.648 577.641 368.609 579.363 365.109 582.973L360.57 587.648V587.812H370.004V590H357.152ZM380.203 590.273C376.047 590.273 373.148 587.977 373.176 584.75C373.148 582.18 374.926 580.074 377.195 579.719V579.609C375.227 579.145 373.941 577.34 373.941 575.18C373.941 572.145 376.594 569.93 380.203 569.93C383.812 569.93 386.465 572.145 386.492 575.18C386.465 577.34 385.152 579.145 383.211 579.609V579.719C385.453 580.074 387.23 582.18 387.258 584.75C387.23 587.977 384.332 590.273 380.203 590.273ZM380.203 588.113C383.047 588.113 384.797 586.691 384.797 584.613C384.797 582.426 382.855 580.812 380.203 580.812C377.551 580.812 375.582 582.426 375.637 584.613C375.582 586.691 377.359 588.113 380.203 588.113ZM380.203 578.734C382.445 578.734 384.086 577.367 384.086 575.371C384.086 573.402 382.527 572.062 380.203 572.062C377.852 572.062 376.32 573.402 376.32 575.371C376.32 577.367 377.934 578.734 380.203 578.734Z" fill="#111111"/>
<circle cx="474" cy="580" r="50" fill="white"/>
<path d="M459.057 590L459.029 588.195L465.783 581.086C468.135 578.598 469.256 577.258 469.256 575.426C469.256 573.402 467.533 572.062 465.318 572.062C462.967 572.062 461.463 573.566 461.463 575.781H459.139C459.111 572.281 461.818 569.93 465.4 569.93C468.982 569.93 471.553 572.336 471.553 575.426C471.553 577.641 470.514 579.363 467.014 582.973L462.475 587.648V587.812H471.908V590H459.057ZM482.08 569.93C485.498 569.957 489.271 572.008 489.271 579.309C489.271 586.336 486.4 590.273 481.752 590.273C478.279 590.273 475.818 588.141 475.326 584.996H477.76C478.197 586.773 479.537 588.086 481.752 588.086C484.979 588.086 486.947 585.297 486.975 580.484H486.701C485.553 582.125 483.748 583.109 481.643 583.109C478.088 583.109 475.162 580.402 475.162 576.574C475.162 572.883 477.869 569.902 482.08 569.93ZM482.08 572.09C479.482 572.09 477.541 574.113 477.568 576.547C477.568 579.008 479.4 580.949 481.998 580.949C484.568 580.949 486.592 578.816 486.592 576.492C486.592 574.223 484.705 572.09 482.08 572.09Z" fill="#111111"/>
<circle cx="576" cy="580" r="50" fill="white"/>
<path d="M567.715 590.273C563.777 590.273 560.961 588.168 560.824 585.023H563.312C563.449 586.91 565.336 588.086 567.688 588.086C570.285 588.086 572.199 586.664 572.199 584.613C572.199 582.453 570.477 580.922 567.387 580.922H565.773V578.762H567.387C569.793 578.762 571.461 577.422 571.461 575.371C571.461 573.402 570.012 572.062 567.77 572.062C565.664 572.062 563.723 573.238 563.613 575.18H561.234C561.371 572.035 564.27 569.93 567.797 569.93C571.57 569.93 573.867 572.391 573.84 575.234C573.867 577.477 572.555 579.145 570.477 579.719V579.855C573.047 580.266 574.633 582.098 574.605 584.613C574.633 587.867 571.652 590.273 567.715 590.273ZM584.641 590.273C580.238 590.273 577.723 586.582 577.723 580.102C577.723 573.676 580.293 569.93 584.641 569.93C588.988 569.93 591.559 573.676 591.559 580.102C591.559 586.582 589.016 590.273 584.641 590.273ZM584.641 588.086C587.484 588.086 589.152 585.215 589.152 580.102C589.152 574.988 587.484 572.062 584.641 572.062C581.797 572.062 580.102 574.988 580.102 580.102C580.102 585.215 581.77 588.086 584.641 588.086Z" fill="#111111"/>
<circle cx="678" cy="580" r="50" fill="white"/>
<path d="M671.916 590.273C667.979 590.273 665.162 588.168 665.025 585.023H667.514C667.65 586.91 669.537 588.086 671.889 588.086C674.486 588.086 676.4 586.664 676.4 584.613C676.4 582.453 674.678 580.922 671.588 580.922H669.975V578.762H671.588C673.994 578.762 675.662 577.422 675.662 575.371C675.662 573.402 674.213 572.062 671.971 572.062C669.865 572.062 667.924 573.238 667.814 575.18H665.436C665.572 572.035 668.471 569.93 671.998 569.93C675.771 569.93 678.068 572.391 678.041 575.234C678.068 577.477 676.756 579.145 674.678 579.719V579.855C677.248 580.266 678.834 582.098 678.807 584.613C678.834 587.867 675.854 590.273 671.916 590.273ZM689.361 570.203V590H686.873V572.773H686.764L681.951 575.973V573.484L686.873 570.203H689.361Z" fill="#111111"/>
<g filter="url(#filter1_dd_315_1721)">
<path d="M47.9216 87.5938C47.7341 85.6562 46.0779 84.5312 43.6404 84.5312C41.0779 84.5312 39.5154 85.7812 39.5154 87.4688C39.5154 89.375 41.5154 90.1562 43.3904 90.5938L45.5154 91.1562C48.8904 91.9375 52.1404 93.7188 52.1404 97.6562C52.1404 101.625 49.0154 104.344 43.5779 104.344C38.2966 104.344 34.9841 101.812 34.7966 97.3438H38.7966C38.9841 99.7188 40.9841 100.875 43.5466 100.875C46.2341 100.875 48.0779 99.5625 48.0779 97.625C48.0779 95.8438 46.4216 95.0938 43.9841 94.4688L41.4216 93.8125C37.7029 92.8438 35.3904 90.9688 35.3904 87.7188C35.3904 83.7188 38.9529 81.0625 43.7029 81.0625C48.5154 81.0625 51.7654 83.7812 51.8279 87.5938H47.9216ZM69.7966 81.375H73.8904V96.1562C73.8904 101 70.2029 104.344 64.7029 104.344C59.1716 104.344 55.5154 101 55.5154 96.1562V81.375H59.5779V95.8125C59.5779 98.6562 61.5779 100.719 64.7029 100.719C67.8279 100.719 69.7966 98.6562 69.7966 95.8125V81.375ZM96.6716 81.375V104H93.0466L82.3279 88.5312H82.1404V104H78.0779V81.375H81.7654L92.4216 96.8438H92.6404V81.375H96.6716Z" fill="#BBBBBB"/>
<path d="M133.271 81.375H138.271L144.99 97.8125H145.271L151.99 81.375H156.99V104H153.083V88.4375H152.865L146.583 103.938H143.677L137.396 88.375H137.208V104H133.271V81.375ZM181.365 92.6875C181.365 100 176.927 104.312 170.99 104.312C165.052 104.312 160.615 99.9688 160.615 92.6875C160.615 85.375 165.052 81.0625 170.99 81.0625C176.927 81.0625 181.365 85.375 181.365 92.6875ZM177.271 92.6875C177.271 87.5312 174.677 84.7188 170.99 84.7188C167.302 84.7188 164.708 87.5312 164.708 92.6875C164.708 97.8438 167.302 100.656 170.99 100.656C174.677 100.656 177.271 97.8438 177.271 92.6875ZM203.583 81.375V104H199.958L189.24 88.5312H189.052V104H184.99V81.375H188.677L199.333 96.8438H199.552V81.375H203.583Z" fill="#BBBBBB"/>
<path d="M241.104 84.7812V81.375H259.135V84.7812H252.167V104H248.104V84.7812H241.104ZM276.604 81.375H280.698V96.1562C280.698 101 277.01 104.344 271.51 104.344C265.979 104.344 262.323 101 262.323 96.1562V81.375H266.385V95.8125C266.385 98.6562 268.385 100.719 271.51 100.719C274.635 100.719 276.604 98.6562 276.604 95.8125V81.375ZM284.885 104V81.375H299.604V84.7812H288.948V90.9688H298.823V94.375H288.948V100.562H299.667V104H284.885Z" fill="#BBBBBB"/>
<path d="M343.906 104L337.531 81.375H341.906L346 98.0312H346.219L350.562 81.375H354.562L358.938 98.0625H359.125L363.219 81.375H367.594L361.219 104H357.188L352.656 88.0938H352.5L347.938 104H343.906ZM370.188 104V81.375H384.906V84.7812H374.25V90.9688H384.125V94.375H374.25V100.562H384.969V104H370.188ZM396.5 104H388.812V81.375H396.625C403.375 81.375 407.469 85.625 407.469 92.6562C407.469 99.7188 403.375 104 396.5 104ZM392.875 100.469H396.281C401 100.469 403.406 97.875 403.406 92.6562C403.406 87.4688 401 84.9062 396.406 84.9062H392.875V100.469Z" fill="#BBBBBB"/>
<path d="M443.552 84.7812V81.375H461.583V84.7812H454.615V104H450.552V84.7812H443.552ZM464.771 104V81.375H468.833V90.9688H479.365V81.375H483.458V104H479.365V94.375H468.833V104H464.771ZM501.927 81.375H506.021V96.1562C506.021 101 502.333 104.344 496.833 104.344C491.302 104.344 487.646 101 487.646 96.1562V81.375H491.708V95.8125C491.708 98.6562 493.708 100.719 496.833 100.719C499.958 100.719 501.927 98.6562 501.927 95.8125V81.375Z" fill="#BBBBBB"/>
<path d="M556.573 106V83.375H571.073V86.7812H560.636V92.9688H570.073V96.375H560.636V106H556.573ZM574.511 106V83.375H583.011C588.198 83.375 590.979 86.2812 590.979 90.5938C590.979 93.6719 589.573 95.9531 586.917 97.0312L591.792 106H587.261L582.823 97.7188H578.573V106H574.511ZM578.573 94.3125H582.386C585.448 94.3125 586.823 93 586.823 90.5938C586.823 88.1875 585.448 86.7812 582.386 86.7812H578.573V94.3125ZM598.542 83.375V106H594.479V83.375H598.542Z" fill="#BBBBBB"/>
<path d="M664.656 87.5938C664.469 85.6562 662.813 84.5312 660.375 84.5312C657.813 84.5312 656.25 85.7812 656.25 87.4688C656.25 89.375 658.25 90.1562 660.125 90.5938L662.25 91.1562C665.625 91.9375 668.875 93.7188 668.875 97.6562C668.875 101.625 665.75 104.344 660.313 104.344C655.031 104.344 651.719 101.812 651.531 97.3438H655.531C655.719 99.7188 657.719 100.875 660.281 100.875C662.969 100.875 664.813 99.5625 664.813 97.625C664.813 95.8438 663.156 95.0938 660.719 94.4688L658.156 93.8125C654.438 92.8438 652.125 90.9688 652.125 87.7188C652.125 83.7188 655.688 81.0625 660.438 81.0625C665.25 81.0625 668.5 83.7812 668.563 87.5938H664.656ZM674.781 104H670.438L678.406 81.375H683.406L691.406 104H687.063L685.188 98.4062H676.656L674.781 104ZM677.75 95.125H684.094L681 86H680.813L677.75 95.125ZM690.344 84.7812V81.375H708.375V84.7812H701.406V104H697.344V84.7812H690.344Z" fill="#BBBBBB"/>
</g>
<path d="M269.141 34H264.797L272.766 11.375H277.766L285.766 34H281.422L279.547 28.4062H271.016L269.141 34ZM272.109 25.125H278.453L275.359 16H275.172L272.109 25.125ZM299.109 26.875V17.0312H303.078V34H299.234V31H299.047C298.266 32.875 296.484 34.2188 293.953 34.2188C290.609 34.2188 288.297 31.9062 288.266 27.8438V17.0312H292.266V27.2188C292.266 29.375 293.547 30.75 295.484 30.75C297.234 30.75 299.109 29.4688 299.109 26.875ZM314.297 40.7188C309.797 40.7188 306.953 38.7188 306.672 35.5312H310.641C310.922 37 312.328 37.7188 314.359 37.7188C316.734 37.7188 318.297 36.6875 318.297 34.1875V30.9375H318.109C317.484 32.1875 316.141 33.75 313.203 33.75C309.297 33.75 306.203 30.9062 306.203 25.375C306.203 19.7812 309.297 16.8125 313.234 16.8125C316.234 16.8125 317.484 18.5938 318.109 19.8125H318.297V17.0312H322.234V34.2812C322.234 38.625 318.891 40.7188 314.297 40.7188ZM314.297 30.625C316.859 30.625 318.328 28.6875 318.328 25.4375C318.328 22.2188 316.891 20.0625 314.297 20.0625C311.641 20.0625 310.266 22.3438 310.266 25.4375C310.266 28.5625 311.672 30.625 314.297 30.625ZM336.891 26.875V17.0312H340.859V34H337.016V31H336.828C336.047 32.875 334.266 34.2188 331.734 34.2188C328.391 34.2188 326.078 31.9062 326.047 27.8438V17.0312H330.047V27.2188C330.047 29.375 331.328 30.75 333.266 30.75C335.016 30.75 336.891 29.4688 336.891 26.875ZM354.297 21.875C354.047 20.5938 352.984 19.7812 351.297 19.7812C349.578 19.7812 348.328 20.625 348.359 21.7812C348.328 22.6562 349.047 23.3125 350.766 23.7188L353.641 24.3125C356.859 25.0312 358.391 26.5 358.422 28.9375C358.391 32.125 355.609 34.3438 351.172 34.3438C346.859 34.3438 344.297 32.4062 343.891 29.1562H347.953C348.203 30.5938 349.328 31.3125 351.172 31.3125C353.078 31.3125 354.359 30.5312 354.359 29.2812C354.359 28.3125 353.578 27.6875 351.891 27.3125L349.172 26.7188C346.016 26.0938 344.391 24.4375 344.391 22C344.391 18.875 347.078 16.8125 351.234 16.8125C355.297 16.8125 357.797 18.7812 358.078 21.875H354.297ZM369.922 17.0312V20.0938H366.578V28.9062C366.578 30.5312 367.391 30.875 368.391 30.875C368.859 30.875 369.641 30.8438 370.141 30.8125V34.0625C369.672 34.1562 368.891 34.2188 367.891 34.2188C364.891 34.2188 362.578 32.75 362.609 29.5625V20.0938H360.172V17.0312H362.609V12.9688H366.578V17.0312H369.922ZM380.547 34V31.0625L388.547 23.3438C390.828 21.0625 392.016 19.7188 392.016 17.8125C392.016 15.7188 390.359 14.375 388.141 14.375C385.797 14.375 384.297 15.8438 384.328 18.125H380.453C380.422 13.8438 383.641 11.0625 388.172 11.0625C392.797 11.0625 395.922 13.8125 395.922 17.625C395.922 20.1875 394.672 22.25 390.234 26.4375L386.203 30.4375V30.5938H396.266V34H380.547ZM408.172 34.3125C402.734 34.3125 399.484 30.0938 399.484 22.6875C399.484 15.3125 402.734 11.0625 408.172 11.0625C413.578 11.0625 416.859 15.3125 416.859 22.6875C416.859 30.0938 413.609 34.3125 408.172 34.3125ZM408.172 30.9062C411.016 30.9062 412.766 28.125 412.766 22.6875C412.766 17.2812 410.984 14.4375 408.172 14.4375C405.359 14.4375 403.578 17.2812 403.578 22.6875C403.578 28.125 405.328 30.9062 408.172 30.9062ZM420.266 34V31.0625L428.266 23.3438C430.547 21.0625 431.734 19.7188 431.734 17.8125C431.734 15.7188 430.078 14.375 427.859 14.375C425.516 14.375 424.016 15.8438 424.047 18.125H420.172C420.141 13.8438 423.359 11.0625 427.891 11.0625C432.516 11.0625 435.641 13.8125 435.641 17.625C435.641 20.1875 434.391 22.25 429.953 26.4375L425.922 30.4375V30.5938H435.984V34H420.266ZM438.641 29.7812V26.5312L448.422 11.375H453.484V26.4375H456.453V29.7812H453.484V34H449.609V29.7812H438.641ZM442.797 26.4375H449.672V16H449.422L442.797 26.2812V26.4375Z" fill="white"/>
<g filter="url(#filter2_d_315_1721)">
<path d="M481.293 28.2318C481.683 28.6223 482.317 28.6223 482.707 28.2318L489.071 21.8678C489.462 21.4773 489.462 20.8441 489.071 20.4536C488.681 20.0631 488.047 20.0631 487.657 20.4536L482 26.1105L476.343 20.4536C475.953 20.0631 475.319 20.0631 474.929 20.4536C474.538 20.8441 474.538 21.4773 474.929 21.8678L481.293 28.2318ZM481 26V27.5247H483V26H481Z" fill="white"/>
</g>
</g>
<defs>
<filter id="filter0_d_315_1721" x="0" y="0" width="754" height="666" filterUnits="userSpaceOnUse" color-interpolation-filters="sRGB">
<feFlood flood-opacity="0" result="BackgroundImageFix"/>
<feColorMatrix in="SourceAlpha" type="matrix" values="0 0 0 0 0 0 0 0 0 0 0 0 0 0 0 0 0 0 127 0" result="hardAlpha"/>
<feOffset dx="4" dy="16"/>
<feGaussianBlur stdDeviation="10"/>
<feComposite in2="hardAlpha" operator="out"/>
<feColorMatrix type="matrix" values="0 0 0 0 0 0 0 0 0 0 0 0 0 0 0 0 0 0 0.25 0"/>
<feBlend mode="normal" in2="BackgroundImageFix" result="effect1_dropShadow_315_1721"/>
<feBlend mode="normal" in="SourceGraphic" in2="effect1_dropShadow_315_1721" result="shape"/>
</filter>
<filter id="filter1_dd_315_1721" x="12" y="66" width="722" height="64" filterUnits="userSpaceOnUse" color-interpolation-filters="sRGB">
<feFlood flood-opacity="0" result="BackgroundImageFix"/>
<feColorMatrix in="SourceAlpha" type="matrix" values="0 0 0 0 0 0 0 0 0 0 0 0 0 0 0 0 0 0 127 0" result="hardAlpha"/>
<feOffset dy="1"/>
<feGaussianBlur stdDeviation="0.5"/>
<feComposite in2="hardAlpha" operator="out"/>
<feColorMatrix type="matrix" values="0 0 0 0 0 0 0 0 0 0 0 0 0 0 0 0 0 0 0.25 0"/>
<feBlend mode="normal" in2="BackgroundImageFix" result="effect1_dropShadow_315_1721"/>
<feColorMatrix in="SourceAlpha" type="matrix" values="0 0 0 0 0 0 0 0 0 0 0 0 0 0 0 0 0 0 127 0" result="hardAlpha"/>
<feOffset dy="4"/>
<feGaussianBlur stdDeviation="2"/>
<feComposite in2="hardAlpha" operator="out"/>
<feColorMatrix type="matrix" values="0 0 0 0 0 0 0 0 0 0 0 0 0 0 0 0 0 0 0.25 0"/>
<feBlend mode="normal" in2="effect1_dropShadow_315_1721" result="effect2_dropShadow_315_1721"/>
<feBlend mode="normal" in="SourceGraphic" in2="effect2_dropShadow_315_1721" result="shape"/>
</filter>
<filter id="filter2_d_315_1721" x="470.636" y="20.1611" width="22.728" height="16.3633" filterUnits="userSpaceOnUse" color-interpolation-filters="sRGB">
<feFlood flood-opacity="0" result="BackgroundImageFix"/>
<feColorMatrix in="SourceAlpha" type="matrix" values="0 0 0 0 0 0 0 0 0 0 0 0 0 0 0 0 0 0 127 0" result="hardAlpha"/>
<feOffset dy="4"/>
<feGaussianBlur stdDeviation="2"/>
<feComposite in2="hardAlpha" operator="out"/>
<feColorMatrix type="matrix" values="0 0 0 0 0 0 0 0 0 0 0 0 0 0 0 0 0 0 0.25 0"/>
<feBlend mode="normal" in2="BackgroundImageFix" result="effect1_dropShadow_315_1721"/>
<feBlend mode="normal" in="SourceGraphic" in2="effect1_dropShadow_315_1721" result="shape"/>
</filter>
</defs>
</svg>
